
<svg xmlns="http://www.w3.org/2000/svg" version="1.1" xmlns:xlink="http://www.w3.org/1999/xlink" preserveAspectRatio="none" x="0px" y="0px" width="693px" height="1069px" viewBox="0 0 693 1069">
<defs>
<linearGradient id="Gradient_1" gradientUnits="userSpaceOnUse" x1="365.55" y1="302.6125" x2="371.45" y2="206.58749999999998" spreadMethod="pad">
<stop  offset="26.666666666666668%" stop-color="#0090F8"/>

<stop  offset="100%" stop-color="#59A7F5"/>
</linearGradient>

<linearGradient id="Gradient_2" gradientUnits="userSpaceOnUse" x1="610.75" y1="72.3625" x2="470.84999999999997" y2="204.4375" spreadMethod="pad">
<stop  offset="26.666666666666668%" stop-color="#0090F8"/>

<stop  offset="100%" stop-color="#59A7F5"/>
</linearGradient>

<radialGradient id="Gradient_3" gradientUnits="userSpaceOnUse" cx="0" cy="0" r="103.65000000000003" fx="0" fy="0" gradientTransform="matrix( 0.9999999999999997, 0, 0, 0.9999999999999997, 336.05,878.2) " spreadMethod="pad">
<stop  offset="24.313725490196077%" stop-color="#DFC398"/>

<stop  offset="100%" stop-color="#886F49"/>
</radialGradient>

<radialGradient id="Gradient_4" gradientUnits="userSpaceOnUse" cx="0" cy="0" r="289.8500000000001" fx="0" fy="0" gradientTransform="matrix( 0.9999999999999998, 0, 0, 0.9999999999999998, 338.05,558.1) " spreadMethod="pad">
<stop  offset="44.31372549019608%" stop-color="#9294AD"/>

<stop  offset="100%" stop-color="#525375"/>
</radialGradient>

<linearGradient id="Gradient_5" gradientUnits="userSpaceOnUse" x1="328.1375" y1="330.5125" x2="345.96250000000003" y2="211.4875" spreadMethod="pad">
<stop  offset="26.666666666666668%" stop-color="#53D5FD"/>

<stop  offset="100%" stop-color="#AAEAFD"/>
</linearGradient>

<linearGradient id="Gradient_6" gradientUnits="userSpaceOnUse" x1="263.3" y1="302.375" x2="285.3" y2="194.325" spreadMethod="pad">
<stop  offset="26.666666666666668%" stop-color="#0090F8"/>

<stop  offset="100%" stop-color="#59A7F5"/>
</linearGradient>

<linearGradient id="Gradient_7" gradientUnits="userSpaceOnUse" x1="51.974999999999994" y1="310.225" x2="218.025" y2="228.17499999999998" spreadMethod="pad">
<stop  offset="26.666666666666668%" stop-color="#0090F8"/>

<stop  offset="100%" stop-color="#59A7F5"/>
</linearGradient>

<linearGradient id="Gradient_8" gradientUnits="userSpaceOnUse" x1="323.9375" y1="173.7" x2="314.0625" y2="71.7" spreadMethod="pad">
<stop  offset="26.666666666666668%" stop-color="#0090F8"/>

<stop  offset="100%" stop-color="#59A7F5"/>
</linearGradient>

<radialGradient id="Gradient_9" gradientUnits="userSpaceOnUse" cx="0" cy="0" r="275.95" fx="0" fy="0" gradientTransform="matrix( 1.0000000000000002, 0, 0, 1.0000000000000002, 342.05,572.1) " spreadMethod="pad">
<stop  offset="24.313725490196077%" stop-color="#EDC78D"/>

<stop  offset="78.03921568627452%" stop-color="#795E35"/>

<stop  offset="98.82352941176471%" stop-color="#583F19"/>
</radialGradient>

<g id="Layer8_0_FILL">
<path fill="url(#Gradient_1)" stroke="none" d="
M 373.9 180.2
Q 372.4673828125 178.985546875 370.95 177.85 362.4734375 188.5 357.25 193.3 352.541015625 197.6251953125 347.6 200.45 347.71796875 200.541796875 347.8 200.6 352.159765625 204.962109375 356 210 366.5 223.9 366.5 235.5 366.5 240.4 364.3 245.3 363.1 247.95 361.25 250.6 359.6 253.05 355.7 257.3 353.1947265625 260.0556640625 349 266.25 344.8484375 272.444140625 342.8 279.6 340.7541015625 286.7556640625 341.25 293 341.7421875 299.2890625 343.4 303.95 345.058984375 308.6669921875 352.55 320.05
L 389.85 320.05
Q 385.296875 316.1 379.65 307.8 374.0591796875 299.55 374.5 292.35 374.940625 285.2 376.95 280.5 378.9529296875 275.85 384.9 268.1 386.1 266.5 387.5 264.7 390.25 261.15 392.45 258.1 396.15 252.85 398.15 249.15 403 240.1 403 231.75 403 216.8 391.2 199.6 390.8 198.95 390.35 198.35 382.8619140625 187.696875 373.9 180.2 Z"/>

<path fill="#006CAF" stroke="none" d="
M 373.9 180.2
Q 379.5541015625 174.159375 394.45 168.8 403.577734375 165.4759765625 411.25 163.9 409.7236328125 163.4208984375 408.15 163 395.15 164.75 386.95 166 380.1 167.05 372.25 172.95 370.7 174.1 368.5 176.05 369.74921875 176.9240234375 370.95 177.85 372.4673828125 178.985546875 373.9 180.2
M 277.45 185.75
Q 274.6365234375 189.340625 272.25 192.9 273.858984375 192.773828125 276.05 192.5 280 192 282 192 290.9 192 296.55 194.3 298.2814453125 195.0291015625 308.45 200.8 310.074609375 199.1205078125 312 197.1 309.05 195.6 305.35 193.5 297.65 189.1 294.2 187.65 287.85 185 281.95 185 280.35 185 277.45 185.75
M 262 197.35
Q 265.58203125 192.9951171875 270 188.1 266.05 189.45 261 191.5 244.8 198 238.95 198 236.369921875 198 233.8 197.55 234.428125 197.9412109375 235.1 198.3 239.35 200.5 244.25 200.5 248.1416015625 200.5 262 197.35
M 358.7 185.15
Q 350.1 193.5 345.25 196.8
L 344.55 197.6
Q 345.25 198.2 345.95 198.85 346.7953125 199.6404296875 347.6 200.45 352.541015625 197.6251953125 357.25 193.3 362.4734375 188.5 370.95 177.85 369.74921875 176.9240234375 368.5 176.05 364.6 179.45 358.7 185.15 Z"/>

<path fill="url(#Gradient_2)" stroke="none" d="
M 649.25 96.2
Q 659.05 92.25 659.55 76.65 660.05 61.05 647.1 53 635.75 46 616.55 46 599.75 46 584.95 53 570.8 59.7 560.1 72 549.6 84.15 543.85 100 538.05 116.2 538.05 132.45 538.05 148.65 542 161.5 545.9 174.3 547 179.3 548.05 184.3 548.05 193.5 548.05 200.4 544.95 208.2 541.75 216.3 536.05 223 522.55 239 503.45 239 484.65 239 471.95 226.65 467.1 221.9 461.7 214 455.55 204.45 452.4 199.5 440.3 180.7 428.5 172.35 420.7853515625 166.91953125 411.25 163.9 403.577734375 165.4759765625 394.45 168.8 379.5541015625 174.159375 373.9 180.2 382.8619140625 187.696875 390.35 198.35 390.8 198.95 391.2 199.6 404.2 199.85 415.6 208.1 424.5 214.5 439.35 232.8 454.7 251.85 463.75 258.9 479.15 271 497.45 271 533.25 271 556.1 249 580.05 225.9 580.05 187 580.05 176.8 576.55 162.95 573.05 149.1 573.05 140.5 573.05 113.85 584.1 105 595.1 96.15 605.65 95.5 616.15 94.85 627.8 97.5 639.4 100.1 649.25 96.2 Z"/>

<path fill="#FFFFFF" stroke="none" d="
M 389.85 320.05
L 352.55 320.05 273.65 320.05 232.55 320.05 225.35 320.05 211.85 320.05 78 320.05 78 1008.2 596.05 1008.2 596.05 320.05 447.65 320.05 427.1 320.05 389.85 320.05
M 104.95 409.15
L 569.1 409.15 569.1 981.25 345.05 981.25 345.05 980.75 338.75 980.75 338.75 990.9 338.75 980.75 335.3 980.75 335.3 990.9 335.3 980.75 329 980.75 329 981.25 323 980.75 104.95 981.25 104.95 409.15
M 326.8 994.75
L 326.8 991.5 347.25 991.5 347.25 994.75 326.8 994.75
M 326.8 991.5
L 326.8 994.75 347.25 994.75 347.25 991.5 326.8 991.5
M 362.15 846.1
Q 349.5 847.8 336.1 847.8 323.7 847.8 311.9 846.35
L 311.9 911.7 323 911.7 351.05 911.7 362.15 911.7 362.15 846.1
M 210.4 544.45
Q 253.1 501.85 310.25 494.15 317.95 493.1 325.9 492.7 330.95 492.45 336.1 492.45 338.05 492.45 340 492.5 349.05 492.65 357.75 493.65 417.5 500.25 461.7 544.45 513.75 596.5 513.75 670.1 513.75 743.7 461.7 795.7 419.15 838.35 362.15 846.1
L 362.15 911.7 351.05 911.7 351.05 969.25 557.1 969.25 557.1 421.15 116.95 421.15 116.95 969.25 323 969.25 323 911.7 311.9 911.7 311.9 846.35
Q 253.7 839 210.4 795.7 158.4 743.7 158.4 670.1 158.4 596.5 210.4 544.45
M 187.5 543.6
L 174.5 543.6 174.5 557.1 152 557.1 152 579.85 138.75 587.1 146 602.1 136.5 610.6 143 624.6 136.5 610.6 146 602.1 138.75 587.1 152 579.85 152 557.1 174.5 557.1 174.5 543.6 187.5 543.6
M 154 757.9
L 149.75 773.65 165 777.9 165 796.15 183 796.15 185.75 815.15 200.25 812.65 185.75 815.15 183 796.15 165 796.15 165 777.9 149.75 773.65 154 757.9 141.75 752.4 146.25 739.65 141.75 752.4 154 757.9
M 486.55 543.6
L 499.55 543.6 499.55 557.1 522.05 557.1 522.05 579.85 535.3 587.1 528.05 602.1 537.55 610.6 531.05 624.6 537.55 610.6 528.05 602.1 535.3 587.1 522.05 579.85 522.05 557.1 499.55 557.1 499.55 543.6 486.55 543.6
M 524.3 773.65
L 509.05 777.9 509.05 796.15 491.05 796.15 488.3 815.15 473.8 812.65 488.3 815.15 491.05 796.15 509.05 796.15 509.05 777.9 524.3 773.65 520.05 757.9 532.3 752.4 527.8 739.65 532.3 752.4 520.05 757.9 524.3 773.65
M 291 107.75
Q 288.3 107.75 286.4 109.65 284.5 111.55 284.5 114.25 284.5 116.95 286.4 118.85 288.3 120.75 291 120.75 293.7 120.75 295.6 118.85 297.5 116.95 297.5 114.25 297.5 111.55 295.6 109.65 293.7 107.75 291 107.75
M 348.95 95.5
Q 346.25 95.5 344.35 97.4 342.45 99.3 342.45 102 342.45 104.7 344.35 106.6 346.25 108.5 348.95 108.5 351.65 108.5 353.55 106.6 355.45 104.7 355.45 102 355.45 99.3 353.55 97.4 351.65 95.5 348.95 95.5 Z"/>

<path fill="#746D7D" stroke="none" d="
M 329 981.25
L 329 980.75 323 980.75 329 981.25
M 116.95 421.15
L 557.1 421.15 557.1 969.25 351.05 969.25 351.05 980.75 345.05 980.75 345.05 981.25 569.1 981.25 569.1 409.15 104.95 409.15 104.95 981.25 323 980.75 323 969.25 116.95 969.25 116.95 421.15 Z"/>

<path fill="url(#Gradient_3)" stroke="none" d="
M 338.75 980.75
L 345.05 980.75 351.05 980.75 351.05 969.25 351.05 911.7 323 911.7 323 969.25 323 980.75 329 980.75 335.3 980.75 338.75 980.75 Z"/>

<path fill="url(#Gradient_4)" stroke="none" d="
M 310.25 494.15
Q 253.1 501.85 210.4 544.45 158.4 596.5 158.4 670.1 158.4 743.7 210.4 795.7 253.7 839 311.9 846.35 323.7 847.8 336.1 847.8 349.5 847.8 362.15 846.1 419.15 838.35 461.7 795.7 513.75 743.7 513.75 670.1 513.75 596.5 461.7 544.45 417.5 500.25 357.75 493.65 349.05 492.65 340 492.5 338.05 492.45 336.1 492.45 330.95 492.45 325.9 492.7 317.95 493.1 310.25 494.15
M 304.35 670.1
Q 304.35 656.95 313.65 647.65 322.95 638.35 336.15 638.35 349.3 638.35 358.6 647.65 367.9 656.95 367.9 670.1 367.9 683.3 358.6 692.6 349.3 701.9 336.15 701.9 322.95 701.9 313.65 692.6 304.35 683.3 304.35 670.1
M 313.65 647.65
Q 304.35 656.95 304.35 670.1 304.35 683.3 313.65 692.6 322.95 701.9 336.15 701.9 349.3 701.9 358.6 692.6 367.9 683.3 367.9 670.1 367.9 656.95 358.6 647.65 349.3 638.35 336.15 638.35 322.95 638.35 313.65 647.65 Z"/>

<path fill="url(#Gradient_5)" stroke="none" d="
M 341.1 204.6
Q 337.611328125 206.0390625 333.25 206 334.5376953125 213.0501953125 336.5 221.4 341.25 241.6 345.95 248 349.85 253.25 355.7 257.3 359.6 253.05 361.25 250.6 363.1 247.95 364.3 245.3 364.1 245.15 363.9 244.95 349.1126953125 231.355078125 346.2 201.7 343.1322265625 203.779296875 341.1 204.6
M 427 292.05
Q 425.2 280 420.3 272.2 413.8 261.85 402.5 260 396.95 259.05 392.45 258.1 390.25 261.15 387.5 264.7 386.1 266.5 384.9 268.1 397.4 270.4 404.6 274.85 411.75 279.25 413.5 290.9 415.2 302.5 419.4 309.5 423.6 316.45 427.1 320.05
L 447.65 320.05
Q 441.45 316.05 437.75 312.6 428.8 304.2 427 292.05
M 246.45 290.85
Q 250.3 288.55 256 286.1 259.15 277.5 259.45 268.6 256.7 269.65 254.45 270.65 241.1 276.45 232.35 283.7 215.95 297.3 211.85 320.05
L 225.35 320.05
Q 227 312.9 230.2 307.2 235.7 297.35 246.45 290.85
M 325.25 240.85
Q 331.1490234375 227.624609375 331.4 207.1 326.49609375 208.03828125 322.9 206.95 321.0287109375 206.351171875 317.8 204.4 317.027734375 218.628125 311.75 231.2 304.35 248.85 289.95 257.15 290.2 258.4 290.45 259.8 291.9 267.5 292.3 272.4 316.1 261.1 325.25 240.85 Z"/>

<path fill="url(#Gradient_6)" stroke="none" d="
M 282 192
Q 280 192 276.05 192.5 273.858984375 192.773828125 272.25 192.9 266.969921875 200.7818359375 263.8 208.5 257.95 222.65 257.95 239.5 257.95 244.3 258.7 253.85 259.45 263.4 259.45 266.75 259.45 267.7 259.45 268.6 259.15 277.5 256 286.1 253.4 293.3 248.8 300.3 243.85 307.85 232.55 320.05
L 273.65 320.05
Q 282.8 308.35 287.3 298.5 292.45 287.2 292.45 275.5 292.45 274.1 292.3 272.4 291.9 267.5 290.45 259.8 290.2 258.4 289.95 257.15 288.45 248.6 288.45 243.5 288.45 238.1 290.35 231.15 292 224.95 294.95 218.5 297.85 211.9 305.2 204.2 306.642578125 202.7048828125 308.45 200.8 298.2814453125 195.0291015625 296.55 194.3 290.9 192 282 192 Z"/>

<path fill="url(#Gradient_7)" stroke="none" d="
M 233.8 197.55
Q 230.3625 196.9337890625 226.95 195.5 213.5 209.05 206.45 231.5 205.45 234.75 202.95 245 201.15 252.6 199.35 256.3 194.3 267 179.95 267 175.1 267 165.8 262 153.85 255 146.95 251 119.3 235 100.7 235 62.4 235 40.45 263.5 31.75 274.8 27.1 288.95 22.95 301.5 22.95 312.8 22.95 325.45 27.3 334.5 31.6 343.55 43.45 345.55 57.45 344.55 59.55 324.2 60 317.6 60.3 313.95 60.8 307.3 61.95 302.05 64.4 290.65 75.85 282.1 87.3 273.55 101.7 273.25 116.1 272.9 125.3 277.45 134.45 282 141.95 286.3 149.45 290.6 159.9 296.3 170.4 302 186.05 300.8 201.7 299.6 212.6 290.65 223.45 281.7 228.9 270.5 234.3 259.3 238 243.4 241.65 227.5 251.6 211.45 255.4146484375 205.3076171875 262 197.35 248.1416015625 200.5 244.25 200.5 239.35 200.5 235.1 198.3 234.428125 197.9412109375 233.8 197.55 Z"/>

<path fill="#3AABCE" stroke="none" d="
M 331.45 205
Q 331.35 203.4 331.3 202 331.15 202 330.95 202 324.45 202 317.95 199.7 317.94296875 202.0900390625 317.8 204.4 321.0287109375 206.351171875 322.9 206.95 326.49609375 208.03828125 331.4 207.1 331.45 206.0654296875 331.45 205
M 344.55 197.6
Q 344.45 197.5 344.35 197.4 338.2 201.4 332.6 201.95 332.9111328125 203.9318359375 333.25 206 337.611328125 206.0390625 341.1 204.6 343.1322265625 203.779296875 346.2 201.7 346.1728515625 201.4908203125 346.15 201.25 346.04375 200.068359375 345.95 198.85 345.25 198.2 344.55 197.6 Z"/>

<path fill="url(#Gradient_8)" stroke="none" d="
M 399.95 53.05
Q 383.6 40.1 361.7 33.4 340.8 27 317.45 27 293.25 27 271.45 38.9 251.55 49.7 235.95 69.05 221.3 87.1 213.05 109.15 204.95 130.8 204.95 151 204.95 160 205.95 166 211.3 185.75 220.1 191.7 223.5 194 226.95 195.5 230.3625 196.9337890625 233.8 197.55 236.369921875 198 238.95 198 244.8 198 261 191.5 266.05 189.45 270 188.1 274.4 186.5 277.45 185.75 280.35 185 281.95 185 287.85 185 294.2 187.65 297.65 189.1 305.35 193.5 309.05 195.6 312 197.1 314.85 198.5 317.05 199.35 317.5 199.5 317.95 199.7 324.45 202 330.95 202
L 332.6 201.95
Q 338.2 201.4 344.35 197.4 344.8 197.1 345.25 196.8 350.1 193.5 358.7 185.15 364.6 179.45 368.5 176.05 370.7 174.1 372.25 172.95 380.1 167.05 386.95 166 395.15 164.75 408.15 163 408.6 162.9 409 162.85 419.4 161.2 424.6 158.9 431 156.05 433.9 150.6 436.95 144.8 436.95 134.5 436.95 82.3 399.95 53.05
M 341.35 92.2
Q 344.75 87 350.45 87 354.2 87 357.5 89.25 358.4 88.4 358.95 87.3 359.8 85.55 359.7 83 359.8 85.55 358.95 87.3 358.4 88.4 357.5 89.25 359.2 90.4 360.8 92.2 361.45 92.95 362.05 93.7 366.5 90.65 366.25 85.5 366.5 90.65 362.05 93.7 365.55 98.45 366.3 104.75 367.2 112.1 363.8 117.3 360.4 122.5 354.7 122.5 349 122.5 344.35 117.3 339.7 112.1 338.8 104.75 337.95 97.4 341.35 92.2
M 344.4 145
Q 344.95 143.65 345.4 142.25 346.4 137.85 345.65 132.25 346.4 137.85 345.4 142.25 344.95 143.65 344.4 145 341.6 152.15 334.55 154.6 327.35 157.05 320.25 154.4 313.15 151.75 308.15 142.1 313.15 151.75 320.25 154.4 327.35 157.05 334.55 154.6 341.6 152.15 344.4 145
M 295.8 103.7
Q 300.95 107.1 303.1 114.2 305.15 121.3 302.95 127.95 300.75 134.55 295.55 136.8 290.3 139.05 285.05 135.65 279.9 132.2 277.8 125.1 276 119 277.4 113.25
L 277.35 113.25
Q 272.1 112.15 270.25 107.35 272.1 112.15 277.35 113.25
L 277.9 111.4
Q 278.7 109.05 279.8 107.35 278.65 106.95 277.65 106.15 276.2 104.85 275.3 102.5 276.2 104.85 277.65 106.15 278.65 106.95 279.8 107.35 281.95 104 285.4 102.5 290.6 100.25 295.8 103.7 Z"/>

<path fill="#000000" stroke="none" d="
M 303.1 114.2
Q 300.95 107.1 295.8 103.7 290.6 100.25 285.4 102.5 281.95 104 279.8 107.35 278.7 109.05 277.9 111.4 277.65 112.3 277.4 113.25 276 119 277.8 125.1 279.9 132.2 285.05 135.65 290.3 139.05 295.55 136.8 300.75 134.55 302.95 127.95 305.15 121.3 303.1 114.2
M 286.4 109.65
Q 288.3 107.75 291 107.75 293.7 107.75 295.6 109.65 297.5 111.55 297.5 114.25 297.5 116.95 295.6 118.85 293.7 120.75 291 120.75 288.3 120.75 286.4 118.85 284.5 116.95 284.5 114.25 284.5 111.55 286.4 109.65
M 350.45 87
Q 344.75 87 341.35 92.2 337.95 97.4 338.8 104.75 339.7 112.1 344.35 117.3 349 122.5 354.7 122.5 360.4 122.5 363.8 117.3 367.2 112.1 366.3 104.75 365.55 98.45 362.05 93.7 361.45 92.95 360.8 92.2 359.2 90.4 357.5 89.25 354.2 87 350.45 87
M 344.35 97.4
Q 346.25 95.5 348.95 95.5 351.65 95.5 353.55 97.4 355.45 99.3 355.45 102 355.45 104.7 353.55 106.6 351.65 108.5 348.95 108.5 346.25 108.5 344.35 106.6 342.45 104.7 342.45 102 342.45 99.3 344.35 97.4 Z"/>
</g>

<g id="Layer3_0_FILL">
<path fill="#8DCFF3" stroke="none" d="
M 599.8 52.8
Q 596.9998046875 53.705859375 596.4 54.4 596 54.95 595.95 55.7 595.95 56.5 596.35 57.05 597.45 58.35 600.5 57.85 612.7 55.95 619.55 56.5 630.4 57.3 637.2 62.95 639 64.35 639.95 64.45 641.05 64.5 641.8 63.5 642.5962890625 62.444140625 642 60.5 641.460546875 58.5689453125 638.75 56.35 636.0396484375 54.1236328125 631.95 52.9 627.9021484375 51.7228515625 622 51.05 616.1537109375 50.372265625 609.35 51.1 602.5984375 51.8841796875 599.8 52.8
M 648.9 72.55
Q 650 71.45 650 69.9 650 68.35 648.9 67.2 647.8 66.1 646.25 66.1 644.7 66.1 643.55 67.2 642.45 68.35 642.45 69.9 642.45 71.45 643.55 72.55 644.7 73.65 646.25 73.65 647.8 73.65 648.9 72.55
M 52.45 320.6
Q 51.65 320.65 51.25 321.15 51 321.5 50.8 322.25 49.8 326.35 47.45 330.1 46.8 331.05 46.4 331.45 45 333 42.3 333.65 41.25 333.85 40.7 334.15 39.8 334.5 39.6 335.3 39.5 335.95 39.9 336.6 40.3 337.1 40.95 337.4 41.8 337.65 43.55 337.35 46.1 336.75 47.6 335.75 49.35 334.55 51.6 331.4
L 52.6 329.9 54.15 325.4
Q 54.55 324.1 54.6 323.65 54.8 321.95 53.8 321.05 53.2 320.6 52.45 320.6
M 54.75 312.8
Q 53.9 312.5 52.95 312.9 52.05 313.25 51.6 314.15 51.45 314.45 51.35 315.15
L 51.4 315.9
Q 51.6 316.8 52.4 317.45 53.2 318 54.1 317.95 55 317.9 55.75 317.25 56.5 316.6 56.6 315.65 56.7 314.7 56.2 313.85 55.65 313.05 54.75 312.8
M 215.9 217
Q 215.4 217.45 214.6 219.1
L 212.45 224.5
Q 211.7 226.7 210.55 232.6 209.95 235.45 210.1 237.2 210.2 238.6 210.9 239.05 211.35 239.4 211.85 239.4 212.45 239.4 212.8 239 213.4 238.55 213.6 237 214.3 232.3 215.8 227.4 216.35 225.85 218 221.15
L 218.6 219.35
Q 219.1 217.55 218.25 216.8 217.8 216.4 217.1 216.45 216.45 216.5 215.9 217
M 223.25 213.3
Q 223.55 212.6 223.35 211.85 223.15 211.1 222.6 210.65 221.95 210.15 221.2 210.15
L 221.1 210.2
Q 220.65 210.2 220.45 210.3 219.8 210.5 219.35 211.1 218.9 211.75 218.95 212.55 219 213.35 219.5 213.9 220.05 214.5 220.75 214.6 221.55 214.75 222.2 214.35 222.9 214 223.25 213.3
M 283.1 282.4
Q 282.65 287.45 280.75 292.05 278.7 296.8 275.3 300.3 274.35 301.45 274.2 301.6 273.7 302.5 273.9 303.25 274 303.85 274.55 304.15 275.1 304.45 275.6 304.35 276.3 304.3 277.15 303.45 281.1 299.65 283.65 294.5 286.1 289.55 286.9 283.9
L 287.2 281.8
Q 287.3 280.35 286.9 279.7 286.6 279.1 285.85 278.85 285.05 278.65 284.4 279 283.6 279.5 283.35 280.5 283.2 280.9 283.1 282.4
M 524.95 254.5
Q 524.95 256.25 526.15 257.45 527.4 258.7 529.1 258.7 530.8 258.7 532.05 257.45 533.25 256.25 533.25 254.5 533.25 252.75 532.05 251.5 530.8 250.25 529.1 250.25 527.4 250.25 526.15 251.5 524.95 252.75 524.95 254.5
M 392.15 239.3
Q 391.9 240.15 392.35 241.1 392.7 241.95 393.55 242.4 394.4 242.8 395.35 242.55 396.35 242.25 396.85 241.5 397.4 240.8 397.3 239.75 397.25 238.8 396.6 238.1 395.95 237.45 394.95 237.35 394.05 237.3 393.25 237.85 392.45 238.45 392.15 239.3
M 390.1 208.25
Q 388.9 207.4 387.8 207.9 387.2 208.25 387.05 209.05 386.9 209.75 387.1 210.4 387.25 210.95 388.55 212.9 389.6 214.4 390.8 217.2 391.75 219.45 392.05 220.6
L 392.55 223.15
Q 393.1 226.55 393.25 230.35 393.35 232.05 393.75 232.7 394.5 233.75 395.65 233.65 396.85 233.5 397.4 232.5 397.7 231.95 397.7 230.3 397.4 222.8 396.1 218.2
L 395.6 216.6
Q 395.4 216.2 394.45 214.4 392.2 210.7 391.9 210.15 390.8 208.65 390.1 208.25
M 475.4 259.7
Q 476.2 260.45 477.65 260.95 487.3 264.6 497.75 264.45 508.25 264.25 517.65 260.15 519.5 259.35 520 258.4 520.5 257.4 520 256.35 519.5 255.3 518.45 255 517.35 254.85 515.5 255.7 507.15 259.55 497.65 259.8 488.25 260.1 479.6 256.8 477.75 256.1 477 256.1 476.3 256.1 475.65 256.4 474.95 256.8 474.75 257.35 474.3 258.65 475.4 259.7
M 348.25 191.5
Q 352.2 188.45 359.35 181.3 365.85 174.85 370.1 171.55 376.45 166.65 382.5 164.5 384.1 163.95 387.35 163 390.2 162.05 391.95 160.95 390.75 159.9 388 160.1 374.15 161.05 360.15 173.8 357.25 176.45 355.2 178.7 349.65 184.9 346.7 187.8 341.6 192.8 336.7 194.75 331.95 196.65 326.7 196.2 326.1 196.05 325.55 196.35 324.9 196.55 325 197.1 325.05 197.4 325.7 197.8 329.45 199.5 334.9 198.25 341.6 196.65 348.25 191.5
M 381.35 49.95
Q 380.6 50.25 380.2 50.7 379.7 51.25 379.55 52.1 379.35 52.85 379.65 53.6 380 54.5 381 55 382.05 55.45 383 55.15 383.95 54.8 384.5 53.85 384.95 52.85 384.7 51.9 384.5 50.75 383.4 50.2 382.45 49.65 381.35 49.95
M 376.95 47.95
Q 376.6 46.6 374.25 45.6 357.85 38.3 345.8 36.85 343.85 36.65 342.75 37.1 342.1 37.45 341.7 38.15 341.3 38.9 341.6 39.55 342.1 40.7 344.45 40.9 349 41.35 358 43.95 361.45 44.9 363.65 45.8 365.25 46.5 368.4 48.05 371.5 49.25 372 49.55 373.4 50.3 373.6 50.35 374.55 50.75 375.3 50.6 376.15 50.45 376.65 49.6 377.2 48.8 376.95 47.95 Z"/>
</g>

<g id="Layer2_0_FILL">
<path fill="#797185" stroke="none" d="
M 376 477.9
L 374.8 475.9 364.6 482.15 366.8 482.15 366.4 483.75 376 477.9
M 381.65 465.75
Q 378.6 465.75 376.4 467.9 374.25 470.1 374.25 473.15 374.25 474.55 374.8 475.9
L 376 477.9
Q 376.2 478.15 376.4 478.35 378.6 480.55 381.65 480.55 384.7 480.55 386.85 478.35 389.05 476.2 389.05 473.15 389.05 470.1 386.85 467.9 384.7 465.75 381.65 465.75 Z"/>

<path fill="#3E4375" stroke="none" d="
M 357.55 482.15
L 354.95 483.85 329.8 499.65 340.2 505.45 359.15 493.55 364.7 490 366.4 483.75 366.8 482.15 364.6 482.15 357.55 482.15 Z"/>

<path fill="#707A96" stroke="none" d="
M 339.05 476.15
Q 330.65 476.15 324.7 482.05 318.8 488 318.8 496.4 318.8 504.8 324.7 510.7 330.65 516.65 339.05 516.65 347.45 516.65 353.35 510.7 359.3 504.8 359.3 496.4 359.3 494.9 359.15 493.55
L 340.2 505.45 329.8 499.65 354.95 483.85
Q 354.2 482.9 353.35 482.05 347.45 476.15 339.05 476.15
M 323.1 490.6
Q 322.75 490.3 322.65 489.65 322.65 489.3 322.85 488.6 323.5 486.85 325.05 485.1 326.55 483.3 327.55 482.45 328.55 481.6 329.5 481.05 330.4 480.45 332.25 479.75 334.05 479 334.8 479.25 335.45 479.5 335.7 480.1 335.95 480.8 335.55 481.35 335.25 481.8 333.95 482.35 332.45 482.95 331.1 483.85 329.65 484.75 328.55 485.7 327.95 486.25 326.85 487.55 326.05 488.45 325.75 488.95 324.85 490.25 324.7 490.35 323.9 491.05 323.1 490.6
M 337.35 481.1
Q 337 480.75 336.95 480.25 336.9 479.7 337.1 479.25 337.55 478.6 338.2 478.55 338.8 478.4 339.4 478.85 339.85 479.3 339.95 479.95 339.95 481 339.05 481.4 338.1 481.85 337.35 481.1 Z"/>

<path fill="#9EAEDA" stroke="none" d="
M 336.95 480.25
Q 337 480.75 337.35 481.1 338.1 481.85 339.05 481.4 339.95 481 339.95 479.95 339.85 479.3 339.4 478.85 338.8 478.4 338.2 478.55 337.55 478.6 337.1 479.25 336.9 479.7 336.95 480.25
M 322.65 489.65
Q 322.75 490.3 323.1 490.6 323.9 491.05 324.7 490.35 324.85 490.25 325.75 488.95 326.05 488.45 326.85 487.55 327.95 486.25 328.55 485.7 329.65 484.75 331.1 483.85 332.45 482.95 333.95 482.35 335.25 481.8 335.55 481.35 335.95 480.8 335.7 480.1 335.45 479.5 334.8 479.25 334.05 479 332.25 479.75 330.4 480.45 329.5 481.05 328.55 481.6 327.55 482.45 326.55 483.3 325.05 485.1 323.5 486.85 322.85 488.6 322.65 489.3 322.65 489.65 Z"/>
</g>

<g id="Layer1_0_FILL">
<path fill="url(#Gradient_9)" stroke="none" d="
M 310.25 494.15
Q 253.1 501.85 210.4 544.45 158.4 596.5 158.4 670.1 158.4 743.7 210.4 795.7 253.7 839 311.9 846.35 323.7 847.8 336.1 847.8 349.5 847.8 362.15 846.1 383.34921875 843.217578125 402.55 835.5 404.55 834.6 406.6 833.7 443.4 817.75 469.65 787.3 513.75 737.8455078125 513.75 670.1 513.75 596.5 461.7 544.45 417.5 500.25 357.75 493.65 349.05 492.65 340 492.5 338.05 492.45 336.1 492.45 330.95 492.45 325.9 492.7 317.95 493.1 310.25 494.15
M 313.65 692.6
Q 304.35 683.3 304.35 670.1 304.35 656.95 313.65 647.65 322.95 638.35 336.15 638.35 349.3 638.35 358.6 647.65 367.9 656.95 367.9 670.1 367.9 683.3 358.6 692.6 349.3 701.9 336.15 701.9 322.95 701.9 313.65 692.6
M 304.35 670.1
Q 304.35 683.3 313.65 692.6 322.95 701.9 336.15 701.9 349.3 701.9 358.6 692.6 367.9 683.3 367.9 670.1 367.9 656.95 358.6 647.65 349.3 638.35 336.15 638.35 322.95 638.35 313.65 647.65 304.35 656.95 304.35 670.1 Z"/>
</g>

<g id="Layer0_0_FILL">
<path fill="#B9905B" stroke="none" d="
M 185.75 751.95
Q 191.9 762.55 199.5 772.05 246.05 830.3 320.15 837.8 384 844.05 436.9 807.55 470.55 784.4 486.75 747.3 483.75 750.2 480.8 753.1 441.8 792 390.1 810.55 342.5 826.2 293.8 814.25 230.5 798.95 185.75 751.95 Z"/>

<path fill="#FFFFFF" stroke="none" d="
M 482.75 628.2
Q 482.75 630.15 484.1 631.5 485.45 632.85 487.4 632.85 489.35 632.85 490.7 631.5 492.05 630.15 492.05 628.2 492.05 626.25 490.7 624.9 489.35 623.55 487.4 623.55 485.45 623.55 484.1 624.9 482.75 626.25 482.75 628.2
M 451.15 560.05
Q 450.35 562.2 452.4 564.45 453.05 565.15 454.2 566 454.85 566.5 456.15 567.4 458.7 569.35 461.95 573.5 466.4 579.05 469.1 583.7 474.75 593.2 479.05 608 479.7 610.25 480.4 611.45 481.4 613.25 482.95 613.8 484.4 614.3 485.95 613.45 487.45 612.6 487.8 611.05 488 609.9 487.5 607.75
L 486.1 602.1
Q 485 597.5 484.25 595.25 482.65 590.4 478.8 583.3 474.7 575.75 470.85 570.6 466 564.15 460.55 560 457.75 557.9 455.65 557.65 454.25 557.5 452.95 558.1 451.6 558.8 451.15 560.05
M 203.6 579.95
Q 206.79140625 583.4544921875 209.6 581.35 212.4677734375 579.2869140625 222.85 568.15 233.221484375 557.0130859375 254.05 544.5 274.8837890625 532.0451171875 285.45 528.1 296.0595703125 524.20625 293.8 519.2 291.585546875 514.23359375 281.8 517.1 269.4 522 257.75 528.3 230.7494140625 542.9056640625 215.8 558.55 200.8517578125 574.2328125 203.6 579.95
M 310 512.1
Q 307.5 514.6 307.5 518.15 307.5 521.7 310 524.2 312.5 526.7 316 526.7 319.5 526.7 322 524.2 324.5 521.7 324.5 518.15 324.5 514.6 322 512.1 319.5 509.6 316 509.6 312.5 509.6 310 512.1 Z"/>
</g>

<path id="Layer8_0_1_STROKES" stroke="#000000" stroke-width="2" stroke-linejoin="round" stroke-linecap="round" fill="none" d="
M 362.05 93.7
Q 361.45 92.95 360.8 92.2 359.2 90.4 357.5 89.25 354.2 87 350.45 87 344.75 87 341.35 92.2 337.95 97.4 338.8 104.75 339.7 112.1 344.35 117.3 349 122.5 354.7 122.5 360.4 122.5 363.8 117.3 367.2 112.1 366.3 104.75 365.55 98.45 362.05 93.7 366.5 90.65 366.25 85.5
M 355.45 102
Q 355.45 99.3 353.55 97.4 351.65 95.5 348.95 95.5 346.25 95.5 344.35 97.4 342.45 99.3 342.45 102 342.45 104.7 344.35 106.6 346.25 108.5 348.95 108.5 351.65 108.5 353.55 106.6 355.45 104.7 355.45 102 Z
M 359.7 83
Q 359.8 85.55 358.95 87.3 358.4 88.4 357.5 89.25
M 308.15 142.1
Q 313.15 151.75 320.25 154.4 327.35 157.05 334.55 154.6 341.6 152.15 344.4 145 344.95 143.65 345.4 142.25 346.4 137.85 345.65 132.25
M 344.55 197.6
Q 344.45 197.5 344.35 197.4 344.8 197.1 345.25 196.8
M 344.55 197.6
Q 345.25 198.2 345.95 198.85
M 330.95 202
Q 331.15 202 331.3 202 331.95 202 332.6 201.95
M 297.5 114.25
Q 297.5 111.55 295.6 109.65 293.7 107.75 291 107.75 288.3 107.75 286.4 109.65 284.5 111.55 284.5 114.25 284.5 116.95 286.4 118.85 288.3 120.75 291 120.75 293.7 120.75 295.6 118.85 297.5 116.95 297.5 114.25 Z
M 279.8 107.35
Q 281.95 104 285.4 102.5 290.6 100.25 295.8 103.7 300.95 107.1 303.1 114.2 305.15 121.3 302.95 127.95 300.75 134.55 295.55 136.8 290.3 139.05 285.05 135.65 279.9 132.2 277.8 125.1 276 119 277.4 113.25
L 277.35 113.25
Q 272.1 112.15 270.25 107.35
M 275.3 102.5
Q 276.2 104.85 277.65 106.15 278.65 106.95 279.8 107.35 278.7 109.05 277.9 111.4 277.65 112.3 277.4 113.25
M 312 197.1
Q 314.85 198.5 317.05 199.35 317.5 199.5 317.95 199.7
M 362.15 846.1
L 362.15 911.7 351.05 911.7 351.05 969.25
M 323 969.25
L 323 911.7 311.9 911.7 311.9 846.35
M 323 969.25
L 323 980.75
M 345.05 980.75
L 338.75 980.75 338.75 990.9
M 351.05 969.25
L 351.05 980.75 345.05 980.75
M 329 980.75
L 335.3 980.75 338.75 980.75
M 323 980.75
L 329 980.75
M 326.8 991.5
L 347.25 991.5 347.25 994.75 326.8 994.75 326.8 991.5 Z
M 335.3 980.75
L 335.3 990.9
M 351.05 911.7
L 323 911.7"/>

<path id="Layer8_0_2_STROKES" stroke="#000000" stroke-width="2" stroke-linejoin="miter" stroke-linecap="square" stroke-miterlimit="3" fill="none" d="
M 447.65 320.05
L 596.05 320.05 596.05 1008.2 78 1008.2 78 320.05 211.85 320.05
M 352.55 320.05
L 389.85 320.05
M 346.2 201.725
Q 346.9658203125 201.2166015625 347.8 200.625
M 332 206
Q 332.651953125 206.03203125 333.275 206.025
M 331.425 207.1
Q 331.7154296875 207.058984375 332 207
M 273.65 320.05
L 352.55 320.05
M 447.65 320.05
L 427.1 320.05 389.85 320.05
M 232.55 320.05
L 225.35 320.05 211.85 320.05
M 232.55 320.05
L 273.65 320.05
M 311.9 846.35
Q 253.7 839 210.4 795.7 158.4 743.7 158.4 670.1 158.4 596.5 210.4 544.45 253.1 501.85 310.25 494.15 317.95 493.1 325.9 492.7 330.95 492.45 336.1 492.45 338.05 492.45 340 492.5 349.05 492.65 357.75 493.65 417.5 500.25 461.7 544.45 513.75 596.5 513.75 670.1 513.75 743.7 461.7 795.7 419.15 838.35 362.15 846.1
M 311.9 846.35
Q 323.7 847.8 336.1 847.8 349.5 847.8 362.15 846.1
M 367.9 670.1
Q 367.9 683.3 358.6 692.6 349.3 701.9 336.15 701.9 322.95 701.9 313.65 692.6 304.35 683.3 304.35 670.1 304.35 656.95 313.65 647.65 322.95 638.35 336.15 638.35 349.3 638.35 358.6 647.65 367.9 656.95 367.9 670.1 Z"/>

<path id="Layer8_0_3_STROKES" stroke="#183D6F" stroke-width="2" stroke-linejoin="round" stroke-linecap="round" fill="none" d="
M 411.25 163.9
Q 420.7853515625 166.91953125 428.5 172.35 440.3 180.7 452.4 199.5 455.55 204.45 461.7 214 467.1 221.9 471.95 226.65 484.65 239 503.45 239 522.55 239 536.05 223 541.75 216.3 544.95 208.2 548.05 200.4 548.05 193.5 548.05 184.3 547 179.3 545.9 174.3 542 161.5 538.05 148.65 538.05 132.45 538.05 116.2 543.85 100 549.6 84.15 560.1 72 570.8 59.7 584.95 53 599.75 46 616.55 46 635.75 46 647.1 53 660.05 61.05 659.55 76.65 659.05 92.25 649.25 96.2 639.4 100.1 627.8 97.5 616.15 94.85 605.65 95.5 595.1 96.15 584.1 105 573.05 113.85 573.05 140.5 573.05 149.1 576.55 162.95 580.05 176.8 580.05 187 580.05 225.9 556.1 249 533.25 271 497.45 271 479.15 271 463.75 258.9 454.7 251.85 439.35 232.8 424.5 214.5 415.6 208.1 404.2 199.85 391.2 199.6 403 216.8 403 231.75 403 240.1 398.15 249.15 396.15 252.85 392.45 258.1 396.95 259.05 402.5 260 413.8 261.85 420.3 272.2 425.2 280 427 292.05 428.8 304.2 437.75 312.6 441.45 316.05 447.65 320.05
M 211.85 320.05
Q 215.95 297.3 232.35 283.7 241.1 276.45 254.45 270.65 256.7 269.65 259.45 268.6 259.45 267.7 259.45 266.75 259.45 263.4 258.7 253.85 257.95 244.3 257.95 239.5 257.95 222.65 263.8 208.5 266.969921875 200.7818359375 272.25 192.9 274.6365234375 189.340625 277.45 185.75 274.4 186.5 270 188.1 265.58203125 192.9951171875 262 197.35 255.4146484375 205.3076171875 251.6 211.45 241.65 227.5 238 243.4 234.3 259.3 228.9 270.5 223.45 281.7 212.6 290.65 201.7 299.6 186.05 300.8 170.4 302 159.9 296.3 149.45 290.6 141.95 286.3 134.45 282 125.3 277.45 116.1 272.9 101.7 273.25 87.3 273.55 75.85 282.1 64.4 290.65 61.95 302.05 60.8 307.3 60.3 313.95 60 317.6 59.55 324.2 57.45 344.55 43.45 345.55 31.6 343.55 27.3 334.5 22.95 325.45 22.95 312.8 22.95 301.5 27.1 288.95 31.75 274.8 40.45 263.5 62.4 235 100.7 235 119.3 235 146.95 251 153.85 255 165.8 262 175.1 267 179.95 267 194.3 267 199.35 256.3 201.15 252.6 202.95 245 205.45 234.75 206.45 231.5 213.5 209.05 226.95 195.5 223.5 194 220.1 191.7 211.3 185.75 205.95 166 204.95 160 204.95 151 204.95 130.8 213.05 109.15 221.3 87.1 235.95 69.05 251.55 49.7 271.45 38.9 293.25 27 317.45 27 340.8 27 361.7 33.4 383.6 40.1 399.95 53.05 436.95 82.3 436.95 134.5 436.95 144.8 433.9 150.6 431 156.05 424.6 158.9 419.4 161.2 409 162.85 408.6 162.9 408.15 163 409.7236328125 163.4208984375 411.25 163.9
M 373.925 180.2
Q 382.8619140625 187.696875 390.35 198.35 390.8 198.95 391.2 199.6
M 345.25 196.8
Q 350.1 193.5 358.7 185.15 364.6 179.45 368.5 176.05 370.7 174.1 372.25 172.95 380.1 167.05 386.95 166 395.15 164.75 408.15 163
M 344.35 197.4
Q 338.2 201.4 332.6 201.95 332.9111328125 203.9318359375 333.275 206.025
M 346.2 201.725
Q 346.1728515625 201.4908203125 346.15 201.25 346.04375 200.068359375 345.95 198.85
M 373.925 180.2
Q 372.4673828125 178.985546875 370.975 177.85 369.74921875 176.9240234375 368.5 176.05
M 347.625 200.45
Q 347.71796875 200.541796875 347.8 200.625 352.159765625 204.962109375 356 210 366.5 223.9 366.5 235.5 366.5 240.4 364.3 245.3 363.1 247.95 361.25 250.6 359.6 253.05 355.7 257.3 353.1947265625 260.0556640625 349.025 266.25 344.8484375 272.444140625 342.8 279.6 340.7541015625 286.7556640625 341.25 293.025 341.7421875 299.2890625 343.4 303.975 345.058984375 308.6669921875 352.55 320.05
M 389.85 320.05
Q 385.296875 316.1 379.675 307.825 374.0591796875 299.55 374.5 292.375 374.940625 285.2 376.95 280.525 378.9529296875 275.85 384.9 268.1 386.1 266.5 387.5 264.7 390.25 261.15 392.45 258.1
M 345.95 198.85
Q 346.7953125 199.6404296875 347.625 200.45
M 333.275 206.025
Q 334.5376953125 213.0501953125 336.5 221.4 341.25 241.6 345.95 248 349.85 253.25 355.7 257.3
M 331.3 202
Q 331.35 203.4 331.45 205 331.45 206.0654296875 331.425 207.1 331.1490234375 227.624609375 325.25 240.85 316.1 261.1 292.3 272.4 292.45 274.1 292.45 275.5 292.45 287.2 287.3 298.5 282.8 308.35 273.65 320.05
M 330.95 202
Q 324.45 202 317.95 199.7 317.94296875 202.0900390625 317.825 204.425
M 364.3 245.3
Q 364.1 245.15 363.9 244.95 349.1126953125 231.355078125 346.2 201.725
M 384.9 268.1
Q 397.4 270.4 404.6 274.85 411.75 279.25 413.5 290.9 415.2 302.5 419.4 309.5 423.6 316.45 427.1 320.05
M 226.95 195.5
Q 230.3625 196.9337890625 233.8 197.55 236.369921875 198 238.95 198 244.8 198 261 191.5 266.05 189.45 270 188.1
M 308.45 200.825
Q 310.074609375 199.1205078125 312 197.1 309.05 195.6 305.35 193.5 297.65 189.1 294.2 187.65 287.85 185 281.95 185 280.35 185 277.45 185.75
M 317.825 204.425
Q 317.027734375 218.628125 311.75 231.2 304.35 248.85 289.95 257.15 290.2 258.4 290.45 259.8 291.9 267.5 292.3 272.4
M 308.45 200.825
Q 306.642578125 202.7048828125 305.2 204.2 297.85 211.9 294.95 218.5 292 224.95 290.35 231.15 288.45 238.1 288.45 243.5 288.45 248.6 289.95 257.15
M 256 286.1
Q 250.3 288.55 246.45 290.85 235.7 297.35 230.2 307.2 227 312.9 225.35 320.05
M 232.55 320.05
Q 243.85 307.85 248.8 300.3 253.4 293.3 256 286.1 259.15 277.5 259.45 268.6"/>

<path id="Layer8_0_4_STROKES" stroke="#000000" stroke-width="5" stroke-linejoin="round" stroke-linecap="round" fill="none" d="
M 187.5 543.6
L 174.5 543.6 174.5 557.1 152 557.1 152 579.85 138.75 587.1 146 602.1 136.5 610.6 143 624.6
M 146.25 739.65
L 141.75 752.4 154 757.9 149.75 773.65 165 777.9 165 796.15 183 796.15 185.75 815.15 200.25 812.65
M 486.55 543.6
L 499.55 543.6 499.55 557.1 522.05 557.1 522.05 579.85 535.3 587.1 528.05 602.1 537.55 610.6 531.05 624.6
M 527.8 739.65
L 532.3 752.4 520.05 757.9 524.3 773.65 509.05 777.9 509.05 796.15 491.05 796.15 488.3 815.15 473.8 812.65"/>

<path id="Layer5_0_1_STROKES" stroke="#000000" stroke-width="2" stroke-linejoin="round" stroke-linecap="round" fill="none" d="
M 338.8 360.5
Q 340.4 362.4 346.15 368
L 353.8 359.7
M 346.15 368
Q 346.7 368.55 347.3 369.15 353.3 375.05 355.15 377.45
M 363.6 371.15
Q 367 371.1 371 370.95 374.9 370.75 376.95 368.95 378.95 367.1 378.3 363.9 377.6 360.6 372.4 359.95 367.2 359.25 363.05 359.7 363.05 359.8 363.05 359.95 363.05 367 362.8 379.6
M 337.95 378.25
Q 342.95 372.05 345.95 368.2 346.05 368.1 346.15 368
M 401 359.7
L 396.35 359.7
Q 392.55 359.95 390.9 360.25 390.9 365.7 390.65 368.45
L 390.65 368.95 399.9 368.95
M 390.65 368.95
L 390.65 378.8 400.45 378.8
M 442.1 361.55
Q 440.6 360.65 439.8 360.25 438.2 359.4 436.95 359.4 432.45 359.4 429.95 362.7 427.75 365.6 427.75 369.7 427.75 373.8 430.5 376.35 433.1 378.8 437.05 378.8 438.65 378.8 440.4 377.95 441.4 377.45 443.3 376.35
M 408.1 359.95
Q 410 362.4 415.1 369.25 415.2 369.1 415.3 368.9 421.25 360.95 422.6 359.4
M 415.1 369.25
Q 415.35 369.7 415.7 370.1 420.3 376.45 422.3 378.8
M 407.55 378.55
Q 409.85 376.1 415.1 369.25
M 470.45 377.85
Q 471.5 376.1 473.4 372.45 474.15 370.9 475.15 368.95 478.75 361.7 479.9 359.7 481.25 362.5 485.1 369.35 485.9 370.9 486.65 372.2 488.75 376.05 489.75 378.25
M 450.7 359.7
L 450.7 368.75
Q 455.05 368.95 464.05 368.95
M 464.3 378
Q 464.6 372.2 464.6 362.15 464.6 361.1 464.6 359.95
L 464.6 359.7
M 450.7 368.75
L 450.7 378
M 494.7 377.45
L 494.4 377.45 494.4 370.6
Q 494.7 363.8 494.95 360.5 499.7 366 510 377.15
L 510 373.35
Q 510.1 370.45 510 367.9 509.85 365.3 510 360.25
M 532.35 361.6
Q 531.75 361 530.25 360.25 528.65 359.4 525.5 359.4 522.25 359.4 519.55 362.4 517.1 365.2 517.1 368.7 517.1 373.1 519.55 375.8 522.05 378.55 526.35 378.55 528.6 378.55 530.75 377.7 533.45 376.65 533.45 374.85 533.45 372.5 532.9 369.25 531.8 369.25 529.65 369.4 527.45 369.5 526.35 369.5
M 551.6 359.4
Q 545.45 359.35 540.9 359.6 540.9 359.65 540.9 359.75 540.85 368.65 540.85 368.95
L 550.1 368.7
M 540.85 368.95
Q 540.85 371.55 541.4 378.55
L 551.75 378.55
M 473.4 372.45
Q 477.75 371.55 486.65 372.2
M 160 361.35
Q 151.5 361.05 150.8 361.05 150.45 361.05 150.05 361.2 149.7 361.35 149.6 361.35 149.05 371.7 149.05 376.8 149.05 377.45 149.35 379.6 152.6 379.35 159.7 379.35
M 149.6 369.8
L 159.45 369.8
M 126.15 379.05
Q 126.15 367.6 126.4 361.9 128.85 364.7 134.6 371.05 140 377.05 141.7 379.05
L 141.7 376.6
Q 141.15 365.15 141.15 360.8
M 166.55 361.05
Q 173.5 378.6 173.9 379.6
L 174.15 379.6
Q 174.55 377.05 176.9 370.95 179.6 363.85 179.9 362.7 181.75 367.9 183.9 372.05 185.15 374.45 187.8 379.35 188.9 375.4 190.65 370.75 192.95 364.9 194.35 361.05
M 245.7 369.5
Q 245.7 365.7 242.95 362.95 240.25 360.25 236.4 360.25 232.6 360.25 229.85 362.95 227.15 365.7 227.15 369.5 227.15 373.35 229.85 376.05 232.6 378.8 236.4 378.8 240.25 378.8 242.95 376.05 245.7 373.35 245.7 369.5 Z
M 208.3 359.7
Q 209.35 361.15 212.55 365.5 214.7 368.25 215.95 370.6 216.05 370.45 216.2 370.35 217.75 368.35 220.05 365.15 223.8 359.85 224.15 359.4
M 216.2 370.35
L 216.2 370.65
Q 216.2 371.1 216.2 371.7 216.1 374.65 215.65 379.9
M 252.5 359.4
L 261.25 359.4
Q 263.8 359.8 265.5 361.5 267.25 363.25 267.25 365.7 267.25 369.8 261.75 370.45 261.2 370.45 260.7 370.45 260.7 370.7 260.75 370.9
L 261 370.9
Q 261 371.05 261.1 371.4 261.2 371.45 261.25 371.45
L 261.25 371.7
Q 262.05 372.85 263.7 375 265.9 377.7 266.45 378.25
M 273.8 377.7
Q 273.8 373.25 273.75 369.5 273.7 364.35 273.7 359.7
L 273.55 359.7
Q 273.6330078125 359.6984375 273.7 359.675
L 273.7 359.7
M 273.75 369.5
L 273.8 369.5
Q 275.25 369.5 278.45 369.8
L 278.55 369.75
Q 278.5 369.65 278.55 369.5 278.55 369.55 278.65 369.7 279.75 368.6 287.75 359.15
M 278.55 369.75
Q 278.6 369.7 278.65 369.7 278.8 369.85 279 370.05 281.6 372.75 288.3 378.8
M 279 370.05
Q 278.7 370.05 278.7 369.8 278.6 369.8 278.55 369.75
M 252.25 360.25
Q 252.5 366 252.7 370.6 254.9 370.45 260.7 370.45
M 260.75 370.9
Q 260.8 371 260.85 371.1 261 371.25 261.1 371.4 261.15 371.55 261.25 371.7 260.9 371.2 260.7 370.9
L 260.75 370.9 Z
M 252.7 370.6
Q 252.8 375.15 252.8 378.55
M 331.2 360.5
Q 322.75 360.25 322 360.25 321.65 360.25 321.25 360.4 320.9 360.5 320.8 360.5 320.25 370.9 320.25 375.95 320.25 376.6 320.55 378.8 323.8 378.55 330.9 378.55
M 313.4 361.05
Q 313.1 360.85 312.9 360.75 309.75 359 306.35 360.2 305.7 360.45 305.1 360.75 304.85 360.9 304.65 361.05 303 362.5 303 364.6 303 367.95 308.75 369.7 314.5 371.4 314.5 374.6 314.5 378.75 309.45 379.05 306.75 379.3 304.55 377.75 304 377.4 303.45 377 303.05 376.55 302.75 376.05
M 320.8 368.95
L 330.65 368.95"/>

<path id="Layer2_0_1_STROKES" stroke="#000000" stroke-width="2" stroke-linejoin="miter" stroke-linecap="square" stroke-miterlimit="3" fill="none" d="
M 324 445.3
Q 331.15 442.95 339.25 442.95 344.8 442.95 349.9 444.05
M 325.9 448.85
Q 332.1 446.95 339.15 446.95 344.2 446.95 348.9 447.95
M 328 453.05
Q 333.2 451.55 339.1 451.55 343.3 451.55 347.2 452.35
M 359.15 493.55
Q 359.3 494.9 359.3 496.4 359.3 504.8 353.35 510.7 347.45 516.65 339.05 516.65 330.65 516.65 324.7 510.7 318.8 504.8 318.8 496.4 318.8 488 324.7 482.05 330.65 476.15 339.05 476.15 347.45 476.15 353.35 482.05 354.2 482.9 354.95 483.85
L 357.55 482.15 364.6 482.15 374.8 475.9
Q 374.25 474.55 374.25 473.15 374.25 470.1 376.4 467.9 378.6 465.75 381.65 465.75 384.7 465.75 386.85 467.9 389.05 470.1 389.05 473.15 389.05 476.2 386.85 478.35 384.7 480.55 381.65 480.55 378.6 480.55 376.4 478.35 376.2 478.15 376 477.9
L 366.4 483.75 364.7 490 359.15 493.55 340.2 505.45 329.8 499.65 354.95 483.85
M 357.7 446.45
Q 366.25 449.95 373.3 457 375.3 459 377.1 461.25
M 356.55 450.35
Q 364.05 453.55 370.3 459.8 372.15 461.65 373.8 463.7
M 354.9 454.7
Q 361.4 457.55 366.8 462.95 368.45 464.6 369.9 466.4
M 374.8 475.9
L 376 477.9
M 364.6 482.15
L 366.8 482.15 366.4 483.75"/>

<path id="Layer1_0_1_STROKES" stroke="#000000" stroke-width="2" stroke-linejoin="miter" stroke-linecap="square" stroke-miterlimit="3" fill="none" d="
M 357.75 493.65
Q 417.5 500.25 461.7 544.45 513.75 596.5 513.75 670.1 513.75 737.8455078125 469.65 787.3 443.4 817.75 406.6 833.7 404.55 834.6 402.55 835.5 383.34921875 843.217578125 362.15 846.1 349.5 847.8 336.1 847.8 323.7 847.8 311.9 846.35 253.7 839 210.4 795.7 158.4 743.7 158.4 670.1 158.4 596.5 210.4 544.45 253.1 501.85 310.25 494.15 317.95 493.1 325.9 492.7 330.95 492.45 336.1 492.45 338.05 492.45 340 492.5 349.05 492.65 357.75 493.65 Z
M 367.9 670.1
Q 367.9 683.3 358.6 692.6 349.3 701.9 336.15 701.9 322.95 701.9 313.65 692.6 304.35 683.3 304.35 670.1 304.35 656.95 313.65 647.65 322.95 638.35 336.15 638.35 349.3 638.35 358.6 647.65 367.9 656.95 367.9 670.1 Z"/>
</defs>

<g transform="matrix( 1, 0, 0, 1, 0,0) ">
<use xlink:href="#Layer8_0_FILL"/>

<use xlink:href="#Layer8_0_1_STROKES"/>

<use xlink:href="#Layer8_0_2_STROKES"/>

<use xlink:href="#Layer8_0_3_STROKES"/>

<use xlink:href="#Layer8_0_4_STROKES"/>
</g>

<g transform="matrix( 1, 0, 0, 1, 0,0) ">
<use xlink:href="#Layer5_0_1_STROKES"/>
</g>

<g transform="matrix( 1, 0, 0, 1, 0,0) ">
<use xlink:href="#Layer3_0_FILL"/>
</g>

<g transform="matrix( 1, 0, 0, 1, 0,0) ">
<use xlink:href="#Layer2_0_FILL"/>

<use xlink:href="#Layer2_0_1_STROKES"/>
</g>

<g transform="matrix( 1, 0, 0, 1, 0,0) ">
<use xlink:href="#Layer1_0_FILL"/>

<use xlink:href="#Layer1_0_1_STROKES"/>
</g>

<g transform="matrix( 1, 0, 0, 1, 0,0) ">
<use xlink:href="#Layer0_0_FILL"/>
</g>
</svg>
