
<svg xmlns="http://www.w3.org/2000/svg" version="1.1" xmlns:xlink="http://www.w3.org/1999/xlink" preserveAspectRatio="none" x="0px" y="0px" width="745px" height="651px" viewBox="0 0 745 651">
<defs>
<linearGradient id="Gradient_1" gradientUnits="userSpaceOnUse" x1="234.65" y1="116.72499999999998" x2="195.35" y2="363.175" spreadMethod="pad">
<stop  offset="26.666666666666668%" stop-color="#0090F8"/>

<stop  offset="100%" stop-color="#59A7F5"/>
</linearGradient>

<linearGradient id="Gradient_2" gradientUnits="userSpaceOnUse" x1="366.78749999999997" y1="516.7875" x2="370.6125" y2="300.5125" spreadMethod="pad">
<stop  offset="26.666666666666668%" stop-color="#0090F8"/>

<stop  offset="100%" stop-color="#59A7F5"/>
</linearGradient>

<linearGradient id="Gradient_3" gradientUnits="userSpaceOnUse" x1="559.4625" y1="87.67499999999998" x2="550.6374999999999" y2="474.225" spreadMethod="pad">
<stop  offset="26.666666666666668%" stop-color="#0090F8"/>

<stop  offset="100%" stop-color="#59A7F5"/>
</linearGradient>

<linearGradient id="Gradient_4" gradientUnits="userSpaceOnUse" x1="288.75" y1="63.150000000000006" x2="231.25" y2="288.65" spreadMethod="pad">
<stop  offset="26.666666666666668%" stop-color="#53D5FD"/>

<stop  offset="100%" stop-color="#AAEAFD"/>
</linearGradient>

<linearGradient id="Gradient_5" gradientUnits="userSpaceOnUse" x1="375.77500000000003" y1="138.52499999999998" x2="369.825" y2="262.675" spreadMethod="pad">
<stop  offset="26.666666666666668%" stop-color="#53D5FD"/>

<stop  offset="100%" stop-color="#AAEAFD"/>
</linearGradient>

<linearGradient id="Gradient_6" gradientUnits="userSpaceOnUse" x1="500.725" y1="115.71249999999999" x2="494.875" y2="304.9875" spreadMethod="pad">
<stop  offset="26.666666666666668%" stop-color="#53D5FD"/>

<stop  offset="100%" stop-color="#AAEAFD"/>
</linearGradient>

<g id="Layer1_0_FILL">
<path fill="#126AAA" stroke="none" d="
M 296 531
Q 302.8 532.5 310.45 536.5 314.8 538.75 323.95 544.5 332.0138671875 549.5880859375 338.75 552.85 341.734375 547.9181640625 344.6 542.65 333.45 538.85 319.35 532.25 302.55 524.35 299.5 523 294.25 520.65 288.85 519.65 285.9857421875 525.7435546875 282.8 531
L 296 531
M 391.2 542.2
Q 393.2814453125 546.0263671875 395.4 549.65 402.7630859375 548.1443359375 410.1 545.1 413.7 543.6 430.25 535.15 441.91953125 529.1953125 450.8 526.8 448.8181640625 523.1744140625 446.95 519.2 441.55 520.2 436.3 522.55 433.25 523.9 416.45 531.8 402.35 538.4 391.2 542.2 Z"/>

<path fill="url(#Gradient_1)" stroke="none" d="
M 203.95 78.45
Q 220.85 54.1 205.15 38.1 183.2 15.75 136.55 57.75 63.15 123.8 35.9 253.95 6 386.75 54.95 499 77.5 541.45 106.95 570.05 130.6595703125 593.620703125 160.45 606.9 173.557421875 612.7478515625 187.85 616.6 203.15 620.85 218.95 622.15 256.9529296875 625.206640625 287.45 606.9 316.4861328125 589.5095703125 338.75 552.85 332.0138671875 549.5880859375 323.95 544.5 314.8 538.75 310.45 536.5 302.8 532.5 296 531
L 282.8 531
Q 255.040234375 576.863671875 203.05 559.1 161.1 544.75 126.95 488.35 100.95 448.35 93.65 401.55 90.7 382.85 89.15 363.95 84.15 286.7 112.95 210.9 119.25 196 125.95 182.5 146.55 140.5 178.6 106.45 190.4 93.9 201.75 80.95
L 203.95 78.45 Z"/>

<path fill="url(#Gradient_2)" stroke="none" d="
M 338.2 286.7
Q 337.85 286.75 337.5 286.8 290.85 295.75 254.95 326.55 244.65 335.7 236.15 346.2 229.3 354.55 223.65 363.75 218.95 371.35 215.05 379.5 197.9 415.55 197.9 459.4 197.9 487.95 207.9 505.9 219.05 525.9 239.4 525.9 247.55 525.9 260.45 522.4 273.4 518.9 280.9 518.9 284.9 518.9 288.85 519.65 294.25 520.65 299.5 523 302.55 524.35 319.35 532.25 333.45 538.85 344.6 542.65 346.7 543.3 348.7 543.95 359.3 547.15 371.95 546.4 376.5 546.7 387.1 543.5 389.1 542.85 391.2 542.2 402.35 538.4 416.45 531.8 433.25 523.9 436.3 522.55 441.55 520.2 446.95 519.2 450.9 518.45 454.9 518.45 462.4 518.45 475.35 521.95 477.23828125 522.4623046875 479 522.9 489.44296875 525.45 496.4 525.45 516.75 525.45 527.9 505.45 537.9 487.5 537.9 458.95 537.9 434.4 532.55 412.25 530.5 403.95 527.75 396 526.55 392.7 525.3 389.5 524 386.2 522.6 383 521.7 381 520.75 379.05 506.3 348.8 480.85 326.1 444.95 295.3 398.3 286.35 387.7 284.4 377.15 284 376.5 283.95 375.85 283.95 368 284.1 362 284.25 361.55 284.25 361.1 284.25
L 360.85 284.3
Q 349.55 284.6 338.2 286.7
M 324.75 374.95
Q 334.4 374.95 341.2 383.05 348.05 391.2 348.05 402.7 348.05 414.2 341.2 422.3 334.4 430.45 324.75 430.45 315.1 430.45 308.25 422.3 301.45 414.2 301.45 402.7 301.45 397.5 302.85 393 296.2 393 291.45 381.95 296.2 393 302.85 393 304.1 388.9 306.5 385.4 300.2 383.65 297.95 375.95 300.2 383.65 306.5 385.4 307.3 384.2 308.25 383.05 315.1 374.95 324.75 374.95
M 429.3 384.95
Q 431.7 388.45 432.95 392.55 439.6 392.55 444.35 381.5 439.6 392.55 432.95 392.55 434.35 397.05 434.35 402.25 434.35 413.75 427.55 421.85 420.7 430 411.05 430 401.4 430 394.6 421.85 387.75 413.75 387.75 402.25 387.75 390.75 394.6 382.6 401.4 374.5 411.05 374.5 420.7 374.5 427.55 382.6 428.5 383.75 429.3 384.95 435.6 383.2 437.85 375.5 435.6 383.2 429.3 384.95
M 334.45 458
Q 341.05 477.8 359.45 481.95 367.05 483.55 374.7 481.95 394.3 476.55 398.75 456.25 394.3 476.55 374.7 481.95 367.05 483.55 359.45 481.95 341.05 477.8 334.45 458 Z"/>

<path fill="#000000" stroke="none" d="
M 432.95 392.55
Q 431.7 388.45 429.3 384.95 428.5 383.75 427.55 382.6 420.7 374.5 411.05 374.5 401.4 374.5 394.6 382.6 387.75 390.75 387.75 402.25 387.75 413.75 394.6 421.85 401.4 430 411.05 430 420.7 430 427.55 421.85 434.35 413.75 434.35 402.25 434.35 397.05 432.95 392.55
M 397.35 392.75
Q 397.35 388.5 400.35 385.5 403.35 382.5 407.6 382.5 411.85 382.5 414.85 385.5 417.85 388.5 417.85 392.75 417.85 397 414.85 400 411.85 403 407.6 403 403.35 403 400.35 400 397.35 397 397.35 392.75
M 341.2 383.05
Q 334.4 374.95 324.75 374.95 315.1 374.95 308.25 383.05 307.3 384.2 306.5 385.4 304.1 388.9 302.85 393 301.45 397.5 301.45 402.7 301.45 414.2 308.25 422.3 315.1 430.45 324.75 430.45 334.4 430.45 341.2 422.3 348.05 414.2 348.05 402.7 348.05 391.2 341.2 383.05
M 335.45 385.95
Q 338.45 388.95 338.45 393.2 338.45 397.45 335.45 400.45 332.45 403.45 328.2 403.45 323.95 403.45 320.95 400.45 317.95 397.45 317.95 393.2 317.95 388.95 320.95 385.95 323.95 382.95 328.2 382.95 332.45 382.95 335.45 385.95 Z"/>

<path fill="#FFFFFF" stroke="none" d="
M 400.35 385.5
Q 397.35 388.5 397.35 392.75 397.35 397 400.35 400 403.35 403 407.6 403 411.85 403 414.85 400 417.85 397 417.85 392.75 417.85 388.5 414.85 385.5 411.85 382.5 407.6 382.5 403.35 382.5 400.35 385.5
M 338.45 393.2
Q 338.45 388.95 335.45 385.95 332.45 382.95 328.2 382.95 323.95 382.95 320.95 385.95 317.95 388.95 317.95 393.2 317.95 397.45 320.95 400.45 323.95 403.45 328.2 403.45 332.45 403.45 335.45 400.45 338.45 397.45 338.45 393.2 Z"/>

<path fill="url(#Gradient_3)" stroke="none" d="
M 710 382.25
Q 712.4755859375 351.589453125 710 319.6 707.491796875 287.21875 699.9 253.5 672.65 123.35 599.25 57.3 552.6 15.3 530.65 37.65 514.95 53.65 531.85 78
L 534.05 80.5
Q 545.4 93.45 557.2 106 589.25 140.05 609.85 182.05 616.55 195.55 622.85 210.45 651.65 286.25 646.65 363.5 645.1 382.4 642.15 401.1 634.85 447.9 608.85 487.9 574.7 544.3 532.75 558.65 478.687109375 577.121875 450.8 526.8 441.91953125 529.1953125 430.25 535.15 413.7 543.6 410.1 545.1 402.7630859375 548.1443359375 395.4 549.65 418.534375 588.907421875 449.05 606.9 479.3169921875 624.71875 516.85 621.7 532.65 620.4 547.95 616.15 561.68828125 612.447265625 574.35 606.9 604.735546875 593.5732421875 628.85 569.6 658.3 541 680.85 498.55 705.105859375 442.927734375 710 382.25 Z"/>

<path fill="url(#Gradient_4)" stroke="none" d="
M 279.4 41.9
Q 272.7 41.9 266.9 45.9 259.9 50.65 259.9 58.4 259.9 63.35 263.5 66.9 265.55 68.9 271.4 72.3 277.05 75.6 279.3 78.05 282.9 81.9 282.9 87.4 282.9 95.2 274.15 101.95 271.7 103.85 254.9 113.7 241.8 121.4 234.8 133 227.75 144.6 227.4 155.3 227.05 166 231.85 174.4 236.6 182.75 246.1 192.8 255.55 202.85 260.05 210.8 264.5 218.7 262.9 227.7 261.3 236.65 254.4 243 247.45 249.3 239.85 253.25 230.65 257.85 225.9 260.25 207.85 269.3 199.8 277.6 187.9 289.8 187.9 307.4 187.9 328.55 202.55 346.45 212.25 358.4 223.65 363.75 229.3 354.55 236.15 346.2 230.85 342.75 227.4 340.05 212.9 328.65 212.9 314.9 212.9 298.8 224 287.9 230.65 281.35 248.4 271.9 266.15 262.45 272.8 255.9 283.9 245 285.25 233.35 286.6 221.7 281.9 211.35 277.2 200.95 268 190.65 258.85 180.3 254.65 173.9 250.4 167.5 250.65 157.85 250.9 148.2 260.6 138.45 266.4 132.6 281.9 122.9 297.4 113.15 303.2 107.35 312.9 97.6 312.9 85.9 312.9 69.55 302.9 55.95 292.6 41.9 279.4 41.9 Z"/>

<path fill="#53D5FD" stroke="none" d="
M 361.95 284
L 360.85 284.3 361.1 284.25
Q 361.5498046875 284.2375 362 284.2 361.95 284.1 361.95 284 Z"/>

<path fill="url(#Gradient_5)" stroke="none" d="
M 389.9 124.95
Q 385.7 121.9 381.4 121.9 366.5 121.9 354.9 134.95 343.9 147.3 343.9 161.4 343.9 171.55 349.2 180.65 352.8 186.85 360.9 195.25 370.25 205 372.6 208.2 377.9 215.45 377.9 222.4 377.9 231.8 371.5 238.25 368.1 241.7 357.4 248.15 347.45 254.1 343.3 259.1 336.9 266.85 336.9 278.4 336.9 282.6 338.2 286.7 349.55 284.6 360.85 284.3
L 361.95 284
Q 360.9 279.85 360.9 278.4 360.9 270.55 367.6 263.85 371.15 260.3 382.4 252.65 392.8 245.6 397.2 240.5 403.9 232.6 403.9 222.9 403.9 214.85 398.1 207.3 394.45 202.5 385.4 194.8 375.9 186.65 372.7 182.8 366.9 175.85 366.9 168.9 366.9 163.6 371.3 159.35 373.7 157 380.9 152.55 387.75 148.3 390.55 145.3 394.9 140.55 394.9 134.4 394.9 128.65 389.9 124.95 Z"/>

<path fill="url(#Gradient_6)" stroke="none" d="
M 484.9 92.4
Q 484.9 87.5 481.9 83.95 478.5 79.9 472.9 79.9 457.7 79.9 443.9 97.95 437.95 105.65 434.45 114.4 430.9 123.25 430.9 130.4 430.9 143.75 437 154.1 441 160.95 450.4 169.8 460.8 179.55 463.8 183.75 469.9 192.25 469.9 202.4 469.9 210.85 467.7 217.9 466.35 222.35 462.9 229.05 459.3 236 458.1 239.6 455.9 246 455.9 253.4 455.9 270.95 469.65 283.75 477.65 291.2 499.7 303.25 521.7 315.25 532.8 327.95 543.9 340.65 543.9 353.85 543.9 367 538.55 375.65 533.2 384.25 525.3 389.5 526.55 392.7 527.75 396 530.5 403.95 532.55 412.25 543.55 404.65 552.95 390.1 562.3 375.55 562.7 359.6 563.05 343.65 550.85 326.25 538.65 308.85 517.9 295.4 497.4 283.05 489.7 277 476.9 266.95 476.9 255.9 476.9 249.35 479.1 242.2 480.3 238.25 483.9 229.55 490.9 212.7 490.9 200.9 490.9 190.5 485.45 183.05 482.1 178.55 473.4 171.9 464.6 165.2 461.35 160.85 455.9 153.55 455.9 143.4 455.9 135.45 460.45 127.55 463.6 122.05 470.4 114.55 478.85 105.35 480.35 103.25 484.9 97.25 484.9 92.4 Z"/>
</g>

<g id="Layer0_0_FILL">
<path fill="#8DCFF3" stroke="none" d="
M 415.45 558.25
Q 415.21875 559.273828125 415.75 560.15 423.238671875 572.8888671875 429.05 578.9 434.7642578125 584.9193359375 446.45 592.95 447.3359375 593.53828125 448.35 593.35 449.363671875 593.15703125 449.95 592.3 450.5388671875 591.4541015625 450.35 590.45 450.1669921875 589.4369140625 449.3 588.85 438.135546875 581.18046875 432.65 575.45 427.1611328125 569.7109375 420.05 557.6 419.523828125 556.7373046875 418.5 556.45 417.5353515625 556.21875 416.65 556.75 415.746484375 557.276171875 415.45 558.25
M 113.55 557.2
Q 112.7927734375 556.4833984375 111.75 556.5 110.7203125 556.5232421875 110 557.25 109.280859375 558.0193359375 109.3 559.05 109.3111328125 560.07734375 110.05 560.8 116.1462890625 566.6865234375 123.25 572.85 124.0396484375 573.5623046875 125.05 573.5 126.0984375 573.43046875 126.75 572.65 127.4638671875 571.861328125 127.4 570.8 127.329296875 569.803125 126.55 569.1 119.5537109375 563.0134765625 113.55 557.2
M 75.45 516.35
Q 75.2349609375 517.3931640625 75.8 518.25 87.7087890625 536.4783203125 96.8 546.9
L 96.8 546.95
Q 97.7865234375 548.06328125 98.8 549.15 99.49921875 549.946484375 100.5 550 101.55703125 550.0484375 102.3 549.35 103.0966796875 548.6533203125 103.15 547.6 103.1958984375 546.593359375 102.5 545.8 101.5255859375 544.75 100.6 543.65
L 100.55 543.65
Q 91.6759765625 533.3984375 80 515.5 79.4326171875 514.6626953125 78.4 514.45 77.404296875 514.234375 76.5 514.8 75.6603515625 515.3666015625 75.45 516.35
M 321.15 558.6
Q 321.6453125 557.6876953125 321.3 556.7 320.9994140625 555.730859375 320.05 555.25 319.138671875 554.8033203125 318.15 555.1 317.18203125 555.4515625 316.7 556.35 312.6666015625 564.4697265625 305.05 572.45 298.5181640625 579.345703125 290.5 584.95 289.678125 585.5548828125 289.5 586.55 289.3123046875 587.583984375 289.9 588.4 290.5029296875 589.272265625 291.5 589.45 292.5333984375 589.6357421875 293.35 589.05 301.781640625 583.154296875 308.65 575.9 316.8333984375 567.3298828125 321.15 558.6
M 235.15 162.15
Q 235.903515625 161.4390625 235.9 160.4 235.913671875 159.462890625 235.6 157.65 235.417578125 156.38671875 235.4 155.9 235.4291015625 147.49609375 240.45 138.45 245.473828125 129.5677734375 253.4 123.35 254.2427734375 122.7296875 254.35 121.7 254.5080078125 120.6849609375 253.85 119.85 253.2306640625 119.0552734375 252.2 118.9 251.1869140625 118.7927734375 250.35 119.4 241.626171875 126.23203125 236.1 136 230.3708984375 146.3037109375 230.4 155.9 230.3822265625 156.6130859375 230.65 158.45 230.8861328125 159.737109375 230.9 160.4 230.8962890625 161.4390625 231.6 162.15 232.3607421875 162.903515625 233.4 162.9 234.4390625 162.903515625 235.15 162.15
M 175.25 45.55
L 175.25 45.5
Q 181.23359375 43.6244140625 184.1 43.25
L 184.15 43.25
Q 186.7134765625 43.0013671875 189.75 43.8 190.7513671875 44.08125 191.65 43.55 192.55234375 43.037890625 192.8 42.05 193.081640625 41.05 192.55 40.15 192.0365234375 39.248046875 191.05 38.95 187.001171875 37.90234375 183.55 38.3 180.3666015625 38.675390625 173.75 40.75
L 173.75 40.75
Q 167.18828125 42.73828125 155.25 51.15
L 155.25 51.15
Q 143.5123046875 59.3966796875 133.05 70.7 132.3650390625 71.46875 132.4 72.5 132.4400390625 73.5263671875 133.2 74.2 133.9662109375 74.9353515625 135 74.9 136.0259765625 74.857421875 136.7 74.1 146.7875 63.203125 158.1 55.25
L 158.15 55.25
Q 169.212109375 47.461328125 175.25 45.55
M 467.9 339.55
Q 467.976171875 338.5423828125 467.3 337.75 455.8962890625 324.6142578125 444.15 317.65
L 444.2 317.65
Q 432.4826171875 310.6181640625 422.25 307.6 421.276171875 307.305859375 420.35 307.8 419.455078125 308.290234375 419.15 309.25 418.8544921875 310.26328125 419.35 311.15 419.85078125 312.0935546875 420.85 312.4 430.5171875 315.2818359375 441.6 321.95
L 441.6 321.95
Q 452.703515625 328.585546875 463.5 341.05 464.18828125 341.8275390625 465.2 341.9 466.2474609375 341.9642578125 467 341.25 467.8171875 340.5998046875 467.9 339.55
M 389.45 210
Q 389.50546875 211.05234375 390.25 211.75 391.530078125 213.0634765625 392.4 216.45
L 392.45 216.45
Q 393.448828125 220.074609375 393.45 223.4 393.391015625 227.13203125 390.7 231.8 388.3642578125 235.9412109375 385.9 237.9 385.09375 238.5716796875 384.95 239.6 384.842578125 240.629296875 385.45 241.45 386.1208984375 242.258203125 387.15 242.35 388.17734375 242.5064453125 389 241.85 392.1353515625 239.45859375 395.05 234.3 398.5091796875 228.2673828125 398.45 223.4 398.4509765625 219.425390625 397.25 215.1
L 397.25 215.15
Q 395.8693359375 209.9349609375 393.6 208.05 392.8548828125 207.35234375 391.8 207.4 390.7970703125 207.453125 390.1 208.2 389.4015625 208.9927734375 389.45 210
M 464.55 87.15
Q 463.6392578125 86.7037109375 462.65 87 457.7171875 88.611328125 451.7 94.25 445.9455078125 99.7357421875 441.75 107.7 441.268359375 108.653125 441.55 109.65 441.8701171875 110.6251953125 442.75 111.1 443.7029296875 111.5833984375 444.7 111.25 445.6732421875 110.9796875 446.15 110.05 449.954296875 102.8640625 455.15 97.9 460.1830078125 93.1884765625 464.25 91.75 465.2185546875 91.448828125 465.65 90.5 466.1466796875 89.588671875 465.8 88.6 465.4994140625 87.630859375 464.55 87.15
M 586 54.75
Q 585.859765625 53.7326171875 585 53.1 571.7857421875 43.51953125 564.85 40.45 557.729296875 37.2921875 553.75 36.65 549.5517578125 36.018359375 546.1 36.45
L 546.1 36.45
Q 542.496484375 36.9798828125 538.9 39.3 538.0248046875 39.86640625 537.8 40.85 537.583984375 41.88125 538.15 42.75 538.7150390625 43.626171875 539.7 43.85 540.7302734375 44.064453125 541.6 43.5 544.203515625 41.819921875 546.8 41.4 549.56328125 41.083984375 552.95 41.6 556.4703125 42.2078125 562.8 45 569.4140625 47.9802734375 582.05 57.15 582.9259765625 57.786328125 583.95 57.6 584.9673828125 57.4626953125 585.55 56.6 586.1865234375 55.7767578125 586 54.75
M 659.25 509.5
Q 658.2904296875 509.7958984375 657.8 510.7 648.95859375 527.0123046875 639.65 539.1 630.25625 551.4009765625 618.3 562.15 617.5541015625 562.84765625 617.5 563.85 617.4509765625 564.9052734375 618.15 565.65 618.8451171875 566.4458984375 619.85 566.5 620.9052734375 566.546484375 621.65 565.85 633.9435546875 554.7990234375 643.6 542.15 653.1412109375 529.787890625 662.2 513.1 662.6953125 512.17265625 662.4 511.15 662.094921875 510.190234375 661.15 509.7 660.26328125 509.2044921875 659.25 509.5
M 462.9 598.6
Q 462.9 597.25 462 596.3 461.05 595.35 459.7 595.35 458.35 595.35 457.45 596.3 456.5 597.25 456.5 598.6 456.5 599.95 457.45 600.9 458.35 601.85 459.7 601.85 461.05 601.85 462 600.9 462.9 599.95 462.9 598.6
M 369.25 539.95
Q 371.2 540.95 375 540.95 381.15 540.85 388.3 538.65 393.3 537.1 400.95 533.7 409.1 530.1 421.6 524.15 432.35 519.05 437.8 517.05 447.05 513.7 454.85 513.4 455.6 513.4 456.15 513.15 456.85 512.85 456.8 512.25 456.75 511.3 455.1 511.2 448.4 510.75 440.7 512.85 434.7 514.5 426.95 518.1 410.95 526.2 402.85 529.95 388.65 536.55 377.65 538.4 374.85 538.8 373.45 539.05 371 539.45 369.25 539.95
M 280.5 598.65
Q 281.35 597.75 281.35 596.5 281.35 595.25 280.5 594.35 279.6 593.45 278.35 593.45 277.1 593.45 276.25 594.35 275.35 595.25 275.35 596.5 275.35 597.75 276.25 598.65 277.1 599.55 278.35 599.55 279.6 599.55 280.5 598.65
M 262.25 119.65
Q 263.05 118.8 263.05 117.65 263.05 116.5 262.25 115.7 261.4 114.85 260.25 114.85 259.1 114.85 258.3 115.7 257.45 116.5 257.45 117.65 257.45 118.8 258.3 119.65 259.1 120.45 260.25 120.45 261.4 120.45 262.25 119.65
M 201.65 44
Q 200.65 43 199.2 43 197.75 43 196.75 44 195.75 45 195.75 46.45 195.75 47.9 196.75 48.9 197.75 49.9 199.2 49.9 200.65 49.9 201.65 48.9 202.65 47.9 202.65 46.45 202.65 45 201.65 44
M 476.85 354.3
Q 478.1 353.05 478.1 351.3 478.1 349.5 476.85 348.3 475.6 347.05 473.85 347.05 472.05 347.05 470.85 348.3 469.6 349.5 469.6 351.3 469.6 353.05 470.85 354.3 472.05 355.55 473.85 355.55 475.6 355.55 476.85 354.3
M 473.65 85.1
Q 472.6 85.1 471.9 85.85 471.15 86.55 471.15 87.6 471.15 88.65 471.9 89.4 472.6 90.1 473.65 90.1 474.7 90.1 475.45 89.4 476.15 88.65 476.15 87.6 476.15 86.55 475.45 85.85 474.7 85.1 473.65 85.1
M 536.15 47.35
Q 535.3 46.5 534.15 46.5 533 46.5 532.2 47.35 531.35 48.15 531.35 49.35 531.35 50.55 532.2 51.4 533 52.2 534.15 52.2 535.3 52.2 536.15 51.4 536.95 50.55 536.95 49.35 536.95 48.15 536.15 47.35 Z"/>
</g>

<path id="Layer1_0_1_STROKES" stroke="#000000" stroke-width="3" stroke-linejoin="round" stroke-linecap="round" fill="none" d="
M 338.45 393.2
Q 338.45 397.45 335.45 400.45 332.45 403.45 328.2 403.45 323.95 403.45 320.95 400.45 317.95 397.45 317.95 393.2 317.95 388.95 320.95 385.95 323.95 382.95 328.2 382.95 332.45 382.95 335.45 385.95 338.45 388.95 338.45 393.2 Z
M 306.5 385.4
Q 307.3 384.2 308.25 383.05 315.1 374.95 324.75 374.95 334.4 374.95 341.2 383.05 348.05 391.2 348.05 402.7 348.05 414.2 341.2 422.3 334.4 430.45 324.75 430.45 315.1 430.45 308.25 422.3 301.45 414.2 301.45 402.7 301.45 397.5 302.85 393 296.2 393 291.45 381.95
M 397.35 392.75
Q 397.35 397 400.35 400 403.35 403 407.6 403 411.85 403 414.85 400 417.85 397 417.85 392.75 417.85 388.5 414.85 385.5 411.85 382.5 407.6 382.5 403.35 382.5 400.35 385.5 397.35 388.5 397.35 392.75 Z
M 429.3 384.95
Q 428.5 383.75 427.55 382.6 420.7 374.5 411.05 374.5 401.4 374.5 394.6 382.6 387.75 390.75 387.75 402.25 387.75 413.75 394.6 421.85 401.4 430 411.05 430 420.7 430 427.55 421.85 434.35 413.75 434.35 402.25 434.35 397.05 432.95 392.55 431.7 388.45 429.3 384.95 435.6 383.2 437.85 375.5
M 444.35 381.5
Q 439.6 392.55 432.95 392.55
M 302.85 393
Q 304.1 388.9 306.5 385.4 300.2 383.65 297.95 375.95
M 334.45 458
Q 341.05 477.8 359.45 481.95 367.05 483.55 374.7 481.95 394.3 476.55 398.75 456.25"/>

<path id="Layer1_0_2_STROKES" stroke="#183D6F" stroke-width="3" stroke-linejoin="round" stroke-linecap="round" fill="none" d="
M 450.825 526.8
Q 478.687109375 577.121875 532.75 558.65 574.7 544.3 608.85 487.9 634.85 447.9 642.15 401.1 645.1 382.4 646.65 363.5 651.65 286.25 622.85 210.45 616.55 195.55 609.85 182.05 589.25 140.05 557.2 106 545.4 93.45 534.05 80.5
L 531.85 78
Q 514.95 53.65 530.65 37.65 552.6 15.3 599.25 57.3 672.65 123.35 699.9 253.5 707.491796875 287.21875 710 319.625 712.4755859375 351.589453125 710 382.275 705.105859375 442.927734375 680.85 498.55 658.3 541 628.85 569.6 604.735546875 593.5732421875 574.35 606.9 561.68828125 612.447265625 547.95 616.15 532.65 620.4 516.85 621.7 479.3169921875 624.71875 449.075 606.9 418.534375 588.907421875 395.425 549.675 393.2814453125 546.0263671875 391.2 542.2 389.1 542.85 387.1 543.5 376.5 546.7 371.95 546.4 359.3 547.15 348.7 543.95 346.7 543.3 344.6 542.65 341.734375 547.9181640625 338.75 552.85 316.4861328125 589.5095703125 287.475 606.9 256.9529296875 625.206640625 218.95 622.15 203.15 620.85 187.85 616.6 173.557421875 612.7478515625 160.45 606.9 130.6595703125 593.620703125 106.95 570.05 77.5 541.45 54.95 499 6 386.75 35.9 253.95 63.15 123.8 136.55 57.75 183.2 15.75 205.15 38.1 220.85 54.1 203.95 78.45
L 201.75 80.95
Q 190.4 93.9 178.6 106.45 146.55 140.5 125.95 182.5 119.25 196 112.95 210.9 84.15 286.7 89.15 363.95 90.7 382.85 93.65 401.55 100.95 448.35 126.95 488.35 161.1 544.75 203.05 559.1 255.040234375 576.863671875 282.8 531 285.9857421875 525.7435546875 288.85 519.65 284.9 518.9 280.9 518.9 273.4 518.9 260.45 522.4 247.55 525.9 239.4 525.9 219.05 525.9 207.9 505.9 197.9 487.95 197.9 459.4 197.9 415.55 215.05 379.5 218.95 371.35 223.65 363.75 212.25 358.4 202.55 346.45 187.9 328.55 187.9 307.4 187.9 289.8 199.8 277.6 207.85 269.3 225.9 260.25 230.65 257.85 239.85 253.25 247.45 249.3 254.4 243 261.3 236.65 262.9 227.7 264.5 218.7 260.05 210.8 255.55 202.85 246.1 192.8 236.6 182.75 231.85 174.4 227.05 166 227.4 155.3 227.75 144.6 234.8 133 241.8 121.4 254.9 113.7 271.7 103.85 274.15 101.95 282.9 95.2 282.9 87.4 282.9 81.9 279.3 78.05 277.05 75.6 271.4 72.3 265.55 68.9 263.5 66.9 259.9 63.35 259.9 58.4 259.9 50.65 266.9 45.9 272.7 41.9 279.4 41.9 292.6 41.9 302.9 55.95 312.9 69.55 312.9 85.9 312.9 97.6 303.2 107.35 297.4 113.15 281.9 122.9 266.4 132.6 260.6 138.45 250.9 148.2 250.65 157.85 250.4 167.5 254.65 173.9 258.85 180.3 268 190.65 277.2 200.95 281.9 211.35 286.6 221.7 285.25 233.35 283.9 245 272.8 255.9 266.15 262.45 248.4 271.9 230.65 281.35 224 287.9 212.9 298.8 212.9 314.9 212.9 328.65 227.4 340.05 230.85 342.75 236.15 346.2 244.65 335.7 254.95 326.55 290.85 295.75 337.5 286.8 337.85 286.75 338.2 286.7 336.9 282.6 336.9 278.4 336.9 266.85 343.3 259.1 347.45 254.1 357.4 248.15 368.1 241.7 371.5 238.25 377.9 231.8 377.9 222.4 377.9 215.45 372.6 208.2 370.25 205 360.9 195.25 352.8 186.85 349.2 180.65 343.9 171.55 343.9 161.4 343.9 147.3 354.9 134.95 366.5 121.9 381.4 121.9 385.7 121.9 389.9 124.95 394.9 128.65 394.9 134.4 394.9 140.55 390.55 145.3 387.75 148.3 380.9 152.55 373.7 157 371.3 159.35 366.9 163.6 366.9 168.9 366.9 175.85 372.7 182.8 375.9 186.65 385.4 194.8 394.45 202.5 398.1 207.3 403.9 214.85 403.9 222.9 403.9 232.6 397.2 240.5 392.8 245.6 382.4 252.65 371.15 260.3 367.6 263.85 360.9 270.55 360.9 278.4 360.9 279.85 361.95 284 361.95 284.1 362 284.2 368.9 283.7 375.85 283.95 376.5 283.95 377.15 284 387.7 284.4 398.3 286.35 444.95 295.3 480.85 326.1 506.3 348.8 520.75 379.05 521.7 381 522.6 383 524 386.2 525.3 389.5 533.2 384.25 538.55 375.65 543.9 367 543.9 353.85 543.9 340.65 532.8 327.95 521.7 315.25 499.7 303.25 477.65 291.2 469.65 283.75 455.9 270.95 455.9 253.4 455.9 246 458.1 239.6 459.3 236 462.9 229.05 466.35 222.35 467.7 217.9 469.9 210.85 469.9 202.4 469.9 192.25 463.8 183.75 460.8 179.55 450.4 169.8 441 160.95 437 154.1 430.9 143.75 430.9 130.4 430.9 123.25 434.45 114.4 437.95 105.65 443.9 97.95 457.7 79.9 472.9 79.9 478.5 79.9 481.9 83.95 484.9 87.5 484.9 92.4 484.9 97.25 480.35 103.25 478.85 105.35 470.4 114.55 463.6 122.05 460.45 127.55 455.9 135.45 455.9 143.4 455.9 153.55 461.35 160.85 464.6 165.2 473.4 171.9 482.1 178.55 485.45 183.05 490.9 190.5 490.9 200.9 490.9 212.7 483.9 229.55 480.3 238.25 479.1 242.2 476.9 249.35 476.9 255.9 476.9 266.95 489.7 277 497.4 283.05 517.9 295.4 538.65 308.85 550.85 326.25 563.05 343.65 562.7 359.6 562.3 375.55 552.95 390.1 543.55 404.65 532.55 412.25 537.9 434.4 537.9 458.95 537.9 487.5 527.9 505.45 516.75 525.45 496.4 525.45 489.44296875 525.45 479.025 522.9 477.23828125 522.4623046875 475.35 521.95 462.4 518.45 454.9 518.45 450.9 518.45 446.95 519.2 448.8181640625 523.1744140625 450.825 526.8 Z
M 362 284.25
L 362 284.2
Q 361.5498046875 284.2375 361.125 284.275 361.55 284.25 362 284.25 368 284.1 375.85 283.95
M 361.125 284.275
L 360.85 284.3
Q 349.55 284.6 338.2 286.7
M 223.65 363.75
Q 229.3 354.55 236.15 346.2
M 344.6 542.65
Q 333.45 538.85 319.35 532.25 302.55 524.35 299.5 523 294.25 520.65 288.85 519.65
M 532.55 412.25
Q 530.5 403.95 527.75 396 526.55 392.7 525.3 389.5
M 391.2 542.2
Q 402.35 538.4 416.45 531.8 433.25 523.9 436.3 522.55 441.55 520.2 446.95 519.2"/>
</defs>

<g transform="matrix( 1, 0, 0, 1, 0,0) ">
<use xlink:href="#Layer1_0_FILL"/>

<use xlink:href="#Layer1_0_1_STROKES"/>

<use xlink:href="#Layer1_0_2_STROKES"/>
</g>

<g transform="matrix( 1, 0, 0, 1, 0,0) ">
<use xlink:href="#Layer0_0_FILL"/>
</g>
</svg>
