
<svg xmlns="http://www.w3.org/2000/svg" version="1.1" xmlns:xlink="http://www.w3.org/1999/xlink" preserveAspectRatio="none" x="0px" y="0px" width="1133px" height="527px" viewBox="0 0 1133 527">
<defs>
<linearGradient id="Gradient_1" gradientUnits="userSpaceOnUse" x1="172.4125" y1="437.85" x2="211.48749999999998" y2="53.25" spreadMethod="pad">
<stop  offset="26.666666666666668%" stop-color="#0090F8"/>

<stop  offset="100%" stop-color="#59A7F5"/>
</linearGradient>

<linearGradient id="Gradient_2" gradientUnits="userSpaceOnUse" x1="450.71250000000003" y1="353.875" x2="457.8875" y2="89.52499999999998" spreadMethod="pad">
<stop  offset="26.666666666666668%" stop-color="#0090F8"/>

<stop  offset="100%" stop-color="#59A7F5"/>
</linearGradient>

<linearGradient id="Gradient_3" gradientUnits="userSpaceOnUse" x1="609.2" y1="388.6" x2="609.2" y2="88.19999999999999" spreadMethod="pad">
<stop  offset="26.666666666666668%" stop-color="#0090F8"/>

<stop  offset="100%" stop-color="#59A7F5"/>
</linearGradient>

<linearGradient id="Gradient_4" gradientUnits="userSpaceOnUse" x1="772.7" y1="388.6" x2="772.7" y2="88.19999999999999" spreadMethod="pad">
<stop  offset="26.666666666666668%" stop-color="#0090F8"/>

<stop  offset="100%" stop-color="#59A7F5"/>
</linearGradient>

<linearGradient id="Gradient_5" gradientUnits="userSpaceOnUse" x1="941.0625" y1="408.4375" x2="949.0374999999999" y2="103.96249999999998" spreadMethod="pad">
<stop  offset="26.666666666666668%" stop-color="#0090F8"/>

<stop  offset="100%" stop-color="#59A7F5"/>
</linearGradient>

<g id="Layer0_0_FILL">
<path fill="#0968BF" stroke="none" d="
M 198.35 195.7
Q 199.673828125 193.5712890625 201.6 191.95 206.45 187.9 213.6 187.9 221 187.9 228.9 191.65 233.65 193.9 242.6 199.9 251.55 205.9 257.9 208.9 260.8873046875 210.311328125 265.7 210.8 269.082421875 210.2142578125 271 200.75 272.912109375 191.275390625 261.7 181.6 250.495703125 171.9865234375 237.7 172.4 224.8912109375 172.809765625 215.05 178.15 205.3763671875 183.4298828125 198.35 195.7
M 524.15 67.75
Q 516.8408203125 74.789453125 512.4 84.1 503.45 102.8 502.2 141.25 501.4 165.15 502.35 229.15 502.35 271.05 503 283.05 503.95 301.75 507.35 324.1 513.9 324.1 522.2 324.4 525.998046875 324.533203125 529.35 325.15 516.93671875 236.2552734375 516.1 128 514.4326171875 92.1826171875 524.15 67.75
M 895.9 350.5
Q 896.85 358.284375 896.85 366.4 896.85 423.85 862.8 452.6 861.85 453.4 860.9 454.15 873.4 463.4 887.25 469.85 888.7802734375 470.5623046875 890.3 471.2 893.0634765625 465.5138671875 895.45 458 903.1 434 903.1 407.5 903.1 382.45 900.6 368.2 899.022265625 359.233203125 895.9 350.5
M 682.95 313.6
Q 680.7513671875 313.958203125 678.1 314.4 666.1 316.4 663.6 316.4 654.55 316.4 650.6 312.5 646.6 308.55 646.6 299.4 646.6 296.4712890625 647.05 294.05 646.5236328125 294.83828125 645.85 295.7 642.85 299.55 642.25 300.45 638 306.55 638 314 638 320.35 642.05 325 646.35 330 653 330 656.05 330 662.05 327.3 668.15 324.55 674.3 320.4 679.3888671875 316.9189453125 682.95 313.6
M 708.95 330.1
Q 711.064453125 336.19765625 712.65 344.4 716.6 364.6 716.6 388.4 716.6 416.75 708.85 434 701.7 449.85 694.65 455.7 702.1158203125 458.989453125 712.2 462.8 719.3453125 452.753515625 723.7 441.95 731.1 423.55 731.1 400.5 731.1 374.15 726.15 357.85 720.8333984375 340.516796875 708.95 330.1
M 711.1 111.7
Q 708.5447265625 127.7384765625 701.65 136.05 693.95 145.4 677.6 146.95 668.85 147.45 664.75 147.8 657.6 148.4 653.55 150.15 642.6 154.9 642.6 173.15 642.6 178.2703125 643.4 182.2 652.8740234375 179.8140625 659.35 177.75 676.6 172.15 687.1 164.75 699.05 156.35 704.85 143.9 710.9884765625 130.7880859375 711.1 111.7
M 818 186.45
Q 822.05 188.95 827.85 193.15 836.8 199.65 841.55 202.1 846.7412109375 204.761328125 851.7 205.65 853.8625 202.61796875 855.1 191.45 856.340625 180.33359375 847.3 171.65 838.2470703125 163.012109375 824.85 162.85 811.4662109375 162.7251953125 800.25 167.65 789.0275390625 172.5775390625 783.15 180 777.2671875 187.4296875 778.45 190.65 779.6779296875 193.876953125 779.75 194.2 781.1625 189.7681640625 784.8 186.1 790.8 180.15 798.85 180.15 806.25 180.15 814.15 184.2 815.8 185.05 818 186.45
M 827.85 193.15
Q 822.05 188.95 818 186.45 830.05 233.4 848.1 249.2 866.1 264.95 889.85 277.5 898.984765625 282.31796875 906.15 286.3 899.2068359375 280.82890625 893.55 274.8 886.05 266.8 880.1 257 876.35 250.75 872.8 238.8 871.3728515625 233.5431640625 870.1 229.1 883.5439453125 223.3791015625 893.2 210.05 906.1 192.25 906.1 169.5 906.1 158.1 902.4 142.9 902.3623046875 142.7451171875 902.3 142.6 902.85 147.3408203125 902.85 152.15 902.85 174.1 888.95 190.2 875.2 206.15 856.85 206.15 854.3125 206.15 851.7 205.65 846.7412109375 204.761328125 841.55 202.1 836.8 199.65 827.85 193.15 Z"/>

<path fill="url(#Gradient_1)" stroke="none" d="
M 290.05 90.3
Q 276.2 73.85 261 65.65 245.75 57.4 233.7 53.25 203.2 44.65 175.65 49.8 124.3 59.6 93.3 100.6 69.8 131.6 65 169.95 64.35 179.7 65.6 189.45 69.45 219.05 83.65 237.1 97.85 255.15 127.6 273.4 135.6 278.3 151.1 287.45 164.3 295.35 171.6 300.75 191.6 315.45 192.5 326.2 193.4 336.95 187.15 342.3 180.85 347.6 169.65 346.75 158.45 345.9 152 342.25 145.5 338.6 136.7 330.9 127.9 323.2 115.55 320.3 103.2 317.4 88.8 319.3 74.35 321.2 60.25 340.95 46.15 360.65 49.6 388.75 53.05 416.85 63.4 431.95 73.7 447 95.4 460.4 117.05 473.8 144.1 480.1 168.9 485.9 192.6 485.9 217.2 485.9 239.15 477.65 261.15 469.4 277.65 453.95 294.7 437.95 303.9 416.2 313.6 393.2 313.6 365.9 313.6 329.65 295.15 302.75 281.75 283.2 254.6 264.55 250.25 261.6 232.95 250.4 220.45 242.35 214.05 237.25 195.6 222.55 195.6 206.9 195.6 200.3900390625 198.2 195.95 198.2875 195.8375 198.35 195.7 205.3763671875 183.4298828125 215.05 178.15 224.8912109375 172.809765625 237.7 172.4 250.495703125 171.9865234375 261.7 181.6 272.912109375 191.275390625 271 200.75 269.082421875 210.2142578125 265.7 210.8 271.1654296875 211.4294921875 278.95 210.9 293.6 209.9 305.6 194.9 317.6 179.85 317.6 158.9 317.6 138.7 310.75 122.75 303.9 106.75 290.05 90.3
M 189.15 87.45
Q 192 92.45 189.95 97.25 187.85 102 183.6 104.5 179.3 107 176.25 108.35 173.15 109.65 162.05 113.8 152.15 117.45 147.05 120.6 142.35 123.5 137.5 126.9 132.65 130.25 123.8 142.25 120.45 145.8 118.5 147.45 115.3 150.15 112.25 151.3 108.6 152.7 104.85 151.85 100.85 150.95 98.95 147.9 96.95 144.7 97.8 138.75 98.95 130.35 103.1 123.1 107.8 114.7 116.75 106 125.7 97.3 139.1 90.5 152.5 83.65 162.05 81.45 171.6 79.2 178.95 80.85 186.3 82.45 189.15 87.45
M 197.2 92.3
Q 197.2 86.45 201.35 82.35 205.5 78.2 211.35 78.2 217.2 78.2 221.35 82.35 225.5 86.45 225.5 92.3 225.5 98.15 221.35 102.3 217.2 106.4 211.35 106.4 205.5 106.4 201.35 102.3 197.2 98.15 197.2 92.3
M 278.4 357.95
Q 279 355.75 280.05 354.4 281.4 352.6 283.8 351.8 286.05 351.05 288.4 351.5 291.15 352.05 293.25 354 295.4 356 295.75 360.1 296.05 364.2 294.35 375.6 292.65 387 289.65 391.65 286.65 396.25 285.85 396.85 285.05 397.4 283.1 398.6 281.4 399.65 279.45 400.05 277.2 400.45 275.1 399.85 272.85 399.2 271.45 397.6 270 395.85 269.75 393.3 269.5 391.05 270.25 388.55 270.75 386.8 272.05 384.15 273.6 380.85 274 379.8 275.15 376.9 275.9 373.05 276.3 370.8 276.85 366.1 277.5 360.9 278.4 357.95
M 265.05 406.1
Q 268.55 405.45 270.9 406.55 273.2 407.65 275.15 410.55 277.05 413.35 275.85 419.6 274.6 425.85 270.65 431.75 266.7 437.65 255.45 445.35 244.2 453.05 236.25 456.45 228.3 459.8 221.65 461.65 207.8 465.5 197.2 464.2 190.9 463.5 187.25 460.9 185 459.3 183.7 456.95 182.3 454.5 182.5 451.95 182.7 449 184.95 446.45 186.95 444.1 190 442.8 192.45 441.75 195.95 441.2 196.75 441.05 202.1 440.4 224.7 437.6 243.8 425.05 249.25 421.35 252 418.2 253.05 417 255.55 413.5 257.7 410.45 259.25 408.95 261.55 406.7 265.05 406.1 Z"/>

<path fill="#8DCFF3" stroke="none" d="
M 270.9 406.55
Q 268.55 405.45 265.05 406.1 261.55 406.7 259.25 408.95 257.7 410.45 255.55 413.5 253.05 417 252 418.2 249.25 421.35 243.8 425.05 224.7 437.6 202.1 440.4 196.75 441.05 195.95 441.2 192.45 441.75 190 442.8 186.95 444.1 184.95 446.45 182.7 449 182.5 451.95 182.3 454.5 183.7 456.95 185 459.3 187.25 460.9 190.9 463.5 197.2 464.2 207.8 465.5 221.65 461.65 228.3 459.8 236.25 456.45 244.2 453.05 255.45 445.35 266.7 437.65 270.65 431.75 274.6 425.85 275.85 419.6 277.05 413.35 275.15 410.55 273.2 407.65 270.9 406.55
M 280.05 354.4
Q 279 355.75 278.4 357.95 277.5 360.9 276.85 366.1 276.3 370.8 275.9 373.05 275.15 376.9 274 379.8 273.6 380.85 272.05 384.15 270.75 386.8 270.25 388.55 269.5 391.05 269.75 393.3 270 395.85 271.45 397.6 272.85 399.2 275.1 399.85 277.2 400.45 279.45 400.05 281.4 399.65 283.1 398.6 285.05 397.4 285.85 396.85 286.65 396.25 289.65 391.65 292.65 387 294.35 375.6 296.05 364.2 295.75 360.1 295.4 356 293.25 354 291.15 352.05 288.4 351.5 286.05 351.05 283.8 351.8 281.4 352.6 280.05 354.4
M 201.35 82.35
Q 197.2 86.45 197.2 92.3 197.2 98.15 201.35 102.3 205.5 106.4 211.35 106.4 217.2 106.4 221.35 102.3 225.5 98.15 225.5 92.3 225.5 86.45 221.35 82.35 217.2 78.2 211.35 78.2 205.5 78.2 201.35 82.35
M 189.95 97.25
Q 192 92.45 189.15 87.45 186.3 82.45 178.95 80.85 171.6 79.2 162.05 81.45 152.5 83.65 139.1 90.5 125.7 97.3 116.75 106 107.8 114.7 103.1 123.1 98.95 130.35 97.8 138.75 96.95 144.7 98.95 147.9 100.85 150.95 104.85 151.85 108.6 152.7 112.25 151.3 115.3 150.15 118.5 147.45 120.45 145.8 123.8 142.25 132.65 130.25 137.5 126.9 142.35 123.5 147.05 120.6 152.15 117.45 162.05 113.8 173.15 109.65 176.25 108.35 179.3 107 183.6 104.5 187.85 102 189.95 97.25
M 445.4 439.1
Q 443.1 438.1 439.4 437.65 435.7 437.15 429.8 437.8 423.9 438.45 417 437 410.1 435.55 405.7 430.9 401.3 426.2 399 423.55 396.7 420.85 393.65 417.5 390.55 414.1 388.5 413.45 388.4 413.4 388.3 413.4
L 381.6 412.05
Q 381.1 412.15 380.7 412.35 367.9 418.95 373.6 432.65 375.15 437.75 378.3 442.4 382.8 449.1 392.05 455.85 395.75 458.45 397.75 459.5 401.55 461.6 406.8 462.85 417.6 465.4 433.5 463.05 437.8 462.4 440.5 461.65 444.2 460.55 446.85 458.8 448.95 457.4 449.95 455.8 451.1 453.95 452 450.9 452.85 447.85 451.7 445.5 450.55 443.1 449.1 441.6 447.65 440.05 445.4 439.1
M 483.6 436.8
Q 479.9 433.1 474.7 433.1 469.5 433.1 465.8 436.8 462.1 440.5 462.1 445.7 462.1 450.9 465.8 454.6 469.5 458.3 474.7 458.3 479.9 458.3 483.6 454.6 487.3 450.9 487.3 445.7 487.3 440.5 483.6 436.8
M 428.8 93.9
Q 433.85 93.2 437.5 91.95 441.15 90.65 443.05 88.9 444.95 87.15 445.85 82.65 446.75 78.15 444 74.55 441.2 70.95 436.15 69.25 431.05 67.55 421.95 67.6 412.8 67.6 403.5 70.45 391.7 74.1 384.4 81.8 379.25 87.35 375.55 96.1 372.7 102.85 372.55 108.2 372.55 114.65 377.2 119.2 381.8 123.75 388.3 123.75 388.55 123.7 388.75 123.65 393 122.4 396.7 117.8 397.85 116.35 402.5 109.35 407.15 102.35 412.6 99.15 418 95.9 422.25 95.25 426.5 94.55 428.8 93.9
M 567.75 98.5
Q 575.3 95.9 582.6 96 589.85 96.1 597.4 95.2 602.75 94.5 603.05 94.45 606.3 93.95 608.6 93.15 614.9 90.95 617.3 86.25 619 82.95 618.25 79.1 617.5 75.2 614.7 72.8 612.65 71.05 608.25 69.45 599.8 66.35 581.75 66.6 566.75 67.45 563.2 68.1 556.95 69.25 552.15 70.95 546.45 72.95 541.95 76.1 537 79.55 533.95 84.1 532.6 86.05 530.9 89.75 525.9 100.45 526.9 108.25 527.55 113.25 530.6 117.1 533.85 121.15 538.4 122 545 123.2 548.3 119.95 551.6 116.7 555.9 108.9 560.2 101.05 567.75 98.5
M 685.9 360.45
Q 682.5 361.8 681.05 364.75 680.35 366.25 679.65 369.3 678.9 372.35 678.7 381.8
L 678.6 384.85
Q 678.65 384.1 678.55 390.75 678.4 399.85 676.5 404.3 675.05 407.7 672.3 410.35 669.55 413 666.15 414.25 664.9 414.7 661.8 415.45 659 416.15 657.5 416.8 653.9 418.4 651.6 421.75 649.25 425.15 649.1 429.05 649 433 651.1 436.5 653.25 440.05 656.8 441.7 659.2 442.75 663.3 443.3 667.6 443.75 670.65 443.5 676.05 443.05 681.45 441.3 686.8 439.55 692.25 434.6 697.7 429.6 700.15 421.45 702.6 413.3 704.2 404.45 705.8 395.6 705.2 384.7 704.6 373.8 702.3 368.75 700.8 365.55 698.35 363.25 695.75 360.8 692.6 360 689.25 359.1 685.9 360.45
M 695.75 225.45
Q 694.6 219.8 691.75 216.95 688.85 214.15 682.5 212.8 673.85 211.1 665.35 212.15 658.65 212.9 652.6 215.35 649.55 216.55 648.3 218 646.4 220.15 646.4 224.3 646.5 226.35 646.95 227.55 648.35 231.3 653.2 232.75 655 233.25 657.35 233.35 658.75 233.4 661.55 233.3
L 669.7 233
Q 672.8 232.9 674.55 233.25 677.2 233.7 678.65 235.25 679.45 236.1 680.35 238.1 681.3 240.3 681.85 241.05 683.5 243.35 686.55 243.8 689.55 244.3 691.8 242.65 693.55 241.3 694.65 238.9 697.35 233.3 695.75 225.45
M 648.45 92.7
Q 652.3 88.8 652.3 83.35 652.3 77.9 648.45 74.05 644.55 70.15 639.1 70.15 633.65 70.15 629.8 74.05 625.9 77.9 625.9 83.35 625.9 88.8 629.8 92.7 633.65 96.55 639.1 96.55 644.55 96.55 648.45 92.7
M 765.8 433.85
Q 759.9 433.85 755.7 438.05 751.5 442.25 751.5 448.2 751.5 454.15 755.7 458.35 759.9 462.55 765.8 462.55 771.7 462.55 775.9 458.35 780.1 454.15 780.1 448.2 780.1 442.25 775.9 438.05 771.7 433.85 765.8 433.85
M 882.95 339.15
Q 881.65 331.95 878.9 324.45 876.1 316.9 870.95 309.6 865.75 302.3 859.8 299.35 853.85 296.35 850.5 296.15 846.7 295.95 843.2 297.95 839.7 299.9 837.8 303.3 835.95 306.65 836 310.65 836.05 314.65 837.9 318 838.8 319.6 840.35 321.5 841.2 322.6 843.05 324.7 850.1 333.4 853.3 345.2 856.25 356.2 855.45 368.3 855.15 372.75 855.15 372.95 855.1 375.65 855.5 377.6 856.2 380.7 858.2 383.25 860.25 385.85 863.1 387.1 866.05 388.4 869.3 388.15 872.6 387.85 875.2 386.05 877.7 384.2 879.85 380.7 885.5 371.3 885.35 361.9 885.15 352.5 884.7 349.4 884.2 346.3 882.95 339.15
M 811.05 87.15
Q 817.75 85.35 820.1 80.55 821.75 77.1 820.65 72.9 819.6 68.95 816.6 66.1 811.9 61.65 802.3 59.7 785.65 56.4 768.2 60.65 751.25 64.8 737.2 75.25 730.7 80.15 727.65 84.7 723.4 91.05 724.35 97.5 724.9 100.95 727.05 103.65 729.25 106.5 732.4 107.45 736.45 108.7 741.45 106.75 743.3 106.05 745.6 104.75 745.95 104.6 749.6 102.45 760.9 95.95 773.7 92.35 786.4 88.75 799.55 88.25 804.6 88.05 805.35 88 808.6 87.75 811.05 87.15
M 1043.15 414.4
Q 1043.15 408.45 1038.95 404.25 1034.75 400.05 1028.85 400.05 1022.95 400.05 1018.75 404.25 1014.55 408.45 1014.55 414.4 1014.55 420.35 1018.75 424.55 1022.95 428.75 1028.85 428.75 1034.75 428.75 1038.95 424.55 1043.15 420.35 1043.15 414.4
M 1046.55 319.45
Q 1045.55 317.65 1042.65 313 1038.85 306.95 1036.15 304.15 1031.8 299.6 1026.75 298.7 1024 298.2 1021.2 298.85 1018.4 299.5 1016.05 301.05 1011.35 304.2 1009.3 309.8 1007.1 315.65 1008.85 320.65 1009.55 322.55 1011.4 325.55 1014.4 330.8 1016.3 335.45 1017 337.4 1019.65 347.35 1022.25 357.25 1022.05 365.95 1021.85 374.65 1022.6 378.65 1023.35 382.6 1026.2 385.15 1029.1 387.75 1032.75 388.65 1036.35 389.6 1040.1 388.65 1043.9 387.75 1046.7 385.25 1050.05 382.3 1052.2 376.95 1053.6 373.2 1054.15 370.05 1054.8 366.55 1054.95 361.55 1055.75 336.3 1046.55 319.45
M 974.65 93.3
Q 981.55 93 985.05 91.5 988.85 89.9 991.15 86.35 993.55 82.65 993 78.75 992.05 71.7 982.35 66.85 977.2 64.15 971.5 63.6 947.85 60.25 925.35 69.05 921.9 70.35 918.95 71.8 910.3 75.95 904.35 81.65 902.55 83.35 901.7 84.55 899.65 87.35 899.2 90.9 898.7 94.5 899.95 97.7 901.15 100.95 903.85 103.3 906.55 105.65 909.95 106.45 914.3 107.4 920.25 105.8 924.5 104.7 928.25 102.95 929.55 102.4 932 101.1 934.5 99.85 935.75 99.25 943.6 95.7 954.75 94.45 958.6 94.05 974.65 93.3 Z"/>

<path fill="url(#Gradient_2)" stroke="none" d="
M 492.35 112.15
Q 492.35 87.25 490.8 76.6 488.7 62.65 482.4 55.9 475.9 48.9 457.35 47.35 438.8 45.8 408.15 45.9 377.45 46 365.3 61 353.1 76 348.75 108.2 342.2 206.95 342.9 305.9 343.35 369.5 349.5 432.65 350.8 439.5 353.5 451.3 357.25 467.9 367.05 475.45 376 482.3 391.5 484.75 403.45 486.65 426.35 486.65 462.75 486.65 482.3 484.35 508.6 481.3 524.5 472.7 533.8 467.7 540.6 460.3 546.9 453.4 551.1 444.45 560.35 424.65 560.35 392.4 560.35 358.8 552 342 545.0908203125 328.1404296875 529.35 325.15 525.998046875 324.533203125 522.2 324.4 513.9 324.1 507.35 324.1 496.85 324.05 490.65 324.75 480.5 325.8 478.35 326.2 486.6 234.05 488 215.65 492.35 158.05 492.35 112.15
M 437.5 91.95
Q 433.85 93.2 428.8 93.9 426.5 94.55 422.25 95.25 418 95.9 412.6 99.15 407.15 102.35 402.5 109.35 397.85 116.35 396.7 117.8 393 122.4 388.75 123.65 388.55 123.7 388.3 123.75 381.8 123.75 377.2 119.2 372.55 114.65 372.55 108.2 372.7 102.85 375.55 96.1 379.25 87.35 384.4 81.8 391.7 74.1 403.5 70.45 412.8 67.6 421.95 67.6 431.05 67.55 436.15 69.25 441.2 70.95 444 74.55 446.75 78.15 445.85 82.65 444.95 87.15 443.05 88.9 441.15 90.65 437.5 91.95
M 474.7 433.1
Q 479.9 433.1 483.6 436.8 487.3 440.5 487.3 445.7 487.3 450.9 483.6 454.6 479.9 458.3 474.7 458.3 469.5 458.3 465.8 454.6 462.1 450.9 462.1 445.7 462.1 440.5 465.8 436.8 469.5 433.1 474.7 433.1
M 439.4 437.65
Q 443.1 438.1 445.4 439.1 447.65 440.05 449.1 441.6 450.55 443.1 451.7 445.5 452.85 447.85 452 450.9 451.1 453.95 449.95 455.8 448.95 457.4 446.85 458.8 444.2 460.55 440.5 461.65 437.8 462.4 433.5 463.05 417.6 465.4 406.8 462.85 401.55 461.6 397.75 459.5 395.75 458.45 392.05 455.85 382.8 449.1 378.3 442.4 375.15 437.75 373.6 432.65 367.9 418.95 380.7 412.35 381.1 412.15 381.6 412.05
L 388.3 413.4
Q 388.4 413.4 388.5 413.45 390.55 414.1 393.65 417.5 396.7 420.85 399 423.55 401.3 426.2 405.7 430.9 410.1 435.55 417 437 423.9 438.45 429.8 437.8 435.7 437.15 439.4 437.65 Z"/>

<path fill="url(#Gradient_3)" stroke="none" d="
M 705.65 62.75
Q 699.8 54.3 688.65 49.95 678.5 46 661.75 44.75 650.85 43.9 627.6 43.9 575.25 43.9 548.85 53.2 533.9484375 58.4525390625 524.15 67.75 514.4326171875 92.1826171875 516.1 128 516.93671875 236.2552734375 529.35 325.15 545.0908203125 328.1404296875 552 342 560.35 358.8 560.35 392.4 560.35 424.65 551.1 444.45 546.9 453.4 540.6 460.3 549.15 466.4 563.9 468.15 578.6 469.85 608.4 469.2 638.15 468.55 661.9 465.3 685.6 462.05 693.35 456.7 693.95 456.2 694.65 455.7 701.7 449.85 708.85 434 716.6 416.75 716.6 388.4 716.6 364.6 712.65 344.4 711.064453125 336.19765625 708.95 330.1 707.6412109375 326.193359375 706.1 323.15 700.6 312.4 692.6 312.4 690.65234375 312.4 682.95 313.6 679.3888671875 316.9189453125 674.3 320.4 668.15 324.55 662.05 327.3 656.05 330 653 330 646.35 330 642.05 325 638 320.35 638 314 638 306.55 642.25 300.45 642.85 299.55 645.85 295.7 646.5236328125 294.83828125 647.05 294.05 648.7341796875 285.8302734375 656 283.55 659.4 282.5 665.6 282.25 669.1 282.15 676.6 281.9 690.55 280.95 697.25 273.65 700.45 270.15 702.55 264.9 706.6 254.8 706.6 238.15 706.6 192.15 683.6 192.15 681.1 192.15 672.1 194.15 663.1 196.15 660.6 196.15 651 196.15 646.65 190.2 644.403125 187.12109375 643.4 182.2 642.6 178.2703125 642.6 173.15 642.6 154.9 653.55 150.15 657.6 148.4 664.75 147.8 668.85 147.45 677.6 146.95 693.95 145.4 701.65 136.05 708.5447265625 127.7384765625 711.1 111.7 712.6 102.2603515625 712.6 90.15 712.6 73.7 706.3 63.75 706 63.25 705.65 62.75
M 652.3 83.35
Q 652.3 88.8 648.45 92.7 644.55 96.55 639.1 96.55 633.65 96.55 629.8 92.7 625.9 88.8 625.9 83.35 625.9 77.9 629.8 74.05 633.65 70.15 639.1 70.15 644.55 70.15 648.45 74.05 652.3 77.9 652.3 83.35
M 691.75 216.95
Q 694.6 219.8 695.75 225.45 697.35 233.3 694.65 238.9 693.55 241.3 691.8 242.65 689.55 244.3 686.55 243.8 683.5 243.35 681.85 241.05 681.3 240.3 680.35 238.1 679.45 236.1 678.65 235.25 677.2 233.7 674.55 233.25 672.8 232.9 669.7 233
L 661.55 233.3
Q 658.75 233.4 657.35 233.35 655 233.25 653.2 232.75 648.35 231.3 646.95 227.55 646.5 226.35 646.4 224.3 646.4 220.15 648.3 218 649.55 216.55 652.6 215.35 658.65 212.9 665.35 212.15 673.85 211.1 682.5 212.8 688.85 214.15 691.75 216.95
M 681.05 364.75
Q 682.5 361.8 685.9 360.45 689.25 359.1 692.6 360 695.75 360.8 698.35 363.25 700.8 365.55 702.3 368.75 704.6 373.8 705.2 384.7 705.8 395.6 704.2 404.45 702.6 413.3 700.15 421.45 697.7 429.6 692.25 434.6 686.8 439.55 681.45 441.3 676.05 443.05 670.65 443.5 667.6 443.75 663.3 443.3 659.2 442.75 656.8 441.7 653.25 440.05 651.1 436.5 649 433 649.1 429.05 649.25 425.15 651.6 421.75 653.9 418.4 657.5 416.8 659 416.15 661.8 415.45 664.9 414.7 666.15 414.25 669.55 413 672.3 410.35 675.05 407.7 676.5 404.3 678.4 399.85 678.55 390.75 678.65 384.1 678.6 384.85
L 678.7 381.8
Q 678.9 372.35 679.65 369.3 680.35 366.25 681.05 364.75
M 582.6 96
Q 575.3 95.9 567.75 98.5 560.2 101.05 555.9 108.9 551.6 116.7 548.3 119.95 545 123.2 538.4 122 533.85 121.15 530.6 117.1 527.55 113.25 526.9 108.25 525.9 100.45 530.9 89.75 532.6 86.05 533.95 84.1 537 79.55 541.95 76.1 546.45 72.95 552.15 70.95 556.95 69.25 563.2 68.1 566.75 67.45 581.75 66.6 599.8 66.35 608.25 69.45 612.65 71.05 614.7 72.8 617.5 75.2 618.25 79.1 619 82.95 617.3 86.25 614.9 90.95 608.6 93.15 606.3 93.95 603.05 94.45 602.75 94.5 597.4 95.2 589.85 96.1 582.6 96 Z"/>

<path fill="url(#Gradient_4)" stroke="none" d="
M 866.45 77.4
Q 864.65 75.75 862.8 74.2 845 59.2 823.2 50.7 801.15 42.15 779.85 42.15 755.2 42.15 730.3 51.1 716.5 56.05 705.7 62.7
L 706.3 63.75
Q 712.6 73.7 712.6 90.15 712.6 102.2603515625 711.1 111.7 710.9884765625 130.7880859375 704.85 143.9 699.05 156.35 687.1 164.75 676.6 172.15 659.35 177.75 652.8740234375 179.8140625 643.4 182.2 644.403125 187.12109375 646.65 190.2 651 196.15 660.6 196.15 663.1 196.15 672.1 194.15 681.1 192.15 683.6 192.15 706.6 192.15 706.6 238.15 706.6 254.8 702.55 264.9 704.25 265.85 715.4 273.35 726.55 280.8 747.25 292.2 767.95 303.55 769.05 313.55 770.1 323.55 765.8 329.6 761.5 335.6 751.2 336.4 740.9 337.25 726.25 331.65 711.55 326.05 706.1 323.15 707.6412109375 326.193359375 708.95 330.1 720.8333984375 340.516796875 726.15 357.85 731.1 374.15 731.1 400.5 731.1 423.55 723.7 441.95 719.3453125 452.753515625 712.2 462.8 715.7640625 464.1416015625 719.65 465.55 755.85 478.65 776.85 478.65 830.3 478.65 860.9 454.15 861.85 453.4 862.8 452.6 896.85 423.85 896.85 366.4 896.85 358.284375 895.9 350.5 894.6234375 339.616796875 891.5 329.4 886.9 314.4 878.4 300.9 864.65 279 837.85 257.6 830.35 251.6 816.2 241.35 802.7 231.55 797.3 227.1 778.85 212 778.85 200.15 778.85 197.021484375 779.75 194.2 779.6779296875 193.876953125 778.45 190.65 777.2671875 187.4296875 783.15 180 789.0275390625 172.5775390625 800.25 167.65 811.4662109375 162.7251953125 824.85 162.85 838.2470703125 163.012109375 847.3 171.65 856.340625 180.33359375 855.1 191.45 853.8625 202.61796875 851.7 205.65 854.3125 206.15 856.85 206.15 875.2 206.15 888.95 190.2 902.85 174.1 902.85 152.15 902.85 147.3408203125 902.3 142.6 900.4291015625 125.4623046875 891.7 109.1 882.35 91.65 866.45 77.4
M 820.1 80.55
Q 817.75 85.35 811.05 87.15 808.6 87.75 805.35 88 804.6 88.05 799.55 88.25 786.4 88.75 773.7 92.35 760.9 95.95 749.6 102.45 745.95 104.6 745.6 104.75 743.3 106.05 741.45 106.75 736.45 108.7 732.4 107.45 729.25 106.5 727.05 103.65 724.9 100.95 724.35 97.5 723.4 91.05 727.65 84.7 730.7 80.15 737.2 75.25 751.25 64.8 768.2 60.65 785.65 56.4 802.3 59.7 811.9 61.65 816.6 66.1 819.6 68.95 820.65 72.9 821.75 77.1 820.1 80.55
M 878.9 324.45
Q 881.65 331.95 882.95 339.15 884.2 346.3 884.7 349.4 885.15 352.5 885.35 361.9 885.5 371.3 879.85 380.7 877.7 384.2 875.2 386.05 872.6 387.85 869.3 388.15 866.05 388.4 863.1 387.1 860.25 385.85 858.2 383.25 856.2 380.7 855.5 377.6 855.1 375.65 855.15 372.95 855.15 372.75 855.45 368.3 856.25 356.2 853.3 345.2 850.1 333.4 843.05 324.7 841.2 322.6 840.35 321.5 838.8 319.6 837.9 318 836.05 314.65 836 310.65 835.95 306.65 837.8 303.3 839.7 299.9 843.2 297.95 846.7 295.95 850.5 296.15 853.85 296.35 859.8 299.35 865.75 302.3 870.95 309.6 876.1 316.9 878.9 324.45
M 755.7 438.05
Q 759.9 433.85 765.8 433.85 771.7 433.85 775.9 438.05 780.1 442.25 780.1 448.2 780.1 454.15 775.9 458.35 771.7 462.55 765.8 462.55 759.9 462.55 755.7 458.35 751.5 454.15 751.5 448.2 751.5 442.25 755.7 438.05 Z"/>

<path fill="url(#Gradient_5)" stroke="none" d="
M 1035.2 76.15
Q 1018.2 62.15 997.5 54.2 976.35 46.15 955.85 46.15 922.6 46.15 899.3 55.85 881.5 63.25 866.45 77.4 882.35 91.65 891.7 109.1 900.4291015625 125.4623046875 902.3 142.6 902.3623046875 142.7451171875 902.4 142.9 906.1 158.1 906.1 169.5 906.1 192.25 893.2 210.05 883.5439453125 223.3791015625 870.1 229.1 871.3728515625 233.5431640625 872.8 238.8 876.35 250.75 880.1 257 886.05 266.8 893.55 274.8 899.2068359375 280.82890625 906.15 286.3 917.61640625 292.6595703125 924.1 296.9 934.65 303.8 939.7 313.25 944.75 322.7 942.8 330.05 940.85 337.35 929.45 340.05 918.05 342.7 891.5 329.4 894.6234375 339.616796875 895.9 350.5 899.022265625 359.233203125 900.6 368.2 903.1 382.45 903.1 407.5 903.1 434 895.45 458 893.0634765625 465.5138671875 890.3 471.2 916.3693359375 482.65 943.85 482.65 967.9 482.65 990.4 475.05 1013.5 467.25 1031.2 452.65 1049.9 437.25 1060.1 416.2 1071.1 393.55 1071.1 366.4 1071.1 329.25 1052.35 302.85 1038.8 283.75 1017.3 269.25 982.95 246.15 967.05 233 951.1 219.8 951.1 208.65 951.1 197.5 956.2 191.85 961.25 186.15 969.6 186.15 977.95 186.15 983.45 188.85 988.9 191.5 997.75 198.55 1006.6 205.55 1015.55 209.35 1024.5 213.15 1036.4 211.55 1048.25 209.9 1057.1 202.3 1065.9 194.7 1069.85 184.65 1073.8 174.55 1074.45 164.45 1075.05 154.35 1074.1 141.1 1073.1 127.85 1062.55 108.6 1052.7 90.6 1035.2 76.15
M 985.05 91.5
Q 981.55 93 974.65 93.3 958.6 94.05 954.75 94.45 943.6 95.7 935.75 99.25 934.5 99.85 932 101.1 929.55 102.4 928.25 102.95 924.5 104.7 920.25 105.8 914.3 107.4 909.95 106.45 906.55 105.65 903.85 103.3 901.15 100.95 899.95 97.7 898.7 94.5 899.2 90.9 899.65 87.35 901.7 84.55 902.55 83.35 904.35 81.65 910.3 75.95 918.95 71.8 921.9 70.35 925.35 69.05 947.85 60.25 971.5 63.6 977.2 64.15 982.35 66.85 992.05 71.7 993 78.75 993.55 82.65 991.15 86.35 988.85 89.9 985.05 91.5
M 1042.65 313
Q 1045.55 317.65 1046.55 319.45 1055.75 336.3 1054.95 361.55 1054.8 366.55 1054.15 370.05 1053.6 373.2 1052.2 376.95 1050.05 382.3 1046.7 385.25 1043.9 387.75 1040.1 388.65 1036.35 389.6 1032.75 388.65 1029.1 387.75 1026.2 385.15 1023.35 382.6 1022.6 378.65 1021.85 374.65 1022.05 365.95 1022.25 357.25 1019.65 347.35 1017 337.4 1016.3 335.45 1014.4 330.8 1011.4 325.55 1009.55 322.55 1008.85 320.65 1007.1 315.65 1009.3 309.8 1011.35 304.2 1016.05 301.05 1018.4 299.5 1021.2 298.85 1024 298.2 1026.75 298.7 1031.8 299.6 1036.15 304.15 1038.85 306.95 1042.65 313
M 1038.95 404.25
Q 1043.15 408.45 1043.15 414.4 1043.15 420.35 1038.95 424.55 1034.75 428.75 1028.85 428.75 1022.95 428.75 1018.75 424.55 1014.55 420.35 1014.55 414.4 1014.55 408.45 1018.75 404.25 1022.95 400.05 1028.85 400.05 1034.75 400.05 1038.95 404.25 Z"/>
</g>

<path id="Layer0_0_1_STROKES" stroke="#064270" stroke-width="3" stroke-linejoin="round" stroke-linecap="round" fill="none" d="
M 866.45 77.4
Q 881.5 63.25 899.3 55.85 922.6 46.15 955.85 46.15 976.35 46.15 997.5 54.2 1018.2 62.15 1035.2 76.15 1052.7 90.6 1062.55 108.6 1073.1 127.85 1074.1 141.1 1075.05 154.35 1074.45 164.45 1073.8 174.55 1069.85 184.65 1065.9 194.7 1057.1 202.3 1048.25 209.9 1036.4 211.55 1024.5 213.15 1015.55 209.35 1006.6 205.55 997.75 198.55 988.9 191.5 983.45 188.85 977.95 186.15 969.6 186.15 961.25 186.15 956.2 191.85 951.1 197.5 951.1 208.65 951.1 219.8 967.05 233 982.95 246.15 1017.3 269.25 1038.8 283.75 1052.35 302.85 1071.1 329.25 1071.1 366.4 1071.1 393.55 1060.1 416.2 1049.9 437.25 1031.2 452.65 1013.5 467.25 990.4 475.05 967.9 482.65 943.85 482.65 916.3693359375 482.65 890.325 471.225 888.7802734375 470.5623046875 887.25 469.85 873.4 463.4 860.9 454.15 830.3 478.65 776.85 478.65 755.85 478.65 719.65 465.55 715.7640625 464.1416015625 712.2 462.8 702.1158203125 458.989453125 694.65 455.7 693.95 456.2 693.35 456.7 685.6 462.05 661.9 465.3 638.15 468.55 608.4 469.2 578.6 469.85 563.9 468.15 549.15 466.4 540.6 460.3 533.8 467.7 524.5 472.7 508.6 481.3 482.3 484.35 462.75 486.65 426.35 486.65 403.45 486.65 391.5 484.75 376 482.3 367.05 475.45 357.25 467.9 353.5 451.3 350.8 439.5 349.5 432.65 343.35 369.5 342.9 305.9 342.2 206.95 348.75 108.2 353.1 76 365.3 61 377.45 46 408.15 45.9 438.8 45.8 457.35 47.35 475.9 48.9 482.4 55.9 488.7 62.65 490.8 76.6 492.35 87.25 492.35 112.15 492.35 158.05 488 215.65 486.6 234.05 478.35 326.2 480.5 325.8 490.65 324.75 496.85 324.05 507.35 324.1 503.95 301.75 503 283.05 502.35 271.05 502.35 229.15 501.4 165.15 502.2 141.25 503.45 102.8 512.4 84.1 516.8408203125 74.789453125 524.175 67.775 533.9484375 58.4525390625 548.85 53.2 575.25 43.9 627.6 43.9 650.85 43.9 661.75 44.75 678.5 46 688.65 49.95 699.8 54.3 705.65 62.75
L 705.7 62.7
Q 716.5 56.05 730.3 51.1 755.2 42.15 779.85 42.15 801.15 42.15 823.2 50.7 845 59.2 862.8 74.2 864.65 75.75 866.45 77.4 882.35 91.65 891.7 109.1 900.4291015625 125.4623046875 902.325 142.6
M 906.175 286.3
Q 917.61640625 292.6595703125 924.1 296.9 934.65 303.8 939.7 313.25 944.75 322.7 942.8 330.05 940.85 337.35 929.45 340.05 918.05 342.7 891.5 329.4 894.6234375 339.616796875 895.925 350.525
M 851.725 205.675
Q 846.7412109375 204.761328125 841.55 202.1 836.8 199.65 827.85 193.15 822.05 188.95 818 186.45 830.05 233.4 848.1 249.2 866.1 264.95 889.85 277.5 898.984765625 282.31796875 906.175 286.3
M 818 186.45
Q 815.8 185.05 814.15 184.2 806.25 180.15 798.85 180.15 790.8 180.15 784.8 186.1 781.1625 189.7681640625 779.75 194.2 778.85 197.021484375 778.85 200.15 778.85 212 797.3 227.1 802.7 231.55 816.2 241.35 830.35 251.6 837.85 257.6 864.65 279 878.4 300.9 886.9 314.4 891.5 329.4
M 851.725 205.675
Q 854.3125 206.15 856.85 206.15 875.2 206.15 888.95 190.2 902.85 174.1 902.85 152.15 902.85 147.3408203125 902.325 142.6
M 705.65 62.75
Q 706 63.25 706.3 63.75 712.6 73.7 712.6 90.15 712.6 102.2603515625 711.1 111.7
M 643.4 182.2
Q 644.403125 187.12109375 646.65 190.2 651 196.15 660.6 196.15 663.1 196.15 672.1 194.15 681.1 192.15 683.6 192.15 706.6 192.15 706.6 238.15 706.6 254.8 702.55 264.9 704.25 265.85 715.4 273.35 726.55 280.8 747.25 292.2 767.95 303.55 769.05 313.55 770.1 323.55 765.8 329.6 761.5 335.6 751.2 336.4 740.9 337.25 726.25 331.65 711.55 326.05 706.1 323.15 707.6412109375 326.193359375 708.975 330.1
M 711.1 111.7
Q 708.5447265625 127.7384765625 701.65 136.05 693.95 145.4 677.6 146.95 668.85 147.45 664.75 147.8 657.6 148.4 653.55 150.15 642.6 154.9 642.6 173.15 642.6 178.2703125 643.4 182.2
M 702.55 264.9
Q 700.45 270.15 697.25 273.65 690.55 280.95 676.6 281.9 669.1 282.15 665.6 282.25 659.4 282.5 656 283.55 648.7341796875 285.8302734375 647.075 294.05 646.6 296.4712890625 646.6 299.4 646.6 308.55 650.6 312.5 654.55 316.4 663.6 316.4 666.1 316.4 678.1 314.4 680.7513671875 313.958203125 682.95 313.625 690.65234375 312.4 692.6 312.4 700.6 312.4 706.1 323.15
M 708.975 330.1
Q 711.064453125 336.19765625 712.65 344.4 716.6 364.6 716.6 388.4 716.6 416.75 708.85 434 701.7 449.85 694.65 455.7
M 895.925 350.525
Q 896.85 358.284375 896.85 366.4 896.85 423.85 862.8 452.6 861.85 453.4 860.9 454.15
M 540.6 460.3
Q 546.9 453.4 551.1 444.45 560.35 424.65 560.35 392.4 560.35 358.8 552 342 545.0908203125 328.1404296875 529.375 325.175 525.998046875 324.533203125 522.2 324.4 513.9 324.1 507.35 324.1
M 265.725 210.825
Q 271.1654296875 211.4294921875 278.95 210.9 293.6 209.9 305.6 194.9 317.6 179.85 317.6 158.9 317.6 138.7 310.75 122.75 303.9 106.75 290.05 90.3 276.2 73.85 261 65.65 245.75 57.4 233.7 53.25 203.2 44.65 175.65 49.8 124.3 59.6 93.3 100.6 69.8 131.6 65 169.95 64.35 179.7 65.6 189.45 69.45 219.05 83.65 237.1 97.85 255.15 127.6 273.4 135.6 278.3 151.1 287.45 164.3 295.35 171.6 300.75 191.6 315.45 192.5 326.2 193.4 336.95 187.15 342.3 180.85 347.6 169.65 346.75 158.45 345.9 152 342.25 145.5 338.6 136.7 330.9 127.9 323.2 115.55 320.3 103.2 317.4 88.8 319.3 74.35 321.2 60.25 340.95 46.15 360.65 49.6 388.75 53.05 416.85 63.4 431.95 73.7 447 95.4 460.4 117.05 473.8 144.1 480.1 168.9 485.9 192.6 485.9 217.2 485.9 239.15 477.65 261.15 469.4 277.65 453.95 294.7 437.95 303.9 416.2 313.6 393.2 313.6 365.9 313.6 329.65 295.15 302.75 281.75 283.2 254.6 264.55 250.25 261.6 232.95 250.4 220.45 242.35 214.05 237.25 195.6 222.55 195.6 206.9 195.6 200.3900390625 198.2 195.975 198.2875 195.8375 198.375 195.7
M 265.725 210.825
Q 260.8873046875 210.311328125 257.9 208.9 251.55 205.9 242.6 199.9 233.65 193.9 228.9 191.65 221 187.9 213.6 187.9 206.45 187.9 201.6 191.95 199.673828125 193.5712890625 198.375 195.7"/>
</defs>

<g transform="matrix( 1, 0, 0, 1, 0,0) ">
<use xlink:href="#Layer0_0_FILL"/>

<use xlink:href="#Layer0_0_1_STROKES"/>
</g>
</svg>
