
<svg xmlns="http://www.w3.org/2000/svg" version="1.1" xmlns:xlink="http://www.w3.org/1999/xlink" preserveAspectRatio="none" x="0px" y="0px" width="1676px" height="527px" viewBox="0 0 1676 527">
<defs>
<linearGradient id="Gradient_1" gradientUnits="userSpaceOnUse" x1="1272.575" y1="116.0625" x2="1243.825" y2="296.4375" spreadMethod="pad">
<stop  offset="26.666666666666668%" stop-color="#0090F8"/>

<stop  offset="100%" stop-color="#59A7F5"/>
</linearGradient>

<linearGradient id="Gradient_2" gradientUnits="userSpaceOnUse" x1="1369.3125" y1="408.8375" x2="1372.0875" y2="250.5625" spreadMethod="pad">
<stop  offset="26.666666666666668%" stop-color="#0090F8"/>

<stop  offset="100%" stop-color="#59A7F5"/>
</linearGradient>

<linearGradient id="Gradient_3" gradientUnits="userSpaceOnUse" x1="1375.875" y1="132.02499999999998" x2="1371.525" y2="222.875" spreadMethod="pad">
<stop  offset="26.666666666666668%" stop-color="#53D5FD"/>

<stop  offset="100%" stop-color="#AAEAFD"/>
</linearGradient>

<linearGradient id="Gradient_4" gradientUnits="userSpaceOnUse" x1="1312.1374999999998" y1="76.85" x2="1270.0625" y2="241.85" spreadMethod="pad">
<stop  offset="26.666666666666668%" stop-color="#53D5FD"/>

<stop  offset="100%" stop-color="#AAEAFD"/>
</linearGradient>

<linearGradient id="Gradient_5" gradientUnits="userSpaceOnUse" x1="1467.2875000000001" y1="115.33749999999999" x2="1463.0125" y2="253.8625" spreadMethod="pad">
<stop  offset="26.666666666666668%" stop-color="#53D5FD"/>

<stop  offset="100%" stop-color="#AAEAFD"/>
</linearGradient>

<linearGradient id="Gradient_6" gradientUnits="userSpaceOnUse" x1="1510.2749999999999" y1="94.79999999999998" x2="1503.825" y2="377.70000000000005" spreadMethod="pad">
<stop  offset="26.666666666666668%" stop-color="#0090F8"/>

<stop  offset="100%" stop-color="#59A7F5"/>
</linearGradient>

<linearGradient id="Gradient_7" gradientUnits="userSpaceOnUse" x1="172.4125" y1="437.85" x2="211.48749999999998" y2="53.25" spreadMethod="pad">
<stop  offset="26.666666666666668%" stop-color="#0090F8"/>

<stop  offset="100%" stop-color="#59A7F5"/>
</linearGradient>

<linearGradient id="Gradient_8" gradientUnits="userSpaceOnUse" x1="450.71250000000003" y1="353.875" x2="457.8875" y2="89.52499999999998" spreadMethod="pad">
<stop  offset="26.666666666666668%" stop-color="#0090F8"/>

<stop  offset="100%" stop-color="#59A7F5"/>
</linearGradient>

<linearGradient id="Gradient_9" gradientUnits="userSpaceOnUse" x1="609.2" y1="388.6" x2="609.2" y2="88.19999999999999" spreadMethod="pad">
<stop  offset="26.666666666666668%" stop-color="#0090F8"/>

<stop  offset="100%" stop-color="#59A7F5"/>
</linearGradient>

<linearGradient id="Gradient_10" gradientUnits="userSpaceOnUse" x1="772.7" y1="388.6" x2="772.7" y2="88.19999999999999" spreadMethod="pad">
<stop  offset="26.666666666666668%" stop-color="#0090F8"/>

<stop  offset="100%" stop-color="#59A7F5"/>
</linearGradient>

<linearGradient id="Gradient_11" gradientUnits="userSpaceOnUse" x1="941.0625" y1="408.4375" x2="949.0374999999999" y2="103.96249999999998" spreadMethod="pad">
<stop  offset="26.666666666666668%" stop-color="#0090F8"/>

<stop  offset="100%" stop-color="#59A7F5"/>
</linearGradient>

<linearGradient id="Gradient_12" gradientUnits="userSpaceOnUse" x1="924.3875" y1="261.4625" x2="544.3125" y2="264.9375" spreadMethod="pad">
<stop  offset="1.9607843137254901%" stop-color="#0090F8"/>

<stop  offset="100%" stop-color="#53D5FD"/>
</linearGradient>

<linearGradient id="Gradient_13" gradientUnits="userSpaceOnUse" x1="924.3875" y1="261.4625" x2="544.3125" y2="264.9375" spreadMethod="pad">
<stop  offset="1.9607843137254901%" stop-color="#ACDEF3"/>

<stop  offset="100%" stop-color="#CDEBF7"/>
</linearGradient>

<g id="Layer1_0_FILL">
<path fill="url(#Gradient_1)" stroke="none" d="
M 1348.8 435.3
Q 1343.85 432.9 1337.95 429.15 1331.25 424.95 1328.05 423.3 1322.45 420.4 1317.5 419.3
L 1307.85 419.3
Q 1287.5 452.85 1249.45 439.85 1218.75 429.35 1193.75 388.05 1174.75 358.8 1169.4 324.55 1167.25 310.85 1166.1 297.05 1162.45 240.5 1183.5 185 1188.15 174.1 1193.05 164.2 1208.1 133.5 1231.55 108.55 1240.2 99.4 1248.5 89.9
L 1250.1 88.05
Q 1262.5 70.25 1251 58.55 1234.95 42.2 1200.8 72.9 1147.05 121.25 1127.15 216.5 1105.25 313.7 1141.05 395.85 1157.55 426.95 1179.15 447.85 1196.45 465.1 1218.3 474.85 1227.85 479.1 1238.35 481.95 1249.55 485.05 1261.1 486 1288.9 488.25 1311.25 474.85 1332.5 462.1 1348.8 435.3
M 1332.7 437.9
Q 1333 437.2 1333.7 436.95 1334.45 436.7 1335.15 437.1 1335.8 437.4 1336.05 438.1 1336.25 438.85 1335.95 439.55 1332.75 445.9 1326.75 452.2 1321.75 457.45 1315.6 461.8 1314.95 462.2 1314.25 462.05 1313.45 461.9 1313.05 461.35 1312.6 460.7 1312.75 460 1312.9 459.2 1313.5 458.8 1319.3 454.7 1324.1 449.65 1329.7 443.75 1332.7 437.9
M 1302.4 467.25
Q 1302.4 466.3 1303.05 465.65 1303.65 465 1304.6 465 1305.5 465 1306.15 465.65 1306.75 466.3 1306.75 467.25 1306.75 468.15 1306.15 468.8 1305.5 469.45 1304.6 469.45 1303.65 469.45 1303.05 468.8 1302.4 468.15 1302.4 467.25
M 1241.8 60.05
Q 1242.2 60.7 1242 61.45 1241.8 62.15 1241.1 62.5 1240.45 62.95 1239.75 62.75 1237.5 62.1 1235.65 62.35 1233.5 62.55 1229.1 64 1224.7 65.4 1216.6 71.1 1208.3 76.9 1200.95 84.9 1200.45 85.45 1199.65 85.45 1198.9 85.5 1198.35 85 1197.8 84.5 1197.75 83.7 1197.7 82.95 1198.25 82.4 1205.9 74.15 1214.5 68.1 1223.2 61.95 1228 60.5 1232.85 58.95 1235.25 58.7 1237.7 58.4 1240.7 59.2 1241.4 59.4 1241.8 60.05
M 1244.85 66.45
Q 1244.1 65.7 1244.1 64.65 1244.1 63.6 1244.85 62.85 1245.6 62.1 1246.65 62.1 1247.7 62.1 1248.45 62.85 1249.15 63.6 1249.15 64.65 1249.15 65.7 1248.45 66.45 1247.7 67.15 1246.65 67.15 1245.6 67.15 1244.85 66.45
M 1176.35 431.5
Q 1176.3 432.2 1175.75 432.7 1175.15 433.25 1174.45 433.2 1173.65 433.15 1173.15 432.6 1172.45 431.75 1171.75 430.95
L 1171.7 430.95
Q 1165.05 423.3 1156.35 410 1155.95 409.35 1156.05 408.6 1156.2 407.85 1156.9 407.45 1157.5 407.05 1158.25 407.2 1159 407.3 1159.4 408 1167.95 421.05 1174.5 428.55
L 1174.5 428.6
Q 1175.15 429.35 1175.85 430.15 1176.4 430.7 1176.35 431.5
M 1182.65 437.95
Q 1183.4 437.95 1183.95 438.45 1188.35 442.7 1193.45 447.2 1194.05 447.7 1194.1 448.45 1194.15 449.2 1193.65 449.75 1193.15 450.35 1192.4 450.4 1191.65 450.45 1191.05 449.95 1185.85 445.4 1181.4 441.1 1180.85 440.6 1180.85 439.8 1180.85 439.05 1181.35 438.55 1181.85 437.95 1182.65 437.95 Z"/>

<path fill="#8DCFF3" stroke="none" d="
M 1183.95 438.45
Q 1183.4 437.95 1182.65 437.95 1181.85 437.95 1181.35 438.55 1180.85 439.05 1180.85 439.8 1180.85 440.6 1181.4 441.1 1185.85 445.4 1191.05 449.95 1191.65 450.45 1192.4 450.4 1193.15 450.35 1193.65 449.75 1194.15 449.2 1194.1 448.45 1194.05 447.7 1193.45 447.2 1188.35 442.7 1183.95 438.45
M 1175.75 432.7
Q 1176.3 432.2 1176.35 431.5 1176.4 430.7 1175.85 430.15 1175.15 429.35 1174.5 428.6
L 1174.5 428.55
Q 1167.95 421.05 1159.4 408 1159 407.3 1158.25 407.2 1157.5 407.05 1156.9 407.45 1156.2 407.85 1156.05 408.6 1155.95 409.35 1156.35 410 1165.05 423.3 1171.7 430.95
L 1171.75 430.95
Q 1172.45 431.75 1173.15 432.6 1173.65 433.15 1174.45 433.2 1175.15 433.25 1175.75 432.7
M 1244.1 64.65
Q 1244.1 65.7 1244.85 66.45 1245.6 67.15 1246.65 67.15 1247.7 67.15 1248.45 66.45 1249.15 65.7 1249.15 64.65 1249.15 63.6 1248.45 62.85 1247.7 62.1 1246.65 62.1 1245.6 62.1 1244.85 62.85 1244.1 63.6 1244.1 64.65
M 1242 61.45
Q 1242.2 60.7 1241.8 60.05 1241.4 59.4 1240.7 59.2 1237.7 58.4 1235.25 58.7 1232.85 58.95 1228 60.5 1223.2 61.95 1214.5 68.1 1205.9 74.15 1198.25 82.4 1197.7 82.95 1197.75 83.7 1197.8 84.5 1198.35 85 1198.9 85.5 1199.65 85.45 1200.45 85.45 1200.95 84.9 1208.3 76.9 1216.6 71.1 1224.7 65.4 1229.1 64 1233.5 62.55 1235.65 62.35 1237.5 62.1 1239.75 62.75 1240.45 62.95 1241.1 62.5 1241.8 62.15 1242 61.45
M 1303.05 465.65
Q 1302.4 466.3 1302.4 467.25 1302.4 468.15 1303.05 468.8 1303.65 469.45 1304.6 469.45 1305.5 469.45 1306.15 468.8 1306.75 468.15 1306.75 467.25 1306.75 466.3 1306.15 465.65 1305.5 465 1304.6 465 1303.65 465 1303.05 465.65
M 1333.7 436.95
Q 1333 437.2 1332.7 437.9 1329.7 443.75 1324.1 449.65 1319.3 454.7 1313.5 458.8 1312.9 459.2 1312.75 460 1312.6 460.7 1313.05 461.35 1313.45 461.9 1314.25 462.05 1314.95 462.2 1315.6 461.8 1321.75 457.45 1326.75 452.2 1332.75 445.9 1335.95 439.55 1336.25 438.85 1336.05 438.1 1335.8 437.4 1335.15 437.1 1334.45 436.7 1333.7 436.95
M 1433.95 404.8
Q 1429.05 404.45 1423.4 406 1419 407.2 1413.35 409.85 1401.65 415.8 1395.7 418.5 1385.3 423.35 1377.25 424.7 1375.2 425 1374.2 425.2 1372.4 425.5 1371.1 425.85 1372.55 426.55 1375.3 426.55 1379.8 426.5 1385.05 424.9 1388.7 423.75 1394.3 421.25 1400.25 418.65 1409.4 414.3 1417.3 410.55 1421.3 409.1 1428.05 406.65 1433.75 406.4 1434.3 406.4 1434.7 406.25 1435.2 406 1435.2 405.55 1435.15 404.85 1433.95 404.8
M 1445.45 285.55
Q 1444.55 286.45 1444.55 287.75 1444.55 289.05 1445.45 289.95 1446.35 290.9 1447.65 290.9 1448.95 290.9 1449.85 289.95 1450.75 289.05 1450.75 287.75 1450.75 286.45 1449.85 285.55 1448.95 284.65 1447.65 284.65 1446.35 284.65 1445.45 285.55
M 1409.9 255.8
Q 1409.2 255.55 1408.55 255.95 1407.85 256.3 1407.65 257.05 1407.4 257.7 1407.75 258.4 1408.15 259.1 1408.85 259.3 1415.95 261.4 1424.05 266.3
L 1424.1 266.3
Q 1432.2 271.15 1440.1 280.25 1440.6 280.85 1441.35 280.9 1442.1 280.9 1442.7 280.45 1443.25 279.95 1443.3 279.2 1443.4 278.45 1442.85 277.85 1434.5 268.25 1425.95 263.15 1417.4 258 1409.9 255.8
M 1388.95 182.9
Q 1388.4 182.4 1387.65 182.45 1386.9 182.5 1386.35 183.05 1385.85 183.6 1385.9 184.4 1385.95 185.1 1386.5 185.65 1387.45 186.6 1388.1 189.05
L 1388.1 189.1
Q 1388.8 191.7 1388.8 194.15 1388.8 196.9 1386.85 200.3 1385.1 203.35 1383.3 204.8 1382.7 205.25 1382.65 206 1382.5 206.8 1383 207.35 1383.45 207.95 1384.2 208.05 1384.95 208.15 1385.55 207.7 1387.85 205.9 1390 202.15 1392.5 197.7 1392.5 194.15 1392.5 191.25 1391.6 188.1
L 1391.65 188.1
Q 1390.55 184.3 1388.95 182.9
M 1293.4 116.75
Q 1293.4 115.9 1292.8 115.35 1292.15 114.7 1291.35 114.7 1290.5 114.7 1289.9 115.35 1289.3 115.9 1289.3 116.75 1289.3 117.6 1289.9 118.2 1290.5 118.8 1291.35 118.8 1292.15 118.8 1292.8 118.2 1293.4 117.6 1293.4 116.75
M 1285.45 117.7
Q 1284.7 117.6 1284.1 118.1 1277.7 123.05 1273.7 130.25 1269.45 137.75 1269.5 144.75 1269.5 145.25 1269.7 146.6 1269.85 147.55 1269.85 148.05 1269.85 148.8 1270.4 149.35 1270.9 149.9 1271.7 149.9 1272.45 149.9 1273 149.35 1273.5 148.8 1273.5 148.05 1273.5 147.35 1273.3 146.05 1273.15 145.1 1273.15 144.75 1273.2 138.6 1276.85 132 1280.5 125.45 1286.35 120.95 1286.95 120.5 1287.05 119.7 1287.1 119 1286.7 118.4 1286.2 117.8 1285.45 117.7
M 1446.25 96.1
Q 1446.75 96.6 1447.5 96.6 1448.3 96.6 1448.85 96.1 1449.35 95.55 1449.35 94.75 1449.35 94 1448.85 93.5 1448.3 92.95 1447.5 92.95 1446.75 92.95 1446.25 93.5 1445.7 94 1445.7 94.75 1445.7 95.55 1446.25 96.1
M 1440.65 97.85
Q 1441.35 97.6 1441.7 96.9 1442.05 96.25 1441.8 95.5 1441.55 94.8 1440.9 94.45 1440.2 94.1 1439.45 94.35 1435.85 95.5 1431.5 99.65 1427.25 103.65 1424.15 109.5 1423.8 110.15 1424.05 110.9 1424.25 111.65 1424.95 111.95 1425.6 112.35 1426.35 112.1 1427 111.9 1427.4 111.25 1430.15 105.95 1434 102.35 1437.65 98.85 1440.65 97.85
M 1439.65 468.75
Q 1439.65 467.8 1439 467.1 1438.3 466.4 1437.3 466.4 1436.3 466.4 1435.65 467.1 1434.95 467.8 1434.95 468.75 1434.95 469.75 1435.65 470.45 1436.3 471.15 1437.3 471.15 1438.3 471.15 1439 470.45 1439.65 469.75 1439.65 468.75
M 1404.95 439.25
Q 1404.75 439.95 1405.15 440.65 1410.65 449.95 1414.85 454.4 1419.05 458.75 1427.65 464.65 1428.25 465.05 1429 464.9 1429.75 464.8 1430.15 464.15 1430.6 463.55 1430.45 462.8 1430.3 462.05 1429.75 461.65 1421.55 456.05 1417.5 451.85 1413.5 447.6 1408.3 438.8 1407.9 438.15 1407.2 437.95 1406.45 437.75 1405.8 438.15 1405.15 438.55 1404.95 439.25
M 1585.5 406.2
Q 1585.9 405.5 1585.65 404.8 1585.45 404.05 1584.8 403.7 1584.1 403.35 1583.4 403.55 1582.65 403.75 1582.3 404.45 1575.8 416.35 1569.05 425.25 1562.15 434.2 1553.4 442.1 1552.85 442.6 1552.8 443.35 1552.75 444.1 1553.3 444.7 1553.8 445.25 1554.55 445.25 1555.3 445.3 1555.85 444.8 1564.85 436.7 1571.95 427.5 1578.9 418.4 1585.5 406.2
M 1490.35 65.3
Q 1489.75 65.9 1489.75 66.75 1489.75 67.65 1490.35 68.25 1490.95 68.85 1491.8 68.85 1492.65 68.85 1493.25 68.25 1493.85 67.65 1493.85 66.75 1493.85 65.9 1493.25 65.3 1492.65 64.7 1491.8 64.7 1490.95 64.7 1490.35 65.3
M 1495.25 59.4
Q 1494.6 59.8 1494.45 60.6 1494.3 61.3 1494.7 61.95 1495.15 62.6 1495.9 62.75 1496.65 62.9 1497.25 62.5 1499.15 61.25 1501.05 61 1503.05 60.75 1505.55 61.15 1508.1 61.55 1512.8 63.6 1517.6 65.8 1526.9 72.5 1527.5 72.95 1528.25 72.85 1529 72.7 1529.45 72.1 1529.9 71.5 1529.8 70.7 1529.65 70 1529.05 69.55 1519.35 62.5 1514.3 60.3 1509.05 57.95 1506.15 57.5 1503.05 57 1500.6 57.35
L 1500.55 57.35
Q 1497.9 57.75 1495.25 59.4"/>

<path fill="#126AAA" stroke="none" d="
M 1348.8 435.3
Q 1351 431.65 1353.05 427.8 1344.9 425.05 1334.6 420.2 1322.3 414.4 1320.05 413.45 1316.2 411.7 1312.25 411 1310.15 415.45 1307.85 419.3
L 1317.5 419.3
Q 1322.45 420.4 1328.05 423.3 1331.25 424.95 1337.95 429.15 1343.85 432.9 1348.8 435.3
M 1427.95 410.65
Q 1424 411.4 1420.2 413.1 1417.95 414.1 1405.65 419.9 1395.35 424.7 1387.15 427.5 1388.7 430.3 1390.3 433 1395.6 431.85 1401 429.6 1403.65 428.5 1415.75 422.35 1424.3 417.95 1430.85 416.2 1429.35 413.55 1427.95 410.65 Z"/>

<path fill="#53D5FD" stroke="none" d="
M 1365.75 238.5
L 1364.95 238.75 1365.25 238.75
Q 1365.49375 238.69375 1365.8 238.65 1365.75 238.6 1365.75 238.5 Z"/>

<path fill="url(#Gradient_2)" stroke="none" d="
M 1452.8 269.3
Q 1426.5 246.8 1392.35 240.25 1384.6 238.8 1376.9 238.5 1376.4 238.45 1375.95 238.45 1370.2 238.6 1365.8 238.7 1365.49375 238.7 1365.25 238.75
L 1364.95 238.75
Q 1356.7 238.95 1348.4 240.5 1348.1 240.5 1347.85 240.55 1313.7 247.1 1287.45 269.65 1279.9 276.35 1273.7 284.05 1268.7 290.15 1264.55 296.9 1261.1 302.45 1258.25 308.4 1245.7 334.8 1245.7 366.9 1245.7 387.8 1253 400.9 1261.15 415.55 1276.05 415.55 1282.05 415.55 1291.45 413 1300.95 410.45 1306.45 410.45 1309.35 410.45 1312.25 411 1316.2 411.7 1320.05 413.45 1322.3 414.4 1334.6 420.2 1344.9 425.05 1353.05 427.8 1354.6 428.3 1356.05 428.75 1363.8 431.1 1373.1 430.55 1376.4 430.8 1384.15 428.45 1385.65 427.95 1387.15 427.5 1395.35 424.7 1405.65 419.9 1417.95 414.1 1420.2 413.1 1424 411.4 1427.95 410.65 1430.85 410.1 1433.8 410.1 1439.3 410.1 1448.75 412.65 1450.15 413.05 1451.45 413.35 1459.1 415.25 1464.15 415.25 1479.05 415.25 1487.2 400.6 1494.55 387.45 1494.55 366.55 1494.55 348.6 1490.6 332.4 1489.1 326.3 1487.1 320.5 1486.25 318.05 1485.3 315.75 1484.35 313.3 1483.35 310.95 1482.7 309.5 1482 308.1 1471.4 285.95 1452.8 269.3
M 1408.55 255.95
Q 1409.2 255.55 1409.9 255.8 1417.4 258 1425.95 263.15 1434.5 268.25 1442.85 277.85 1443.4 278.45 1443.3 279.2 1443.25 279.95 1442.7 280.45 1442.1 280.9 1441.35 280.9 1440.6 280.85 1440.1 280.25 1432.2 271.15 1424.1 266.3
L 1424.05 266.3
Q 1415.95 261.4 1408.85 259.3 1408.15 259.1 1407.75 258.4 1407.4 257.7 1407.65 257.05 1407.85 256.3 1408.55 255.95
M 1444.55 287.75
Q 1444.55 286.45 1445.45 285.55 1446.35 284.65 1447.65 284.65 1448.95 284.65 1449.85 285.55 1450.75 286.45 1450.75 287.75 1450.75 289.05 1449.85 289.95 1448.95 290.9 1447.65 290.9 1446.35 290.9 1445.45 289.95 1444.55 289.05 1444.55 287.75
M 1338.55 305.1
Q 1345.6 305.1 1350.6 311 1355.6 316.95 1355.6 325.4 1355.6 333.8 1350.6 339.75 1345.6 345.7 1338.55 345.7 1331.45 345.7 1326.45 339.75 1321.5 333.8 1321.5 325.4 1321.5 321.6 1322.5 318.3 1317.65 318.3 1314.15 310.2 1317.65 318.3 1322.5 318.3 1323.4 315.3 1325.2 312.75 1320.55 311.45 1318.9 305.8 1320.55 311.45 1325.2 312.75 1325.75 311.85 1326.45 311 1331.45 305.1 1338.55 305.1
M 1345.65 365.85
Q 1350.45 380.35 1363.95 383.4 1369.5 384.55 1375.1 383.4 1389.45 379.45 1392.7 364.6 1389.45 379.45 1375.1 383.4 1369.5 384.55 1363.95 383.4 1350.45 380.35 1345.65 365.85
M 1426.05 309.85
Q 1422.6 317.95 1417.75 317.95 1418.75 321.25 1418.75 325.05 1418.75 333.45 1413.8 339.4 1408.75 345.35 1401.7 345.35 1394.65 345.35 1389.65 339.4 1384.65 333.45 1384.65 325.05 1384.65 316.65 1389.65 310.7 1394.65 304.75 1401.7 304.75 1408.75 304.75 1413.8 310.7 1414.45 311.5 1415.05 312.4 1419.65 311.1 1421.3 305.5 1419.65 311.1 1415.05 312.4 1416.8 314.95 1417.75 317.95 1422.6 317.95 1426.05 309.85
M 1423.4 406
Q 1429.05 404.45 1433.95 404.8 1435.15 404.85 1435.2 405.55 1435.2 406 1434.7 406.25 1434.3 406.4 1433.75 406.4 1428.05 406.65 1421.3 409.1 1417.3 410.55 1409.4 414.3 1400.25 418.65 1394.3 421.25 1388.7 423.75 1385.05 424.9 1379.8 426.5 1375.3 426.55 1372.55 426.55 1371.1 425.85 1372.4 425.5 1374.2 425.2 1375.2 425 1377.25 424.7 1385.3 423.35 1395.7 418.5 1401.65 415.8 1413.35 409.85 1419 407.2 1423.4 406 Z"/>

<path fill="#000000" stroke="none" d="
M 1418.75 325.05
Q 1418.75 321.25 1417.75 317.95 1416.8 314.95 1415.05 312.4 1414.45 311.5 1413.8 310.7 1408.75 304.75 1401.7 304.75 1394.65 304.75 1389.65 310.7 1384.65 316.65 1384.65 325.05 1384.65 333.45 1389.65 339.4 1394.65 345.35 1401.7 345.35 1408.75 345.35 1413.8 339.4 1418.75 333.45 1418.75 325.05
M 1399.15 310.6
Q 1402.3 310.6 1404.5 312.8 1406.7 315 1406.7 318.1 1406.7 321.2 1404.5 323.4 1402.3 325.6 1399.15 325.6 1396.05 325.6 1393.85 323.4 1391.65 321.2 1391.65 318.1 1391.65 315 1393.85 312.8 1396.05 310.6 1399.15 310.6
M 1350.6 311
Q 1345.6 305.1 1338.55 305.1 1331.45 305.1 1326.45 311 1325.75 311.85 1325.2 312.75 1323.4 315.3 1322.5 318.3 1321.5 321.6 1321.5 325.4 1321.5 333.8 1326.45 339.75 1331.45 345.7 1338.55 345.7 1345.6 345.7 1350.6 339.75 1355.6 333.8 1355.6 325.4 1355.6 316.95 1350.6 311
M 1348.55 318.45
Q 1348.55 321.55 1346.35 323.75 1344.15 325.95 1341.05 325.95 1337.95 325.95 1335.75 323.75 1333.55 321.55 1333.55 318.45 1333.55 315.3 1335.75 313.15 1337.95 310.95 1341.05 310.95 1344.15 310.95 1346.35 313.15 1348.55 315.3 1348.55 318.45 Z"/>

<path fill="#FFFFFF" stroke="none" d="
M 1404.5 312.8
Q 1402.3 310.6 1399.15 310.6 1396.05 310.6 1393.85 312.8 1391.65 315 1391.65 318.1 1391.65 321.2 1393.85 323.4 1396.05 325.6 1399.15 325.6 1402.3 325.6 1404.5 323.4 1406.7 321.2 1406.7 318.1 1406.7 315 1404.5 312.8
M 1346.35 323.75
Q 1348.55 321.55 1348.55 318.45 1348.55 315.3 1346.35 313.15 1344.15 310.95 1341.05 310.95 1337.95 310.95 1335.75 313.15 1333.55 315.3 1333.55 318.45 1333.55 321.55 1335.75 323.75 1337.95 325.95 1341.05 325.95 1344.15 325.95 1346.35 323.75 Z"/>

<path fill="url(#Gradient_3)" stroke="none" d="
M 1373.65 164.45
Q 1369.4 159.35 1369.4 154.25 1369.4 150.4 1372.6 147.3 1374.35 145.55 1379.65 142.3 1384.65 139.2 1386.7 137 1389.9 133.5 1389.9 129 1389.9 124.8 1386.2 122.1 1383.15 119.85 1380 119.85 1369.1 119.85 1360.6 129.4 1352.55 138.45 1352.55 148.8 1352.55 156.2 1356.45 162.85 1359.05 167.4 1365 173.55 1371.85 180.7 1373.55 183.05 1377.45 188.35 1377.45 193.45 1377.45 200.3 1372.75 205.05 1370.25 207.55 1362.45 212.25 1355.15 216.65 1352.1 220.3 1347.45 225.95 1347.45 234.4 1347.45 237.5 1348.4 240.5 1356.7 238.95 1364.95 238.75
L 1365.75 238.5
Q 1365 235.45 1365 234.4 1365 228.65 1369.9 223.75 1372.5 221.15 1380.75 215.55 1388.35 210.4 1391.55 206.65 1396.45 200.9 1396.45 193.8 1396.45 187.9 1392.2 182.35 1389.55 178.85 1382.95 173.2 1375.95 167.25 1373.65 164.45
M 1387.65 182.45
Q 1388.4 182.4 1388.95 182.9 1390.55 184.3 1391.65 188.1
L 1391.6 188.1
Q 1392.5 191.25 1392.5 194.15 1392.5 197.7 1390 202.15 1387.85 205.9 1385.55 207.7 1384.95 208.15 1384.2 208.05 1383.45 207.95 1383 207.35 1382.5 206.8 1382.65 206 1382.7 205.25 1383.3 204.8 1385.1 203.35 1386.85 200.3 1388.8 196.9 1388.8 194.15 1388.8 191.7 1388.1 189.1
L 1388.1 189.05
Q 1387.45 186.6 1386.5 185.65 1385.95 185.1 1385.9 184.4 1385.85 183.6 1386.35 183.05 1386.9 182.5 1387.65 182.45 Z"/>

<path fill="url(#Gradient_4)" stroke="none" d="
M 1305.25 87.8
Q 1307.9 90.6 1307.9 94.6 1307.9 100.35 1301.5 105.25 1299.7 106.65 1287.4 113.85 1277.8 119.5 1272.7 128 1267.55 136.5 1267.3 144.3 1267.05 152.15 1270.55 158.3 1274 164.4 1280.95 171.75 1287.9 179.1 1291.2 184.95 1294.45 190.7 1293.25 197.3 1292.1 203.85 1287.05 208.5 1281.95 213.1 1276.4 216 1269.65 219.35 1266.2 221.15 1253 227.75 1247.1 233.85 1238.35 242.75 1238.35 255.65 1238.35 271.1 1249.1 284.2 1256.2 292.95 1264.55 296.9 1268.7 290.15 1273.7 284.05 1269.8 281.5 1267.3 279.55 1256.65 271.2 1256.65 261.15 1256.65 249.35 1264.8 241.35 1269.65 236.55 1282.65 229.65 1295.65 222.75 1300.5 217.95 1308.65 209.95 1309.65 201.45 1310.6 192.9 1307.15 185.35 1303.75 177.75 1297 170.2 1290.3 162.6 1287.25 157.95 1284.1 153.25 1284.3 146.2 1284.5 139.1 1291.6 132 1295.85 127.7 1307.15 120.6 1318.5 113.45 1322.75 109.2 1329.85 102.1 1329.85 93.5 1329.85 81.55 1322.55 71.6 1315 61.3 1305.35 61.3 1300.45 61.3 1296.2 64.25 1291.05 67.7 1291.05 73.4 1291.05 77 1293.7 79.6 1295.2 81.1 1299.5 83.55 1303.6 86 1305.25 87.8
M 1284.1 118.1
Q 1284.7 117.6 1285.45 117.7 1286.2 117.8 1286.7 118.4 1287.1 119 1287.05 119.7 1286.95 120.5 1286.35 120.95 1280.5 125.45 1276.85 132 1273.2 138.6 1273.15 144.75 1273.15 145.1 1273.3 146.05 1273.5 147.35 1273.5 148.05 1273.5 148.8 1273 149.35 1272.45 149.9 1271.7 149.9 1270.9 149.9 1270.4 149.35 1269.85 148.8 1269.85 148.05 1269.85 147.55 1269.7 146.6 1269.5 145.25 1269.5 144.75 1269.45 137.75 1273.7 130.25 1277.7 123.05 1284.1 118.1
M 1292.8 115.35
Q 1293.4 115.9 1293.4 116.75 1293.4 117.6 1292.8 118.2 1292.15 118.8 1291.35 118.8 1290.5 118.8 1289.9 118.2 1289.3 117.6 1289.3 116.75 1289.3 115.9 1289.9 115.35 1290.5 114.7 1291.35 114.7 1292.15 114.7 1292.8 115.35 Z"/>

<path fill="url(#Gradient_5)" stroke="none" d="
M 1455.75 98.3
Q 1455.75 94.7 1453.55 92.1 1451.05 89.15 1446.95 89.15 1435.85 89.15 1425.75 102.35 1421.4 108 1418.85 114.4 1416.25 120.85 1416.25 126.1 1416.25 135.85 1420.7 143.45 1423.6 148.45 1430.5 154.95 1438.1 162.05 1440.3 165.15 1444.75 171.35 1444.75 178.8 1444.75 184.95 1443.15 190.15 1442.15 193.4 1439.65 198.3 1437 203.4 1436.15 206 1434.5 210.7 1434.5 216.1 1434.5 228.95 1444.6 238.35 1450.45 243.8 1466.6 252.6 1482.7 261.4 1490.8 270.7 1498.95 279.95 1498.95 289.65 1498.95 299.25 1495 305.6 1491.1 311.9 1485.3 315.75 1486.25 318.05 1487.1 320.5 1489.1 326.3 1490.6 332.4 1498.7 326.8 1505.55 316.15 1512.4 305.5 1512.7 293.85 1512.95 282.15 1504 269.45 1495.1 256.7 1479.9 246.85 1464.9 237.8 1459.25 233.4 1449.9 226.05 1449.9 217.95 1449.9 213.15 1451.5 207.9 1452.4 205.05 1455 198.65 1460.15 186.35 1460.15 177.7 1460.15 170.1 1456.15 164.6 1453.7 161.35 1447.35 156.45 1440.9 151.55 1438.5 148.4 1434.5 143.05 1434.5 135.6 1434.5 129.8 1437.85 124 1440.15 120 1445.15 114.5 1451.3 107.75 1452.4 106.2 1455.75 101.85 1455.75 98.3
M 1441.7 96.9
Q 1441.35 97.6 1440.65 97.85 1437.65 98.85 1434 102.35 1430.15 105.95 1427.4 111.25 1427 111.9 1426.35 112.1 1425.6 112.35 1424.95 111.95 1424.25 111.65 1424.05 110.9 1423.8 110.15 1424.15 109.5 1427.25 103.65 1431.5 99.65 1435.85 95.5 1439.45 94.35 1440.2 94.1 1440.9 94.45 1441.55 94.8 1441.8 95.5 1442.05 96.25 1441.7 96.9
M 1447.5 96.6
Q 1446.75 96.6 1446.25 96.1 1445.7 95.55 1445.7 94.75 1445.7 94 1446.25 93.5 1446.75 92.95 1447.5 92.95 1448.3 92.95 1448.85 93.5 1449.35 94 1449.35 94.75 1449.35 95.55 1448.85 96.1 1448.3 96.6 1447.5 96.6 Z"/>

<path fill="url(#Gradient_6)" stroke="none" d="
M 1620.5 310.45
Q 1622.35 288 1620.5 264.6 1618.65 240.85 1613.1 216.2 1593.15 120.95 1539.45 72.6 1505.3 41.85 1489.25 58.2 1477.75 69.9 1490.1 87.75
L 1491.7 89.55
Q 1500.05 99.05 1508.65 108.25 1532.1 133.15 1547.2 163.9 1552.1 173.75 1556.7 184.7 1577.8 240.15 1574.15 296.7 1573 310.55 1570.85 324.2 1565.5 358.45 1546.45 387.75 1521.45 429 1490.75 439.55 1451.2 453.05 1430.85 416.2 1424.3 417.95 1415.75 422.35 1403.65 428.5 1401 429.6 1395.6 431.85 1390.3 433 1407.2 461.65 1429.55 474.85 1451.65 487.85 1479.15 485.65 1490.7 484.7 1501.9 481.6 1511.95 478.9 1521.2 474.85 1543.45 465.05 1561.1 447.55 1582.65 426.6 1599.15 395.55 1616.9 354.85 1620.5 310.45
M 1494.45 60.6
Q 1494.6 59.8 1495.25 59.4 1497.9 57.75 1500.55 57.35
L 1500.6 57.35
Q 1503.05 57 1506.15 57.5 1509.05 57.95 1514.3 60.3 1519.35 62.5 1529.05 69.55 1529.65 70 1529.8 70.7 1529.9 71.5 1529.45 72.1 1529 72.7 1528.25 72.85 1527.5 72.95 1526.9 72.5 1517.6 65.8 1512.8 63.6 1508.1 61.55 1505.55 61.15 1503.05 60.75 1501.05 61 1499.15 61.25 1497.25 62.5 1496.65 62.9 1495.9 62.75 1495.15 62.6 1494.7 61.95 1494.3 61.3 1494.45 60.6
M 1489.75 66.75
Q 1489.75 65.9 1490.35 65.3 1490.95 64.7 1491.8 64.7 1492.65 64.7 1493.25 65.3 1493.85 65.9 1493.85 66.75 1493.85 67.65 1493.25 68.25 1492.65 68.85 1491.8 68.85 1490.95 68.85 1490.35 68.25 1489.75 67.65 1489.75 66.75
M 1585.65 404.8
Q 1585.9 405.5 1585.5 406.2 1578.9 418.4 1571.95 427.5 1564.85 436.7 1555.85 444.8 1555.3 445.3 1554.55 445.25 1553.8 445.25 1553.3 444.7 1552.75 444.1 1552.8 443.35 1552.85 442.6 1553.4 442.1 1562.15 434.2 1569.05 425.25 1575.8 416.35 1582.3 404.45 1582.65 403.75 1583.4 403.55 1584.1 403.35 1584.8 403.7 1585.45 404.05 1585.65 404.8
M 1405.15 440.65
Q 1404.75 439.95 1404.95 439.25 1405.15 438.55 1405.8 438.15 1406.45 437.75 1407.2 437.95 1407.9 438.15 1408.3 438.8 1413.5 447.6 1417.5 451.85 1421.55 456.05 1429.75 461.65 1430.3 462.05 1430.45 462.8 1430.6 463.55 1430.15 464.15 1429.75 464.8 1429 464.9 1428.25 465.05 1427.65 464.65 1419.05 458.75 1414.85 454.4 1410.65 449.95 1405.15 440.65
M 1439 467.1
Q 1439.65 467.8 1439.65 468.75 1439.65 469.75 1439 470.45 1438.3 471.15 1437.3 471.15 1436.3 471.15 1435.65 470.45 1434.95 469.75 1434.95 468.75 1434.95 467.8 1435.65 467.1 1436.3 466.4 1437.3 466.4 1438.3 466.4 1439 467.1 Z"/>
</g>

<g id="Layer0_0_FILL">
<path fill="#3D96E6" stroke="none" d="
M 198.6 194.95
Q 199.8078125 193.053125 201.6 191.6 206.45 187.55 213.6 187.55 221 187.55 228.9 191.3 233.65 193.55 242.6 199.55 251.55 205.55 257.9 208.55 260.9 209.95 265.75 210.5 269.1 209.85 271 200.4 272.9 190.95 261.7 181.3 250.5 171.65 237.7 172.05 224.9 172.45 215.1 177.8 205.5501953125 183.0224609375 198.6 194.95
M 524.2 67.45
Q 516.85 74.45 512.4 83.75 503.45 102.45 502.2 140.9 501.4 164.8 502.35 228.8 502.35 270.7 503 282.7 503.95 301.4 507.35 323.75 513.9 323.75 522.2 324.05 526 324.2 529.4 324.85 516.95 235.9 516.1 127.65 514.45 91.85 524.2 67.45 Z"/>

<path fill="url(#Gradient_12)" stroke="none" d="
M 290.05 89.95
Q 276.2 73.5 261 65.3 245.75 57.05 233.7 52.9 203.2 44.3 175.65 49.45 124.3 59.25 93.3 100.25 69.8 131.25 65 169.6 64.35 179.35 65.6 189.1 69.45 218.7 83.65 236.75 97.85 254.8 127.6 273.05 135.6 277.95 151.1 287.1 164.3 295 171.6 300.4 191.6 315.1 192.5 325.85 193.4 336.6 187.15 341.95 180.85 347.25 169.65 346.4 158.45 345.55 152 341.9 145.5 338.25 136.7 330.55 127.9 322.85 115.55 319.95 103.2 317.05 88.8 318.95 74.35 320.85 60.25 340.6 46.15 360.3 49.6 388.4 53.05 416.5 63.4 431.6 73.7 446.65 95.4 460.05 117.05 473.45 144.1 479.75 168.9 485.55 192.6 485.55 217.2 485.55 239.15 477.3 261.15 469.05 277.65 453.6 294.7 437.6 303.9 415.85 313.6 392.85 313.6 365.55 313.6 329.3 295.15 302.4 281.75 282.85 254.6 264.2 250.25 261.25 232.95 250.05 220.45 242 214.05 236.9 195.6 222.2 195.6 206.55 195.6 200.05 198.2 195.65
L 198.6 194.95
Q 205.5501953125 183.0224609375 215.1 177.8 224.9 172.45 237.7 172.05 250.5 171.65 261.7 181.3 272.9 190.95 271 200.4 269.1 209.85 265.75 210.5 271.15 211.1 278.95 210.55 293.6 209.55 305.6 194.55 317.6 179.5 317.6 158.55 317.6 138.35 310.75 122.4 303.9 106.4 290.05 89.95
M 197.2 91.95
Q 197.2 86.1 201.35 82 205.5 77.85 211.35 77.85 217.2 77.85 221.35 82 225.5 86.1 225.5 91.95 225.5 97.8 221.35 101.95 217.2 106.05 211.35 106.05 205.5 106.05 201.35 101.95 197.2 97.8 197.2 91.95
M 189.15 87.1
Q 192 92.1 189.95 96.9 187.85 101.65 183.6 104.15 179.3 106.65 176.25 108 173.15 109.3 162.05 113.45 152.15 117.1 147.05 120.25 142.35 123.15 137.5 126.55 132.65 129.9 123.8 141.9 120.45 145.45 118.5 147.1 115.3 149.8 112.25 150.95 108.6 152.35 104.85 151.5 100.85 150.6 98.95 147.55 96.95 144.35 97.8 138.4 98.95 130 103.1 122.75 107.8 114.35 116.75 105.65 125.7 96.95 139.1 90.15 152.5 83.3 162.05 81.1 171.6 78.85 178.95 80.5 186.3 82.1 189.15 87.1
M 278.4 357.6
Q 279 355.4 280.05 354.05 281.4 352.25 283.8 351.45 286.05 350.7 288.4 351.15 291.15 351.7 293.25 353.65 295.4 355.65 295.75 359.75 296.05 363.85 294.35 375.25 292.65 386.65 289.65 391.3 286.65 395.9 285.85 396.5 285.05 397.05 283.1 398.25 281.4 399.3 279.45 399.7 277.2 400.1 275.1 399.5 272.85 398.85 271.45 397.25 270 395.5 269.75 392.95 269.5 390.7 270.25 388.2 270.75 386.45 272.05 383.8 273.6 380.5 274 379.45 275.15 376.55 275.9 372.7 276.3 370.45 276.85 365.75 277.5 360.55 278.4 357.6
M 275.15 410.2
Q 277.05 413 275.85 419.25 274.6 425.5 270.65 431.4 266.7 437.3 255.45 445 244.2 452.7 236.25 456.1 228.3 459.45 221.65 461.3 207.8 465.15 197.2 463.85 190.9 463.15 187.25 460.55 185 458.95 183.7 456.6 182.3 454.15 182.5 451.6 182.7 448.65 184.95 446.1 186.95 443.75 190 442.45 192.45 441.4 195.95 440.85 196.75 440.7 202.1 440.05 224.7 437.25 243.8 424.7 249.25 421 252 417.85 253.05 416.65 255.55 413.15 257.7 410.1 259.25 408.6 261.55 406.35 265.05 405.75 268.55 405.1 270.9 406.2 273.2 407.3 275.15 410.2
M 492.35 111.8
Q 492.35 86.9 490.8 76.25 488.7 62.3 482.4 55.55 475.9 48.55 457.35 47 438.8 45.45 408.15 45.55 377.45 45.65 365.3 60.65 353.1 75.65 348.75 107.85 342.2 206.6 342.9 305.55 343.35 369.15 349.5 432.3 350.8 439.15 353.5 450.95 357.25 467.55 367.05 475.1 376 481.95 391.5 484.4 403.45 486.3 426.35 486.3 462.75 486.3 482.3 484 508.6 480.95 524.5 472.35 533.8 467.35 540.6 459.95 546.9 453.05 551.1 444.1 560.35 424.3 560.35 392.05 560.35 358.45 552 341.65 545.1 327.8 529.4 324.85 526 324.2 522.2 324.05 513.9 323.75 507.35 323.75 496.85 323.7 490.65 324.4 480.5 325.45 478.35 325.85 486.6 233.7 488 215.3 492.35 157.7 492.35 111.8
M 436.15 68.9
Q 441.2 70.6 444 74.2 446.75 77.8 445.85 82.3 444.95 86.8 443.05 88.55 441.15 90.3 437.5 91.6 433.85 92.85 428.8 93.55 426.5 94.2 422.25 94.9 418 95.55 412.6 98.8 407.15 102 402.5 109 397.85 116 396.7 117.45 393 122.05 388.75 123.3 388.55 123.35 388.3 123.4 381.8 123.4 377.2 118.85 372.55 114.3 372.55 107.85 372.7 102.5 375.55 95.75 379.25 87 384.4 81.45 391.7 73.75 403.5 70.1 412.8 67.25 421.95 67.25 431.05 67.2 436.15 68.9
M 449.1 441.25
Q 450.55 442.75 451.7 445.15 452.85 447.5 452 450.55 451.1 453.6 449.95 455.45 448.95 457.05 446.85 458.45 444.2 460.2 440.5 461.3 437.8 462.05 433.5 462.7 417.6 465.05 406.8 462.5 401.55 461.25 397.75 459.15 395.75 458.1 392.05 455.5 382.8 448.75 378.3 442.05 375.15 437.4 373.6 432.3 367.9 418.6 380.7 412 381.1 411.8 381.6 411.7
L 388.3 413.05
Q 388.4 413.05 388.5 413.1 390.55 413.75 393.65 417.15 396.7 420.5 399 423.2 401.3 425.85 405.7 430.55 410.1 435.2 417 436.65 423.9 438.1 429.8 437.45 435.7 436.8 439.4 437.3 443.1 437.75 445.4 438.75 447.65 439.7 449.1 441.25
M 474.7 432.75
Q 479.9 432.75 483.6 436.45 487.3 440.15 487.3 445.35 487.3 450.55 483.6 454.25 479.9 457.95 474.7 457.95 469.5 457.95 465.8 454.25 462.1 450.55 462.1 445.35 462.1 440.15 465.8 436.45 469.5 432.75 474.7 432.75
M 705.65 62.4
Q 699.8 53.95 688.65 49.6 678.5 45.65 661.75 44.4 650.85 43.55 627.6 43.55 575.25 43.55 548.85 52.85 533.95 58.1 524.2 67.45 514.45 91.85 516.1 127.65 516.95 235.9 529.4 324.85 545.1 327.8 552 341.65 560.35 358.45 560.35 392.05 560.35 424.3 551.1 444.1 546.9 453.05 540.6 459.95 549.15 466.05 563.9 467.8 578.6 469.5 608.4 468.85 638.15 468.2 661.9 464.95 685.6 461.7 693.35 456.35 693.95 455.85 694.65 455.35 701.7 449.5 708.85 433.65 716.6 416.4 716.6 388.05 716.6 364.25 712.65 344.05 711.05 335.85 709 329.75 707.65 325.85 706.1 322.8 700.6 312.05 692.6 312.05 690.65 312.05 682.95 313.3 679.4 316.55 674.3 320.05 668.15 324.2 662.05 326.95 656.05 329.65 653 329.65 646.35 329.65 642.05 324.65 638 320 638 313.65 638 306.2 642.25 300.1 642.85 299.2 645.85 295.35 646.5 294.5 647.1 293.7 648.75 285.5 656 283.2 659.4 282.15 665.6 281.9 669.1 281.8 676.6 281.55 690.55 280.6 697.25 273.3 700.45 269.8 702.55 264.55 706.6 254.45 706.6 237.8 706.6 191.8 683.6 191.8 681.1 191.8 672.1 193.8 663.1 195.8 660.6 195.8 651 195.8 646.65 189.85 644.4 186.75 643.4 181.85 642.6 177.9 642.6 172.8 642.6 154.55 653.55 149.8 657.6 148.05 664.75 147.45 668.85 147.1 677.6 146.6 693.95 145.05 701.65 135.7 708.55 127.4 711.1 111.35 712.6 101.9 712.6 89.8 712.6 73.35 706.3 63.4 706 62.9 705.65 62.4
M 648.45 73.7
Q 652.3 77.55 652.3 83 652.3 88.45 648.45 92.35 644.55 96.2 639.1 96.2 633.65 96.2 629.8 92.35 625.9 88.45 625.9 83 625.9 77.55 629.8 73.7 633.65 69.8 639.1 69.8 644.55 69.8 648.45 73.7
M 694.65 238.55
Q 693.55 240.95 691.8 242.3 689.55 243.95 686.55 243.45 683.5 243 681.85 240.7 681.3 239.95 680.35 237.75 679.45 235.75 678.65 234.9 677.2 233.35 674.55 232.9 672.8 232.55 669.7 232.65
L 661.55 232.95
Q 658.75 233.05 657.35 233 655 232.9 653.2 232.4 648.35 230.95 646.95 227.2 646.5 226 646.4 223.95 646.4 219.8 648.3 217.65 649.55 216.2 652.6 215 658.65 212.55 665.35 211.8 673.85 210.75 682.5 212.45 688.85 213.8 691.75 216.6 694.6 219.45 695.75 225.1 697.35 232.95 694.65 238.55
M 681.05 364.4
Q 682.5 361.45 685.9 360.1 689.25 358.75 692.6 359.65 695.75 360.45 698.35 362.9 700.8 365.2 702.3 368.4 704.6 373.45 705.2 384.35 705.8 395.25 704.2 404.1 702.6 412.95 700.15 421.1 697.7 429.25 692.25 434.25 686.8 439.2 681.45 440.95 676.05 442.7 670.65 443.15 667.6 443.4 663.3 442.95 659.2 442.4 656.8 441.35 653.25 439.7 651.1 436.15 649 432.65 649.1 428.7 649.25 424.8 651.6 421.4 653.9 418.05 657.5 416.45 659 415.8 661.8 415.1 664.9 414.35 666.15 413.9 669.55 412.65 672.3 410 675.05 407.35 676.5 403.95 678.4 399.5 678.55 390.4 678.65 383.75 678.6 384.5
L 678.7 381.45
Q 678.9 372 679.65 368.95 680.35 365.9 681.05 364.4
M 603.05 94.1
Q 602.75 94.15 597.4 94.85 589.85 95.75 582.6 95.65 575.3 95.55 567.75 98.15 560.2 100.7 555.9 108.55 551.6 116.35 548.3 119.6 545 122.85 538.4 121.65 533.85 120.8 530.6 116.75 527.55 112.9 526.9 107.9 525.9 100.1 530.9 89.4 532.6 85.7 533.95 83.75 537 79.2 541.95 75.75 546.45 72.6 552.15 70.6 556.95 68.9 563.2 67.75 566.75 67.1 581.75 66.25 599.8 66 608.25 69.1 612.65 70.7 614.7 72.45 617.5 74.85 618.25 78.75 619 82.6 617.3 85.9 614.9 90.6 608.6 92.8 606.3 93.6 603.05 94.1
M 866.45 77.05
Q 864.65 75.4 862.8 73.85 845 58.85 823.2 50.35 801.15 41.8 779.85 41.8 755.2 41.8 730.3 50.75 716.5 55.7 705.7 62.35
L 706.3 63.4
Q 712.6 73.35 712.6 89.8 712.6 101.9 711.1 111.35 711 130.45 704.85 143.55 699.05 156 687.1 164.4 676.6 171.8 659.35 177.4 652.85 179.45 643.4 181.85 644.4 186.75 646.65 189.85 651 195.8 660.6 195.8 663.1 195.8 672.1 193.8 681.1 191.8 683.6 191.8 706.6 191.8 706.6 237.8 706.6 254.45 702.55 264.55 704.25 265.5 715.4 273 726.55 280.45 747.25 291.85 767.95 303.2 769.05 313.2 770.1 323.2 765.8 329.25 761.5 335.25 751.2 336.05 740.9 336.9 726.25 331.3 711.55 325.7 706.1 322.8 707.65 325.85 709 329.75 720.85 340.15 726.15 357.5 731.1 373.8 731.1 400.15 731.1 423.2 723.7 441.6 719.35 452.4 712.2 462.45 715.75 463.8 719.65 465.2 755.85 478.3 776.85 478.3 830.3 478.3 860.9 453.8 861.85 453.05 862.8 452.25 896.85 423.5 896.85 366.05 896.85 357.95 895.95 350.2 894.6 339.25 891.5 329.05 886.9 314.05 878.4 300.55 864.65 278.65 837.85 257.25 830.35 251.25 816.2 241 802.7 231.2 797.3 226.75 778.85 211.65 778.85 199.8 778.85 196.65 779.75 193.85 779.7 193.55 778.5 190.3 777.25 187.1 783.15 179.65 789.05 172.25 800.25 167.3 811.45 162.4 824.85 162.55 838.25 162.65 847.3 171.35 856.35 180 855.1 191.15 853.85 202.25 851.75 205.35 854.3 205.8 856.85 205.8 875.2 205.8 888.95 189.85 902.85 173.75 902.85 151.8 902.85 147.1833984375 902.4 142.6 902.4080078125 142.532421875 902.4 142.45 902.35 142.35 902.35 142.25 900.45 125.1 891.7 108.75 882.35 91.3 866.45 77.05
M 820.65 72.55
Q 821.75 76.75 820.1 80.2 817.75 85 811.05 86.8 808.6 87.4 805.35 87.65 804.6 87.7 799.55 87.9 786.4 88.4 773.7 92 760.9 95.6 749.6 102.1 745.95 104.25 745.6 104.4 743.3 105.7 741.45 106.4 736.45 108.35 732.4 107.1 729.25 106.15 727.05 103.3 724.9 100.6 724.35 97.15 723.4 90.7 727.65 84.35 730.7 79.8 737.2 74.9 751.25 64.45 768.2 60.3 785.65 56.05 802.3 59.35 811.9 61.3 816.6 65.75 819.6 68.6 820.65 72.55
M 878.9 324.1
Q 881.65 331.6 882.95 338.8 884.2 345.95 884.7 349.05 885.15 352.15 885.35 361.55 885.5 370.95 879.85 380.35 877.7 383.85 875.2 385.7 872.6 387.5 869.3 387.8 866.05 388.05 863.1 386.75 860.25 385.5 858.2 382.9 856.2 380.35 855.5 377.25 855.1 375.3 855.15 372.6 855.15 372.4 855.45 367.95 856.25 355.85 853.3 344.85 850.1 333.05 843.05 324.35 841.2 322.25 840.35 321.15 838.8 319.25 837.9 317.65 836.05 314.3 836 310.3 835.95 306.3 837.8 302.95 839.7 299.55 843.2 297.6 846.7 295.6 850.5 295.8 853.85 296 859.8 299 865.75 301.95 870.95 309.25 876.1 316.55 878.9 324.1
M 755.7 437.7
Q 759.9 433.5 765.8 433.5 771.7 433.5 775.9 437.7 780.1 441.9 780.1 447.85 780.1 453.8 775.9 458 771.7 462.2 765.8 462.2 759.9 462.2 755.7 458 751.5 453.8 751.5 447.85 751.5 441.9 755.7 437.7
M 1035.2 75.8
Q 1018.2 61.8 997.5 53.85 976.35 45.8 955.85 45.8 922.6 45.8 899.3 55.5 881.5 62.9 866.45 77.05 882.35 91.3 891.7 108.75 900.45 125.1 902.35 142.25 902.35 142.35 902.4 142.45 902.4080078125 142.532421875 902.4 142.6 906.1 157.7744140625 906.1 169.15 906.1 191.9 893.2 209.7 883.55 223.05 870.1 228.75 871.35 233.2 872.8 238.45 876.35 250.4 880.1 256.65 886.05 266.45 893.55 274.45 899.2 280.5 906.2 285.95 917.6 292.3 924.1 296.55 934.65 303.45 939.7 312.9 944.75 322.35 942.8 329.7 940.85 337 929.45 339.7 918.05 342.35 891.5 329.05 894.6 339.25 895.95 350.2 899 358.9 900.6 367.85 903.1 382.1 903.1 407.15 903.1 433.65 895.45 457.65 893.05 465.15 890.35 470.9 916.35 482.3 943.85 482.3 967.9 482.3 990.4 474.7 1013.5 466.9 1031.2 452.3 1049.9 436.9 1060.1 415.85 1071.1 393.2 1071.1 366.05 1071.1 328.9 1052.35 302.5 1038.8 283.4 1017.3 268.9 982.95 245.8 967.05 232.65 951.1 219.45 951.1 208.3 951.1 197.15 956.2 191.5 961.25 185.8 969.6 185.8 977.95 185.8 983.45 188.5 988.9 191.15 997.75 198.2 1006.6 205.2 1015.55 209 1024.5 212.8 1036.4 211.2 1048.25 209.55 1057.1 201.95 1065.9 194.35 1069.85 184.3 1073.8 174.2 1074.45 164.1 1075.05 154 1074.1 140.75 1073.1 127.5 1062.55 108.25 1052.7 90.25 1035.2 75.8
M 982.35 66.5
Q 992.05 71.35 993 78.4 993.55 82.3 991.15 86 988.85 89.55 985.05 91.15 981.55 92.65 974.65 92.95 958.6 93.7 954.75 94.1 943.6 95.35 935.75 98.9 934.5 99.5 932 100.75 929.55 102.05 928.25 102.6 924.5 104.35 920.25 105.45 914.3 107.05 909.95 106.1 906.55 105.3 903.85 102.95 901.15 100.6 899.95 97.35 898.7 94.15 899.2 90.55 899.65 87 901.7 84.2 902.55 83 904.35 81.3 910.3 75.6 918.95 71.45 921.9 70 925.35 68.7 947.85 59.9 971.5 63.25 977.2 63.8 982.35 66.5
M 1042.65 312.65
Q 1045.55 317.3 1046.55 319.1 1055.75 335.95 1054.95 361.2 1054.8 366.2 1054.15 369.7 1053.6 372.85 1052.2 376.6 1050.05 381.95 1046.7 384.9 1043.9 387.4 1040.1 388.3 1036.35 389.25 1032.75 388.3 1029.1 387.4 1026.2 384.8 1023.35 382.25 1022.6 378.3 1021.85 374.3 1022.05 365.6 1022.25 356.9 1019.65 347 1017 337.05 1016.3 335.1 1014.4 330.45 1011.4 325.2 1009.55 322.2 1008.85 320.3 1007.1 315.3 1009.3 309.45 1011.35 303.85 1016.05 300.7 1018.4 299.15 1021.2 298.5 1024 297.85 1026.75 298.35 1031.8 299.25 1036.15 303.8 1038.85 306.6 1042.65 312.65
M 1038.95 403.9
Q 1043.15 408.1 1043.15 414.05 1043.15 420 1038.95 424.2 1034.75 428.4 1028.85 428.4 1022.95 428.4 1018.75 424.2 1014.55 420 1014.55 414.05 1014.55 408.1 1018.75 403.9 1022.95 399.7 1028.85 399.7 1034.75 399.7 1038.95 403.9 Z"/>

<path fill="url(#Gradient_13)" stroke="none" d="
M 275.85 419.25
Q 277.05 413 275.15 410.2 273.2 407.3 270.9 406.2 268.55 405.1 265.05 405.75 261.55 406.35 259.25 408.6 257.7 410.1 255.55 413.15 253.05 416.65 252 417.85 249.25 421 243.8 424.7 224.7 437.25 202.1 440.05 196.75 440.7 195.95 440.85 192.45 441.4 190 442.45 186.95 443.75 184.95 446.1 182.7 448.65 182.5 451.6 182.3 454.15 183.7 456.6 185 458.95 187.25 460.55 190.9 463.15 197.2 463.85 207.8 465.15 221.65 461.3 228.3 459.45 236.25 456.1 244.2 452.7 255.45 445 266.7 437.3 270.65 431.4 274.6 425.5 275.85 419.25
M 280.05 354.05
Q 279 355.4 278.4 357.6 277.5 360.55 276.85 365.75 276.3 370.45 275.9 372.7 275.15 376.55 274 379.45 273.6 380.5 272.05 383.8 270.75 386.45 270.25 388.2 269.5 390.7 269.75 392.95 270 395.5 271.45 397.25 272.85 398.85 275.1 399.5 277.2 400.1 279.45 399.7 281.4 399.3 283.1 398.25 285.05 397.05 285.85 396.5 286.65 395.9 289.65 391.3 292.65 386.65 294.35 375.25 296.05 363.85 295.75 359.75 295.4 355.65 293.25 353.65 291.15 351.7 288.4 351.15 286.05 350.7 283.8 351.45 281.4 352.25 280.05 354.05
M 189.95 96.9
Q 192 92.1 189.15 87.1 186.3 82.1 178.95 80.5 171.6 78.85 162.05 81.1 152.5 83.3 139.1 90.15 125.7 96.95 116.75 105.65 107.8 114.35 103.1 122.75 98.95 130 97.8 138.4 96.95 144.35 98.95 147.55 100.85 150.6 104.85 151.5 108.6 152.35 112.25 150.95 115.3 149.8 118.5 147.1 120.45 145.45 123.8 141.9 132.65 129.9 137.5 126.55 142.35 123.15 147.05 120.25 152.15 117.1 162.05 113.45 173.15 109.3 176.25 108 179.3 106.65 183.6 104.15 187.85 101.65 189.95 96.9
M 201.35 82
Q 197.2 86.1 197.2 91.95 197.2 97.8 201.35 101.95 205.5 106.05 211.35 106.05 217.2 106.05 221.35 101.95 225.5 97.8 225.5 91.95 225.5 86.1 221.35 82 217.2 77.85 211.35 77.85 205.5 77.85 201.35 82
M 483.6 436.45
Q 479.9 432.75 474.7 432.75 469.5 432.75 465.8 436.45 462.1 440.15 462.1 445.35 462.1 450.55 465.8 454.25 469.5 457.95 474.7 457.95 479.9 457.95 483.6 454.25 487.3 450.55 487.3 445.35 487.3 440.15 483.6 436.45
M 451.7 445.15
Q 450.55 442.75 449.1 441.25 447.65 439.7 445.4 438.75 443.1 437.75 439.4 437.3 435.7 436.8 429.8 437.45 423.9 438.1 417 436.65 410.1 435.2 405.7 430.55 401.3 425.85 399 423.2 396.7 420.5 393.65 417.15 390.55 413.75 388.5 413.1 388.4 413.05 388.3 413.05
L 381.6 411.7
Q 381.1 411.8 380.7 412 367.9 418.6 373.6 432.3 375.15 437.4 378.3 442.05 382.8 448.75 392.05 455.5 395.75 458.1 397.75 459.15 401.55 461.25 406.8 462.5 417.6 465.05 433.5 462.7 437.8 462.05 440.5 461.3 444.2 460.2 446.85 458.45 448.95 457.05 449.95 455.45 451.1 453.6 452 450.55 452.85 447.5 451.7 445.15
M 444 74.2
Q 441.2 70.6 436.15 68.9 431.05 67.2 421.95 67.25 412.8 67.25 403.5 70.1 391.7 73.75 384.4 81.45 379.25 87 375.55 95.75 372.7 102.5 372.55 107.85 372.55 114.3 377.2 118.85 381.8 123.4 388.3 123.4 388.55 123.35 388.75 123.3 393 122.05 396.7 117.45 397.85 116 402.5 109 407.15 102 412.6 98.8 418 95.55 422.25 94.9 426.5 94.2 428.8 93.55 433.85 92.85 437.5 91.6 441.15 90.3 443.05 88.55 444.95 86.8 445.85 82.3 446.75 77.8 444 74.2
M 597.4 94.85
Q 602.75 94.15 603.05 94.1 606.3 93.6 608.6 92.8 614.9 90.6 617.3 85.9 619 82.6 618.25 78.75 617.5 74.85 614.7 72.45 612.65 70.7 608.25 69.1 599.8 66 581.75 66.25 566.75 67.1 563.2 67.75 556.95 68.9 552.15 70.6 546.45 72.6 541.95 75.75 537 79.2 533.95 83.75 532.6 85.7 530.9 89.4 525.9 100.1 526.9 107.9 527.55 112.9 530.6 116.75 533.85 120.8 538.4 121.65 545 122.85 548.3 119.6 551.6 116.35 555.9 108.55 560.2 100.7 567.75 98.15 575.3 95.55 582.6 95.65 589.85 95.75 597.4 94.85
M 685.9 360.1
Q 682.5 361.45 681.05 364.4 680.35 365.9 679.65 368.95 678.9 372 678.7 381.45
L 678.6 384.5
Q 678.65 383.75 678.55 390.4 678.4 399.5 676.5 403.95 675.05 407.35 672.3 410 669.55 412.65 666.15 413.9 664.9 414.35 661.8 415.1 659 415.8 657.5 416.45 653.9 418.05 651.6 421.4 649.25 424.8 649.1 428.7 649 432.65 651.1 436.15 653.25 439.7 656.8 441.35 659.2 442.4 663.3 442.95 667.6 443.4 670.65 443.15 676.05 442.7 681.45 440.95 686.8 439.2 692.25 434.25 697.7 429.25 700.15 421.1 702.6 412.95 704.2 404.1 705.8 395.25 705.2 384.35 704.6 373.45 702.3 368.4 700.8 365.2 698.35 362.9 695.75 360.45 692.6 359.65 689.25 358.75 685.9 360.1
M 691.8 242.3
Q 693.55 240.95 694.65 238.55 697.35 232.95 695.75 225.1 694.6 219.45 691.75 216.6 688.85 213.8 682.5 212.45 673.85 210.75 665.35 211.8 658.65 212.55 652.6 215 649.55 216.2 648.3 217.65 646.4 219.8 646.4 223.95 646.5 226 646.95 227.2 648.35 230.95 653.2 232.4 655 232.9 657.35 233 658.75 233.05 661.55 232.95
L 669.7 232.65
Q 672.8 232.55 674.55 232.9 677.2 233.35 678.65 234.9 679.45 235.75 680.35 237.75 681.3 239.95 681.85 240.7 683.5 243 686.55 243.45 689.55 243.95 691.8 242.3
M 652.3 83
Q 652.3 77.55 648.45 73.7 644.55 69.8 639.1 69.8 633.65 69.8 629.8 73.7 625.9 77.55 625.9 83 625.9 88.45 629.8 92.35 633.65 96.2 639.1 96.2 644.55 96.2 648.45 92.35 652.3 88.45 652.3 83
M 765.8 433.5
Q 759.9 433.5 755.7 437.7 751.5 441.9 751.5 447.85 751.5 453.8 755.7 458 759.9 462.2 765.8 462.2 771.7 462.2 775.9 458 780.1 453.8 780.1 447.85 780.1 441.9 775.9 437.7 771.7 433.5 765.8 433.5
M 882.95 338.8
Q 881.65 331.6 878.9 324.1 876.1 316.55 870.95 309.25 865.75 301.95 859.8 299 853.85 296 850.5 295.8 846.7 295.6 843.2 297.6 839.7 299.55 837.8 302.95 835.95 306.3 836 310.3 836.05 314.3 837.9 317.65 838.8 319.25 840.35 321.15 841.2 322.25 843.05 324.35 850.1 333.05 853.3 344.85 856.25 355.85 855.45 367.95 855.15 372.4 855.15 372.6 855.1 375.3 855.5 377.25 856.2 380.35 858.2 382.9 860.25 385.5 863.1 386.75 866.05 388.05 869.3 387.8 872.6 387.5 875.2 385.7 877.7 383.85 879.85 380.35 885.5 370.95 885.35 361.55 885.15 352.15 884.7 349.05 884.2 345.95 882.95 338.8
M 820.1 80.2
Q 821.75 76.75 820.65 72.55 819.6 68.6 816.6 65.75 811.9 61.3 802.3 59.35 785.65 56.05 768.2 60.3 751.25 64.45 737.2 74.9 730.7 79.8 727.65 84.35 723.4 90.7 724.35 97.15 724.9 100.6 727.05 103.3 729.25 106.15 732.4 107.1 736.45 108.35 741.45 106.4 743.3 105.7 745.6 104.4 745.95 104.25 749.6 102.1 760.9 95.6 773.7 92 786.4 88.4 799.55 87.9 804.6 87.7 805.35 87.65 808.6 87.4 811.05 86.8 817.75 85 820.1 80.2
M 1043.15 414.05
Q 1043.15 408.1 1038.95 403.9 1034.75 399.7 1028.85 399.7 1022.95 399.7 1018.75 403.9 1014.55 408.1 1014.55 414.05 1014.55 420 1018.75 424.2 1022.95 428.4 1028.85 428.4 1034.75 428.4 1038.95 424.2 1043.15 420 1043.15 414.05
M 1046.55 319.1
Q 1045.55 317.3 1042.65 312.65 1038.85 306.6 1036.15 303.8 1031.8 299.25 1026.75 298.35 1024 297.85 1021.2 298.5 1018.4 299.15 1016.05 300.7 1011.35 303.85 1009.3 309.45 1007.1 315.3 1008.85 320.3 1009.55 322.2 1011.4 325.2 1014.4 330.45 1016.3 335.1 1017 337.05 1019.65 347 1022.25 356.9 1022.05 365.6 1021.85 374.3 1022.6 378.3 1023.35 382.25 1026.2 384.8 1029.1 387.4 1032.75 388.3 1036.35 389.25 1040.1 388.3 1043.9 387.4 1046.7 384.9 1050.05 381.95 1052.2 376.6 1053.6 372.85 1054.15 369.7 1054.8 366.2 1054.95 361.2 1055.75 335.95 1046.55 319.1
M 993 78.4
Q 992.05 71.35 982.35 66.5 977.2 63.8 971.5 63.25 947.85 59.9 925.35 68.7 921.9 70 918.95 71.45 910.3 75.6 904.35 81.3 902.55 83 901.7 84.2 899.65 87 899.2 90.55 898.7 94.15 899.95 97.35 901.15 100.6 903.85 102.95 906.55 105.3 909.95 106.1 914.3 107.05 920.25 105.45 924.5 104.35 928.25 102.6 929.55 102.05 932 100.75 934.5 99.5 935.75 98.9 943.6 95.35 954.75 94.1 958.6 93.7 974.65 92.95 981.55 92.65 985.05 91.15 988.85 89.55 991.15 86 993.55 82.3 993 78.4 Z"/>

<path fill="#0968BF" stroke="none" d="
M 900.6 367.85
Q 899 358.9 895.95 350.2 896.85 357.95 896.85 366.05 896.85 423.5 862.8 452.25 861.85 453.05 860.9 453.8 873.4 463.05 887.25 469.5 888.8 470.2 890.35 470.9 893.05 465.15 895.45 457.65 903.1 433.65 903.1 407.15 903.1 382.1 900.6 367.85
M 827.85 192.8
Q 822.05 188.6 818 186.1 830.05 233.05 848.1 248.85 866.1 264.6 889.85 277.15 899 281.95 906.2 285.95 899.2 280.5 893.55 274.45 886.05 266.45 880.1 256.65 876.35 250.4 872.8 238.45 871.35 233.2 870.1 228.75 883.55 223.05 893.2 209.7 906.1 191.9 906.1 169.15 906.1 157.7744140625 902.4 142.6 902.85 147.1833984375 902.85 151.8 902.85 173.75 888.95 189.85 875.2 205.8 856.85 205.8 854.3 205.8 851.75 205.35 846.75 204.4 841.55 201.75 836.8 199.3 827.85 192.8
M 847.3 171.35
Q 838.25 162.65 824.85 162.55 811.45 162.4 800.25 167.3 789.05 172.25 783.15 179.65 777.25 187.1 778.5 190.3 779.7 193.55 779.75 193.85 781.15 189.4 784.8 185.75 790.8 179.8 798.85 179.8 806.25 179.8 814.15 183.85 815.8 184.7 818 186.1 822.05 188.6 827.85 192.8 836.8 199.3 841.55 201.75 846.75 204.4 851.75 205.35 853.85 202.25 855.1 191.15 856.35 180 847.3 171.35 Z"/>

<path fill="#257CCA" stroke="none" d="
M 674.3 320.05
Q 679.4 316.55 682.95 313.3 680.75 313.6 678.1 314.05 666.1 316.05 663.6 316.05 654.55 316.05 650.6 312.15 646.6 308.2 646.6 299.05 646.6 296.1 647.1 293.7 646.5 294.5 645.85 295.35 642.85 299.2 642.25 300.1 638 306.2 638 313.65 638 320 642.05 324.65 646.35 329.65 653 329.65 656.05 329.65 662.05 326.95 668.15 324.2 674.3 320.05
M 709 329.75
Q 711.05 335.85 712.65 344.05 716.6 364.25 716.6 388.05 716.6 416.4 708.85 433.65 701.7 449.5 694.65 455.35 702.1 458.65 712.2 462.45 719.35 452.4 723.7 441.6 731.1 423.2 731.1 400.15 731.1 373.8 726.15 357.5 720.85 340.15 709 329.75
M 704.85 143.55
Q 711 130.45 711.1 111.35 708.55 127.4 701.65 135.7 693.95 145.05 677.6 146.6 668.85 147.1 664.75 147.45 657.6 148.05 653.55 149.8 642.6 154.55 642.6 172.8 642.6 177.9 643.4 181.85 652.85 179.45 659.35 177.4 676.6 171.8 687.1 164.4 699.05 156 704.85 143.55 Z"/>
</g>

<path id="Layer1_0_1_STROKES" stroke="#064270" stroke-width="3" stroke-linejoin="round" stroke-linecap="round" fill="none" d="
M 1348.8 435.3
Q 1332.5 462.1 1311.25 474.85 1288.9 488.25 1261.1 486 1249.55 485.05 1238.35 481.95 1227.85 479.1 1218.3 474.85 1196.45 465.1 1179.15 447.85 1157.55 426.95 1141.05 395.85 1105.25 313.7 1127.15 216.5 1147.05 121.25 1200.8 72.9 1234.95 42.2 1251 58.55 1262.5 70.25 1250.1 88.05
L 1248.5 89.9
Q 1240.2 99.4 1231.55 108.55 1208.1 133.5 1193.05 164.2 1188.15 174.1 1183.5 185 1162.45 240.5 1166.1 297.05 1167.25 310.85 1169.4 324.55 1174.75 358.8 1193.75 388.05 1218.75 429.35 1249.45 439.85 1287.5 452.85 1307.85 419.3"/>

<path id="Layer1_0_2_STROKES" stroke="#183D6F" stroke-width="3" stroke-linejoin="round" stroke-linecap="round" fill="none" d="
M 1430.85 416.2
Q 1451.2 453.05 1490.75 439.55 1521.45 429 1546.45 387.75 1565.5 358.45 1570.85 324.2 1573 310.55 1574.15 296.7 1577.8 240.15 1556.7 184.7 1552.1 173.75 1547.2 163.9 1532.1 133.15 1508.65 108.25 1500.05 99.05 1491.7 89.55
L 1490.1 87.75
Q 1477.75 69.9 1489.25 58.2 1505.3 41.85 1539.45 72.6 1593.15 120.95 1613.1 216.2 1618.65 240.85 1620.5 264.6 1622.35 288 1620.5 310.45 1616.9 354.85 1599.15 395.55 1582.65 426.6 1561.1 447.55 1543.45 465.05 1521.2 474.85 1511.95 478.9 1501.9 481.6 1490.7 484.7 1479.15 485.65 1451.65 487.85 1429.55 474.85 1407.2 461.65 1390.3 433 1388.7 430.3 1387.15 427.5 1385.65 427.95 1384.15 428.45 1376.4 430.8 1373.1 430.55 1363.8 431.1 1356.05 428.75 1354.6 428.3 1353.05 427.8 1351 431.65 1348.8 435.3
M 1307.85 419.3
Q 1310.15 415.45 1312.25 411 1309.35 410.45 1306.45 410.45 1300.95 410.45 1291.45 413 1282.05 415.55 1276.05 415.55 1261.15 415.55 1253 400.9 1245.7 387.8 1245.7 366.9 1245.7 334.8 1258.25 308.4 1261.1 302.45 1264.55 296.9 1256.2 292.95 1249.1 284.2 1238.35 271.1 1238.35 255.65 1238.35 242.75 1247.1 233.85 1253 227.75 1266.2 221.15 1269.65 219.35 1276.4 216 1281.95 213.1 1287.05 208.5 1292.1 203.85 1293.25 197.3 1294.45 190.7 1291.2 184.95 1287.9 179.1 1280.95 171.75 1274 164.4 1270.55 158.3 1267.05 152.15 1267.3 144.3 1267.55 136.5 1272.7 128 1277.8 119.5 1287.4 113.85 1299.7 106.65 1301.5 105.25 1307.9 100.35 1307.9 94.6 1307.9 90.6 1305.25 87.8 1303.6 86 1299.5 83.55 1295.2 81.1 1293.7 79.6 1291.05 77 1291.05 73.4 1291.05 67.7 1296.2 64.25 1300.45 61.3 1305.35 61.3 1315 61.3 1322.55 71.6 1329.85 81.55 1329.85 93.5 1329.85 102.1 1322.75 109.2 1318.5 113.45 1307.15 120.6 1295.85 127.7 1291.6 132 1284.5 139.1 1284.3 146.2 1284.1 153.25 1287.25 157.95 1290.3 162.6 1297 170.2 1303.75 177.75 1307.15 185.35 1310.6 192.9 1309.65 201.45 1308.65 209.95 1300.5 217.95 1295.65 222.75 1282.65 229.65 1269.65 236.55 1264.8 241.35 1256.65 249.35 1256.65 261.15 1256.65 271.2 1267.3 279.55 1269.8 281.5 1273.7 284.05 1279.9 276.35 1287.45 269.65 1313.7 247.1 1347.85 240.55 1348.1 240.5 1348.4 240.5 1347.45 237.5 1347.45 234.4 1347.45 225.95 1352.1 220.3 1355.15 216.65 1362.45 212.25 1370.25 207.55 1372.75 205.05 1377.45 200.3 1377.45 193.45 1377.45 188.35 1373.55 183.05 1371.85 180.7 1365 173.55 1359.05 167.4 1356.45 162.85 1352.55 156.2 1352.55 148.8 1352.55 138.45 1360.6 129.4 1369.1 119.85 1380 119.85 1383.15 119.85 1386.2 122.1 1389.9 124.8 1389.9 129 1389.9 133.5 1386.7 137 1384.65 139.2 1379.65 142.3 1374.35 145.55 1372.6 147.3 1369.4 150.4 1369.4 154.25 1369.4 159.35 1373.65 164.45 1375.95 167.25 1382.95 173.2 1389.55 178.85 1392.2 182.35 1396.45 187.9 1396.45 193.8 1396.45 200.9 1391.55 206.65 1388.35 210.4 1380.75 215.55 1372.5 221.15 1369.9 223.75 1365 228.65 1365 234.4 1365 235.45 1365.75 238.5 1365.75 238.6 1365.8 238.65 1370.85 238.3 1375.95 238.45 1376.4 238.45 1376.9 238.5 1384.6 238.8 1392.35 240.25 1426.5 246.8 1452.8 269.3 1471.4 285.95 1482 308.1 1482.7 309.5 1483.35 310.95 1484.35 313.3 1485.3 315.75 1491.1 311.9 1495 305.6 1498.95 299.25 1498.95 289.65 1498.95 279.95 1490.8 270.7 1482.7 261.4 1466.6 252.6 1450.45 243.8 1444.6 238.35 1434.5 228.95 1434.5 216.1 1434.5 210.7 1436.15 206 1437 203.4 1439.65 198.3 1442.15 193.4 1443.15 190.15 1444.75 184.95 1444.75 178.8 1444.75 171.35 1440.3 165.15 1438.1 162.05 1430.5 154.95 1423.6 148.45 1420.7 143.45 1416.25 135.85 1416.25 126.1 1416.25 120.85 1418.85 114.4 1421.4 108 1425.75 102.35 1435.85 89.15 1446.95 89.15 1451.05 89.15 1453.55 92.1 1455.75 94.7 1455.75 98.3 1455.75 101.85 1452.4 106.2 1451.3 107.75 1445.15 114.5 1440.15 120 1437.85 124 1434.5 129.8 1434.5 135.6 1434.5 143.05 1438.5 148.4 1440.9 151.55 1447.35 156.45 1453.7 161.35 1456.15 164.6 1460.15 170.1 1460.15 177.7 1460.15 186.35 1455 198.65 1452.4 205.05 1451.5 207.9 1449.9 213.15 1449.9 217.95 1449.9 226.05 1459.25 233.4 1464.9 237.8 1479.9 246.85 1495.1 256.7 1504 269.45 1512.95 282.15 1512.7 293.85 1512.4 305.5 1505.55 316.15 1498.7 326.8 1490.6 332.4 1494.55 348.6 1494.55 366.55 1494.55 387.45 1487.2 400.6 1479.05 415.25 1464.15 415.25 1459.1 415.25 1451.45 413.35 1450.15 413.05 1448.75 412.65 1439.3 410.1 1433.8 410.1 1430.85 410.1 1427.95 410.65 1429.35 413.55 1430.85 416.2
M 1365.8 238.7
L 1365.8 238.65
Q 1365.49375 238.69375 1365.275 238.75 1365.49375 238.7 1365.8 238.7 1370.2 238.6 1375.95 238.45
M 1365.275 238.75
L 1364.95 238.75
Q 1356.7 238.95 1348.4 240.5
M 1490.6 332.4
Q 1489.1 326.3 1487.1 320.5 1486.25 318.05 1485.3 315.75
M 1387.15 427.5
Q 1395.35 424.7 1405.65 419.9 1417.95 414.1 1420.2 413.1 1424 411.4 1427.95 410.65
M 1353.05 427.8
Q 1344.9 425.05 1334.6 420.2 1322.3 414.4 1320.05 413.45 1316.2 411.7 1312.25 411
M 1264.55 296.9
Q 1268.7 290.15 1273.7 284.05"/>

<path id="Layer1_0_3_STROKES" stroke="#000000" stroke-width="3" stroke-linejoin="round" stroke-linecap="round" fill="none" d="
M 1325.2 312.75
Q 1325.75 311.85 1326.45 311 1331.45 305.1 1338.55 305.1 1345.6 305.1 1350.6 311 1355.6 316.95 1355.6 325.4 1355.6 333.8 1350.6 339.75 1345.6 345.7 1338.55 345.7 1331.45 345.7 1326.45 339.75 1321.5 333.8 1321.5 325.4 1321.5 321.6 1322.5 318.3 1317.65 318.3 1314.15 310.2
M 1348.55 318.45
Q 1348.55 321.55 1346.35 323.75 1344.15 325.95 1341.05 325.95 1337.95 325.95 1335.75 323.75 1333.55 321.55 1333.55 318.45 1333.55 315.3 1335.75 313.15 1337.95 310.95 1341.05 310.95 1344.15 310.95 1346.35 313.15 1348.55 315.3 1348.55 318.45 Z
M 1318.9 305.8
Q 1320.55 311.45 1325.2 312.75 1323.4 315.3 1322.5 318.3
M 1345.65 365.85
Q 1350.45 380.35 1363.95 383.4 1369.5 384.55 1375.1 383.4 1389.45 379.45 1392.7 364.6
M 1426.05 309.85
Q 1422.6 317.95 1417.75 317.95 1418.75 321.25 1418.75 325.05 1418.75 333.45 1413.8 339.4 1408.75 345.35 1401.7 345.35 1394.65 345.35 1389.65 339.4 1384.65 333.45 1384.65 325.05 1384.65 316.65 1389.65 310.7 1394.65 304.75 1401.7 304.75 1408.75 304.75 1413.8 310.7 1414.45 311.5 1415.05 312.4 1419.65 311.1 1421.3 305.5
M 1391.65 318.1
Q 1391.65 321.2 1393.85 323.4 1396.05 325.6 1399.15 325.6 1402.3 325.6 1404.5 323.4 1406.7 321.2 1406.7 318.1 1406.7 315 1404.5 312.8 1402.3 310.6 1399.15 310.6 1396.05 310.6 1393.85 312.8 1391.65 315 1391.65 318.1 Z
M 1417.75 317.95
Q 1416.8 314.95 1415.05 312.4"/>

<path id="Layer0_0_1_STROKES" stroke="#064270" stroke-width="3" stroke-linejoin="round" stroke-linecap="round" fill="none" d="
M 705.7 62.35
Q 716.5 55.7 730.3 50.75 755.2 41.8 779.85 41.8 801.15 41.8 823.2 50.35 845 58.85 862.8 73.85 864.65 75.4 866.45 77.05 881.5 62.9 899.3 55.5 922.6 45.8 955.85 45.8 976.35 45.8 997.5 53.85 1018.2 61.8 1035.2 75.8 1052.7 90.25 1062.55 108.25 1073.1 127.5 1074.1 140.75 1075.05 154 1074.45 164.1 1073.8 174.2 1069.85 184.3 1065.9 194.35 1057.1 201.95 1048.25 209.55 1036.4 211.2 1024.5 212.8 1015.55 209 1006.6 205.2 997.75 198.2 988.9 191.15 983.45 188.5 977.95 185.8 969.6 185.8 961.25 185.8 956.2 191.5 951.1 197.15 951.1 208.3 951.1 219.45 967.05 232.65 982.95 245.8 1017.3 268.9 1038.8 283.4 1052.35 302.5 1071.1 328.9 1071.1 366.05 1071.1 393.2 1060.1 415.85 1049.9 436.9 1031.2 452.3 1013.5 466.9 990.4 474.7 967.9 482.3 943.85 482.3 916.35 482.3 890.35 470.9 888.8 470.2 887.25 469.5 873.4 463.05 860.9 453.8 830.3 478.3 776.85 478.3 755.85 478.3 719.65 465.2 715.75 463.8 712.2 462.45 702.1 458.65 694.65 455.35 693.95 455.85 693.35 456.35 685.6 461.7 661.9 464.95 638.15 468.2 608.4 468.85 578.6 469.5 563.9 467.8 549.15 466.05 540.6 459.95 533.8 467.35 524.5 472.35 508.6 480.95 482.3 484 462.75 486.3 426.35 486.3 403.45 486.3 391.5 484.4 376 481.95 367.05 475.1 357.25 467.55 353.5 450.95 350.8 439.15 349.5 432.3 343.35 369.15 342.9 305.55 342.2 206.6 348.75 107.85 353.1 75.65 365.3 60.65 377.45 45.65 408.15 45.55 438.8 45.45 457.35 47 475.9 48.55 482.4 55.55 488.7 62.3 490.8 76.25 492.35 86.9 492.35 111.8 492.35 157.7 488 215.3 486.6 233.7 478.35 325.85 480.5 325.45 490.65 324.4 496.85 323.7 507.35 323.75 503.95 301.4 503 282.7 502.35 270.7 502.35 228.8 501.4 164.8 502.2 140.9 503.45 102.45 512.4 83.75 516.85 74.45 524.2 67.45 533.95 58.1 548.85 52.85 575.25 43.55 627.6 43.55 650.85 43.55 661.75 44.4 678.5 45.65 688.65 49.6 699.8 53.95 705.65 62.4
L 705.7 62.35 Z
M 706.3 63.4
Q 712.6 73.35 712.6 89.8 712.6 101.9 711.1 111.35
M 643.4 181.85
Q 644.4 186.75 646.65 189.85 651 195.8 660.6 195.8 663.1 195.8 672.1 193.8 681.1 191.8 683.6 191.8 706.6 191.8 706.6 237.8 706.6 254.45 702.55 264.55 704.25 265.5 715.4 273 726.55 280.45 747.25 291.85 767.95 303.2 769.05 313.2 770.1 323.2 765.8 329.25 761.5 335.25 751.2 336.05 740.9 336.9 726.25 331.3 711.55 325.7 706.1 322.8 707.65 325.85 709 329.75
M 851.75 205.35
Q 854.3 205.8 856.85 205.8 875.2 205.8 888.95 189.85 902.85 173.75 902.85 151.8 902.85 147.1833984375 902.425 142.625 902.4080078125 142.532421875 902.4 142.45 902.35 142.35 902.35 142.25 900.45 125.1 891.7 108.75 882.35 91.3 866.45 77.05
M 906.2 285.95
Q 899 281.95 889.85 277.15 866.1 264.6 848.1 248.85 830.05 233.05 818 186.1 815.8 184.7 814.15 183.85 806.25 179.8 798.85 179.8 790.8 179.8 784.8 185.75 781.15 189.4 779.75 193.85 778.85 196.65 778.85 199.8 778.85 211.65 797.3 226.75 802.7 231.2 816.2 241 830.35 251.25 837.85 257.25 864.65 278.65 878.4 300.55 886.9 314.05 891.5 329.05 918.05 342.35 929.45 339.7 940.85 337 942.8 329.7 944.75 322.35 939.7 312.9 934.65 303.45 924.1 296.55 917.6 292.3 906.2 285.95 Z
M 851.75 205.35
Q 846.75 204.4 841.55 201.75 836.8 199.3 827.85 192.8 822.05 188.6 818 186.1
M 705.65 62.4
Q 706 62.9 706.3 63.4
M 711.1 111.35
Q 708.55 127.4 701.65 135.7 693.95 145.05 677.6 146.6 668.85 147.1 664.75 147.45 657.6 148.05 653.55 149.8 642.6 154.55 642.6 172.8 642.6 177.9 643.4 181.85
M 702.55 264.55
Q 700.45 269.8 697.25 273.3 690.55 280.6 676.6 281.55 669.1 281.8 665.6 281.9 659.4 282.15 656 283.2 648.75 285.5 647.1 293.7 646.6 296.1 646.6 299.05 646.6 308.2 650.6 312.15 654.55 316.05 663.6 316.05 666.1 316.05 678.1 314.05 680.75 313.6 682.95 313.3 690.65 312.05 692.6 312.05 700.6 312.05 706.1 322.8
M 709 329.75
Q 711.05 335.85 712.65 344.05 716.6 364.25 716.6 388.05 716.6 416.4 708.85 433.65 701.7 449.5 694.65 455.35
M 895.95 350.2
Q 896.85 357.95 896.85 366.05 896.85 423.5 862.8 452.25 861.85 453.05 860.9 453.8
M 891.5 329.05
Q 894.6 339.25 895.95 350.2
M 540.6 459.95
Q 546.9 453.05 551.1 444.1 560.35 424.3 560.35 392.05 560.35 358.45 552 341.65 545.1 327.8 529.4 324.85 526 324.2 522.2 324.05 513.9 323.75 507.35 323.75
M 265.75 210.5
Q 271.15 211.1 278.95 210.55 293.6 209.55 305.6 194.55 317.6 179.5 317.6 158.55 317.6 138.35 310.75 122.4 303.9 106.4 290.05 89.95 276.2 73.5 261 65.3 245.75 57.05 233.7 52.9 203.2 44.3 175.65 49.45 124.3 59.25 93.3 100.25 69.8 131.25 65 169.6 64.35 179.35 65.6 189.1 69.45 218.7 83.65 236.75 97.85 254.8 127.6 273.05 135.6 277.95 151.1 287.1 164.3 295 171.6 300.4 191.6 315.1 192.5 325.85 193.4 336.6 187.15 341.95 180.85 347.25 169.65 346.4 158.45 345.55 152 341.9 145.5 338.25 136.7 330.55 127.9 322.85 115.55 319.95 103.2 317.05 88.8 318.95 74.35 320.85 60.25 340.6 46.15 360.3 49.6 388.4 53.05 416.5 63.4 431.6 73.7 446.65 95.4 460.05 117.05 473.45 144.1 479.75 168.9 485.55 192.6 485.55 217.2 485.55 239.15 477.3 261.15 469.05 277.65 453.6 294.7 437.6 303.9 415.85 313.6 392.85 313.6 365.55 313.6 329.3 295.15 302.4 281.75 282.85 254.6 264.2 250.25 261.25 232.95 250.05 220.45 242 214.05 236.9 195.6 222.2 195.6 206.55 195.6 200.05 198.2 195.65
L 198.625 194.975
M 265.75 210.5
Q 260.9 209.95 257.9 208.55 251.55 205.55 242.6 199.55 233.65 193.55 228.9 191.3 221 187.55 213.6 187.55 206.45 187.55 201.6 191.6 199.8078125 193.053125 198.625 194.975"/>
</defs>

<g transform="matrix( 1, 0, 0, 1, 0,0) ">
<use xlink:href="#Layer1_0_FILL"/>

<use xlink:href="#Layer1_0_1_STROKES"/>

<use xlink:href="#Layer1_0_2_STROKES"/>

<use xlink:href="#Layer1_0_3_STROKES"/>
</g>

<g transform="matrix( 1, 0, 0, 1, 0,0) ">
<use xlink:href="#Layer0_0_FILL"/>

<use xlink:href="#Layer0_0_1_STROKES"/>
</g>
</svg>
