
<svg xmlns="http://www.w3.org/2000/svg" version="1.1" xmlns:xlink="http://www.w3.org/1999/xlink" preserveAspectRatio="none" x="0px" y="0px" width="1350px" height="621px" viewBox="0 0 1350 621">
<defs>
<linearGradient id="Gradient_1" gradientUnits="userSpaceOnUse" x1="1044.875" y1="300.3375" x2="1046.8249999999998" y2="188.1625" spreadMethod="pad">
<stop  offset="26.666666666666668%" stop-color="#0090F8"/>

<stop  offset="100%" stop-color="#59A7F5"/>
</linearGradient>

<linearGradient id="Gradient_2" gradientUnits="userSpaceOnUse" x1="1016.5374999999999" y1="523.3375" x2="1043.5625" y2="366.1625" spreadMethod="pad">
<stop  offset="26.666666666666668%" stop-color="#53D5FD"/>

<stop  offset="100%" stop-color="#AAEAFD"/>
</linearGradient>

<linearGradient id="Gradient_3" gradientUnits="userSpaceOnUse" x1="1095.6625000000001" y1="509.2875" x2="1069.2375" y2="269.9125" spreadMethod="pad">
<stop  offset="26.666666666666668%" stop-color="#0090F8"/>

<stop  offset="100%" stop-color="#59A7F5"/>
</linearGradient>

<linearGradient id="Gradient_4" gradientUnits="userSpaceOnUse" x1="983.2375" y1="511.09999999999997" x2="1021.7625" y2="322.7" spreadMethod="pad">
<stop  offset="26.666666666666668%" stop-color="#53D5FD"/>

<stop  offset="100%" stop-color="#AAEAFD"/>
</linearGradient>

<linearGradient id="Gradient_5" gradientUnits="userSpaceOnUse" x1="862.3375" y1="431.21250000000003" x2="1022.7624999999999" y2="346.4875" spreadMethod="pad">
<stop  offset="26.666666666666668%" stop-color="#0090F8"/>

<stop  offset="100%" stop-color="#59A7F5"/>
</linearGradient>

<linearGradient id="Gradient_6" gradientUnits="userSpaceOnUse" x1="744.9" y1="198.89999999999998" x2="945.3000000000001" y2="320.9" spreadMethod="pad">
<stop  offset="26.666666666666668%" stop-color="#0090F8"/>

<stop  offset="100%" stop-color="#59A7F5"/>
</linearGradient>

<linearGradient id="Gradient_7" gradientUnits="userSpaceOnUse" x1="1207.2250000000001" y1="304.9" x2="1086.075" y2="304.9" spreadMethod="pad">
<stop  offset="26.666666666666668%" stop-color="#0090F8"/>

<stop  offset="100%" stop-color="#59A7F5"/>
</linearGradient>

<g id="Layer3_0_FILL">
<path fill="#BA6E4A" stroke="none" d="
M 874.45 339.6
Q 863.9171875 333.24453125 855.45 323.95
L 855.45 367.6
Q 858.137109375 368.5044921875 860.8 369.75 867.2181640625 372.7099609375 874.45 382.6
L 874.45 339.6
M 855.45 279.35
Q 859.3947265625 287.8634765625 862.75 293.75 868.294921875 303.4810546875 874.45 310.15
L 874.45 61.55 32.1 61.55 32.1 468.8 874.45 468.8 874.45 442
Q 865.119921875 427.735546875 862.1 423.3 859.7146484375 419.7865234375 855.45 416.05
L 855.45 449.8 51.1 449.8 51.1 80.55 855.45 80.55 855.45 279.35 Z"/>

<path fill="#183D6F" stroke="none" d="
M 952.9 218.7
Q 954.256640625 219.0751953125 955.8 219.55 959.4330078125 220.5408203125 962.65 221.5 963.3376953125 221.7408203125 964 221.95 964.1 221.7 964.55 219.15
L 964.5 219.15
Q 962.212109375 218.48671875 959.25 217.7 958.8 217.6 958.25 217.45 955.9021484375 216.8630859375 954.15 216.4 953.9794921875 216.3484375 953.8 216.3 953.45 216.25 953.15 216.15 950.7 215.45 949.5 215.15 949.25 215.6 949 216.15 948.55 216.9 948.25 217.5 949.55 217.8 951.2 218.25 951.65 218.35 952.2 218.5 952.544140625 218.59375 952.9 218.7
M 1131.1 222.75
Q 1121 222.75 1107.5 224.25 1095.29453125 225.734375 1091.85 225.95 1092.1162109375 227.55859375 1092.2 229.2 1122.5966796875 226.45078125 1129.25 226.7 1135.94453125 226.9548828125 1142.5 231 1144.0375 231.8130859375 1146.1 232.9 1149.25 234.3 1152.15 234.3 1152.85 234.3 1153.7 234.05 1154.5 233.8 1154.65 233.8 1157.3603515625 231.3185546875 1149.75 227.75 1142.1330078125 224.193359375 1139.8 223.65 1135.67421875 222.75 1131.1 222.75 Z"/>

<path fill="#CED8E6" stroke="none" d="
M 778 377.6
Q 778.0837890625 380.5025390625 779.9 384.1
L 812.3 393.45
Q 811.7802734375 390.405859375 812.45 386.6
L 778 377.6
M 695.3 175.65
Q 694.0091796875 179.21875 695.75 184
L 730.1 192.5
Q 730.2056640625 190.44296875 730.65 188.25 731.0642578125 186.4046875 731.95 184.8
L 695.3 175.65 Z"/>

<path fill="#FFFFFF" stroke="none" d="
M 779.95 372.2
Q 778.367578125 373.9431640625 778.1 376.2
L 778.1 376.25
Q 778.0087890625 376.9142578125 778 377.6
L 812.45 386.6
Q 812.713671875 385.3033203125 813.1 383.9 814 380.55 815.65 377.95
L 783.85 369.4
Q 781.3638671875 370.5955078125 779.95 372.2
M 699 171
Q 696.3005859375 172.9853515625 695.3 175.65
L 731.95 184.8
Q 733.9662109375 181.2287109375 737.65 179
L 699 171
M 997.75 216.2
Q 995.2 216.2 993.4 217.95 991.65 219.75 991.65 222.3 991.65 224.85 993.4 226.6 995.2 228.4 997.75 228.4 1000.3 228.4 1002.05 226.6 1003.85 224.85 1003.85 222.3 1003.85 219.75 1002.05 217.95 1000.3 216.2 997.75 216.2
M 1061.9 222.65
Q 1061.1279296875 221.8779296875 1060.2 221.45 1059.025 220.9 1057.6 220.9 1055.05 220.9 1053.25 222.65 1051.5 224.45 1051.5 227 1051.5 229.55 1053.25 231.3 1055.05 233.1 1057.6 233.1 1059.025 233.1 1060.2 232.55 1061.1279296875 232.094140625 1061.9 231.3 1063.7 229.55 1063.7 227 1063.7 224.45 1061.9 222.65 Z"/>

<path fill="#294627" stroke="none" d="
M 695.3 175.65
Q 696.3005859375 172.9853515625 699 171
L 737.65 179
Q 745.647265625 173.905078125 761.55 175.35 777.458984375 176.799609375 796.85 189.85 816.290234375 202.894921875 828.45 223.8 835.1443359375 235.3091796875 840.15 245.2 844.237890625 253.318359375 847.2 260.35 848.35390625 263.1013671875 849.65 266.2 851.4767578125 270.5326171875 853.2 274.4 854.3482421875 276.98125 855.45 279.35
L 855.45 80.55 51.1 80.55 51.1 449.8 855.45 449.8 855.45 416.05
Q 853.497265625 414.386328125 851.15 412.65 843.666015625 407.1361328125 837.9 407.5 832.191796875 407.866796875 827.05 407.25 821.95390625 406.6345703125 817.85 403.05 813.7458984375 399.508203125 812.55 394.55 812.35 394.05 812.3 393.45
L 779.9 384.1
Q 778.0837890625 380.5025390625 778 377.6 778.0087890625 376.9142578125 778.1 376.25
L 778.1 376.2
Q 778.367578125 373.9431640625 779.95 372.2 781.3638671875 370.5955078125 783.85 369.4
L 815.65 377.95
Q 823.2669921875 367.4640625 835.75 365.7 841.4853515625 364.8974609375 847.2 365.65 850.1994140625 366.07890625 853.2 366.9 854.325 367.2373046875 855.45 367.6
L 855.45 323.95
Q 854.30625 322.7076171875 853.2 321.4 850.046875 317.6845703125 847.2 313.5 843.402734375 307.976953125 840.15 301.65 838.1466796875 297.762109375 836.35 293.55 818.0849609375 251.001171875 800.5 239.3 777.203125 223.7166015625 754.2 219.05 729.045703125 214.197265625 730.1 192.5
L 695.75 184
Q 694.0091796875 179.21875 695.3 175.65 Z"/>

<path fill="url(#Gradient_1)" stroke="none" d="
M 980.75 201.4
Q 984.3599609375 198.384765625 987.35 195.95 978.3185546875 196.909765625 971.65 204.45 967.968359375 208.612890625 966.05 213.55 971.9384765625 208.788671875 980.75 201.4
M 1108.05 308.35
L 1106.4 308.05 1106.4 308.1
Q 1107.015234375 308.18984375 1107.65 308.3
L 1108.05 308.35
M 1016.15 225.25
Q 1016.15 224.4 1016.1 223.6 1016 221.9 1015.85 220.3 1014.55 211.3 1008.5 204.45 1003.3205078125 198.5548828125 996.65 196.65 990.363671875 201.4607421875 985.9 204.95 973.3703125 214.7353515625 964.05 223.3 964 224.27734375 964 225.25 964 237.45 971.65 246.05 979.3 254.7 990.1 254.7 1000.9 254.7 1008.5 246.05 1015.2267578125 238.487890625 1016.05 228.15 1016.15 226.722265625 1016.15 225.25
M 995.8 211.5
Q 1001.65 211.5 1005.8 216.55 1009.95 221.6 1009.95 228.75 1009.95 235.9 1005.8 240.95 1001.65 246 995.8 246 989.95 246 985.8 240.95 981.65 235.9 981.65 228.75 981.65 224.55625 983.05 221.05 980.2400390625 220.7306640625 978.4 217.8 980.2400390625 220.7306640625 983.05 221.05 983.96328125 218.9279296875 985.4 217.05 982.7701171875 216.04609375 981.9 212.05 982.7701171875 216.04609375 985.4 217.05 985.5958984375 216.7982421875 985.8 216.55 989.95 211.5 995.8 211.5
M 1092.2 229.2
Q 1092.25 230.04765625 1092.25 230.9 1092.25 243.1 1083.6 251.7 1075 260.35 1062.8 260.35 1061.479296875 260.35 1060.2 260.25 1049.6634765625 259.4134765625 1041.95 251.7 1033.35 243.1 1033.35 230.9 1033.35 229.6173828125 1033.45 228.35 1032.683203125 227.7869140625 1031.8 227.3 1028.6 225.5 1024.85 225.5 1022.15 225.5 1018.4 227.05 1017.1740234375 227.55390625 1016.05 228.15 1015.2267578125 238.487890625 1008.5 246.05 1000.9 254.7 990.1 254.7 979.3 254.7 971.65 246.05 964 237.45 964 225.25 964 224.27734375 964.05 223.3 964.069140625 222.8966796875 964.1 222.45 963.3681640625 221.993359375 962.65 221.5 959.4330078125 220.5408203125 955.8 219.55 954.256640625 219.0751953125 952.9 218.7 947.578125 230.448046875 944.7 240.45 941.8712890625 250.459765625 943.05 262.35 944.2314453125 274.2900390625 951.55 278.55 958.918359375 282.8015625 962.2 283.9 965.859765625 285.1869140625 970.45 286 976.7 287.05 988.85 287.8 991.17734375 287.947265625 993.5 288.4 997.553515625 289.2833984375 1001.55 291.15 1003.040625 291.871484375 1004.5 292.7 1010.4 296.05 1017.9 302.85 1020.0935546875 304.846875 1022.15 306.5 1026.6546875 310.0798828125 1030.6 312.05 1030.88203125 312.2205078125 1031.15 312.35 1034.2826171875 313.841796875 1037.7 314.7 1041.2142578125 315.5671875 1045 315.75 1046.2482421875 315.85 1047.5 315.85 1050.8134765625 315.85 1060.2 313.15 1063.560546875 312.168359375 1067.7 310.85 1068.5861328125 310.566796875 1069.45 310.3 1072.502734375 309.345703125 1075.15 308.6 1077.7751953125 307.86796875 1080 307.3
L 1080 307.3
Q 1080.10859375 307.2900390625 1080.2 307.25 1084.480859375 306.19609375 1086.95 306.1 1089.4240234375 306.00390625 1094 306.35 1094.5419921875 306.35 1095 306.35 1095.173046875 306.35 1106.4 308.1
L 1106.4 308.05 1106.35 308
Q 1111.7646484375 308.85 1114.3 308.85 1131.35 308.85 1140.1 292.35 1147.1 279.2 1147.1 260.25 1147.1 245.44375 1142.5 231 1135.94453125 226.9548828125 1129.25 226.7 1122.5966796875 226.45078125 1092.2 229.2
M 1011.45 266.05
Q 1007.796484375 261.4162109375 1008.45 252.6
L 1038.5 252.6
Q 1038.678125 260.280078125 1036.2 264.7 1034.536328125 267.6484375 1031.7 269.15 1025.2 272.4578125 1017.95 270.35 1013.8177734375 269.069140625 1011.45 266.05
M 1062.8 201.45
Q 1061.479296875 201.45 1060.2 201.55 1049.6634765625 202.3865234375 1041.95 210.1 1034.2578125 217.8369140625 1033.45 228.35 1033.35 229.6173828125 1033.35 230.9 1033.35 243.1 1041.95 251.7 1049.6634765625 259.4134765625 1060.2 260.25 1061.479296875 260.35 1062.8 260.35 1075 260.35 1083.6 251.7 1092.25 243.1 1092.25 230.9 1092.25 230.04765625 1092.2 229.2 1092.1162109375 227.55859375 1091.85 225.95 1090.43359375 216.93359375 1083.6 210.1 1075 201.45 1062.8 201.45
M 1065.95 221.65
Q 1069.55 221.047265625 1071.3 217.3 1069.55 221.047265625 1065.95 221.65 1067.466796875 223.5900390625 1068.35 225.8 1072.0484375 225.879296875 1074.8 222.8 1072.0484375 225.879296875 1068.35 225.8 1069.8 229.283203125 1069.8 233.45 1069.8 240.6 1065.65 245.65 1063.2171875 248.6103515625 1060.2 249.8 1058.0705078125 250.7 1055.65 250.7 1049.8 250.7 1045.65 245.65 1041.5 240.6 1041.5 233.45 1041.5 226.3 1045.65 221.25 1049.8 216.2 1055.65 216.2 1058.070703125 216.2 1060.2 217.05 1063.2171875 218.2896484375 1065.65 221.25 1065.8091796875 221.4435546875 1065.95 221.65
M 990.1 195.8
Q 993.5396484375 195.8 996.65 196.65 1003.3205078125 198.5548828125 1008.5 204.45 1014.55 211.3 1015.85 220.3 1016 221.9 1016.1 223.6 1016.15 224.4 1016.15 225.25 1016.15 226.722265625 1016.05 228.15 1017.1740234375 227.55390625 1018.4 227.05 1022.15 225.5 1024.85 225.5 1028.6 225.5 1031.8 227.3 1032.683203125 227.7869140625 1033.45 228.35 1034.2578125 217.8369140625 1041.95 210.1 1049.6634765625 202.3865234375 1060.2 201.55 1061.479296875 201.45 1062.8 201.45 1075 201.45 1083.6 210.1 1090.43359375 216.93359375 1091.85 225.95 1095.29453125 225.734375 1107.5 224.25 1121 222.75 1131.1 222.75 1135.67421875 222.75 1139.8 223.65 1132.6392578125 205.784765625 1119.55 191.75 1105.85 177 1087.95 168.85 1074.6837890625 162.838671875 1060.2 160.95 1053.721875 160.15 1047 160.15 1023.7 160.15 997.65 174.7 975.75 186.9 961.15 206.35 956.77734375 212.2005859375 954.15 216.4 955.9021484375 216.8630859375 958.25 217.45 958.8 217.6 959.25 217.7 962.212109375 218.48671875 964.5 219.15 965.044140625 216.24609375 966.05 213.55 967.968359375 208.612890625 971.65 204.45 978.3185546875 196.909765625 987.35 195.95 988.714453125 195.8 990.1 195.8 Z"/>

<path fill="#006CAF" stroke="none" d="
M 1080.2 307.25
Q 1080.10859375 307.2900390625 1080 307.3
L 1080 307.3
Q 1080.119921875 307.3001953125 1080.2 307.25
M 1106.4 308.1
Q 1098.284765625 306.9267578125 1094 306.35 1089.4525390625 306.444140625 1080.2 307.25 1080.119921875 307.3001953125 1080 307.3 1082.0044921875 311.0572265625 1083.3 313.15 1085.15 312.5 1086.75 312.2 1091.25 311.35 1100 311.35 1104.15 311.35 1108.95 312.65 1107.6626953125 310.2974609375 1106.4 308.1
M 1106.4 308.1
L 1106.4 308.1
Q 1095.173046875 306.35 1095 306.35 1094.5419921875 306.35 1094 306.35 1098.284765625 306.9267578125 1106.4 308.1
M 1106.4 308.1
Q 1107.0248046875 308.202734375 1107.65 308.3 1107.015234375 308.18984375 1106.4 308.1
L 1106.4 308.1
M 1047.5 315.85
Q 1046.2482421875 315.85 1045 315.75 1046.4296875 319.18515625 1047.7 322.4 1054.2634765625 320.903515625 1059.95 319.2 1060.0751953125 319.162109375 1060.2 319.1 1067.121875 317.01328125 1072.75 314.6 1072.514453125 314.28828125 1072.25 313.95 1070.759375 312.0498046875 1069.45 310.3 1068.5861328125 310.566796875 1067.7 310.85 1063.560546875 312.168359375 1060.2 313.15 1050.8134765625 315.85 1047.5 315.85
M 997.85 295
Q 999.5021484375 295.8248046875 1000.9 296.85 1003.8 298.95 1010.05 304.5 1014.6525390625 308.54453125 1017.8 311.1 1019.925 308.7841796875 1022.15 306.5 1020.0935546875 304.846875 1017.9 302.85 1010.4 296.05 1004.5 292.7 1003.040625 291.871484375 1001.55 291.15 999.68203125 293.103125 997.85 295
M 976.85 292.35
Q 983.292578125 292.2806640625 986.9 292.45 990.3271484375 290.094921875 993.5 288.4 991.17734375 287.947265625 988.85 287.8 976.7 287.05 970.45 286 965.859765625 285.1869140625 962.2 283.9 959.1404296875 286.09375 956.1 288.75 959.6234375 290.6546875 963.85 291.5 968.5 292.45 976.85 292.35 Z"/>

<path fill="url(#Gradient_2)" stroke="none" d="
M 1048.2 323.65
Q 1048.0154296875 323.1814453125 1047.8 322.7 1046.3673828125 322.9 1045 322.9 1040.2021484375 322.9 1035.15 321.2 1034.1427734375 324.0048828125 1033.15 327.15 1030.5837890625 335.2642578125 1029.25 342.1 1027.9 349.24921875 1027.9 355 1027.9 362.75 1029.45 368.95 1030.35 372.5 1032.9 378.9 1037.9 391.45 1037.9 404.5 1037.9 412.5 1035 420.7 1033.15 426 1028.65 434.7 1023.85 443.9 1022.3 448 1019.4052734375 455.5498046875 1019.6 461.2 1019.8341796875 466.8505859375 1024.15 482 1028.52109375 497.19921875 1014.4 514.65 1005.6234375 524.675 1014.4 532.75 1022.40390625 537.3314453125 1031.3 523.85 1035.0107421875 518.2626953125 1037.45 507.2 1039.9 499.25 1039 490.95 1038.2 483.3 1036.35 475.65
L 1036.4 475.65 1036.25 475.2
Q 1033.85 467.1 1033.15 458.45 1033.1 457.55 1033.1 456.65 1033.9240234375 449.449609375 1038 439.7 1048.5 414.7869140625 1048.5 396.75 1048.5 387.45 1043.95 376.2 1039.4 364.95 1039.4 356.65 1039.4 351.17578125 1041.9 342.1 1043.037890625 338.078515625 1044.65 333.35 1046.60078125 327.5595703125 1048.2 323.65 Z"/>

<path fill="url(#Gradient_3)" stroke="none" d="
M 1047.8 322.7
Q 1048.0154296875 323.1814453125 1048.2 323.65 1052.0998046875 333.6068359375 1054.9 342.1 1062.5 364.75234375 1062.5 377 1062.5 394.9 1054 432.2 1049.65 451.3 1048.15 459.55 1045.5 474.25 1045.5 484.6 1045.5 507.15 1060.5 520.75 1074.85 533.75 1097 533.75 1114 533.75 1127.65 521.8 1141.6 509.55 1141.6 493.6 1141.6 483.4 1137.6 477.6 1132.8 470.6 1122.5 470.6 1118.6 470.6 1113.55 474.5 1110.4478515625 476.8962890625 1107.1 484.75 1103.8060546875 492.6111328125 1099.55 495.5 1095.34375 498.3888671875 1088.95 497 1082.551953125 495.6037109375 1078.55 489.55 1074.5 483.5 1074.5 476.6 1074.5 469.65 1077.45 457.9 1078.1 455.4 1084 434.8 1093.5 401.6 1093.5 380.5 1093.5 369.95 1090.4 356.75 1088.25 347.65 1083.5 333.5 1080.59609375 324.7884765625 1072.75 314.6 1067.121875 317.01328125 1060.2 319.1 1060.0751953125 319.162109375 1059.95 319.2 1054.2634765625 320.903515625 1047.7 322.4 1047.7787109375 322.5654296875 1047.8 322.7 Z"/>

<path fill="url(#Gradient_4)" stroke="none" d="
M 1020.3 313.05
Q 1019.1953125 312.2177734375 1017.8 311.1 1006.563671875 323.5259765625 999.45 337 999.365234375 337.433203125 999.25 337.85 998.6693359375 339.9818359375 998.2 342.1 995.9 352.20390625 995.9 362 995.9 371.9 1001.15 387.3 1006.4 402.7 1006.4 411.8 1006.4 421.05 1001.35 432.1 998.20234375 439.1048828125 994.3 445.1 990.4458984375 451.13984375 977.75 471.45 965.0478515625 491.7498046875 971.35 515.7 976.25 528.675390625 983.1 530.7 989.94453125 532.7224609375 992.1 527.4 994.3123046875 522.1361328125 987.35 510.65 981.007421875 494.7517578125 991.4 477.4 1001.792578125 460.0982421875 1009.5 450.2 1015.15 442.75 1017.7 435.95 1020.9 427.4 1020.9 416.5 1020.9 401.7 1014.65 384.45 1011.25 375.1 1010.35 371.8 1008.4 364.65 1008.4 358 1008.4 349.8970703125 1010.8 342.1 1012.76953125 335.8001953125 1016.3 329.7 1020.2158203125 322.9208984375 1025.85 316.8 1023.1083984375 315.16171875 1020.3 313.05 Z"/>

<path fill="#3AABCE" stroke="none" d="
M 1030.6 312.05
Q 1026.6546875 310.0798828125 1022.15 306.5 1019.925 308.7841796875 1017.8 311.1 1019.1953125 312.2177734375 1020.3 313.05 1023.1083984375 315.16171875 1025.85 316.8 1028.0880859375 314.394140625 1030.6 312.05
M 1045 315.75
Q 1041.2142578125 315.5671875 1037.7 314.7 1036.4263671875 317.669921875 1035.15 321.2 1040.2021484375 322.9 1045 322.9 1046.3673828125 322.9 1047.8 322.7 1047.7787109375 322.5654296875 1047.7 322.4 1046.4296875 319.18515625 1045 315.75 Z"/>

<path fill="url(#Gradient_5)" stroke="none" d="
M 1000.9 296.85
Q 999.5021484375 295.8248046875 997.85 295 976.3404296875 318.1763671875 968.2 342.1 965.0484375 351.3423828125 963.9 360.7 962.29453125 373.77421875 961.25 383.05 961.05 385.25 960.9 387.5 960.23125 397.9 959.05 408.3 958.3 413.6 957.4 418.85 955.5 429.5 948.15 436.8 946.0314453125 438.8416015625 943.35 440.75 934.09609375 446.31796875 921.25 443.8 904.8611328125 440.3646484375 889.1 407.95 881.3890625 392.08515625 874.45 382.6 867.2181640625 372.7099609375 860.8 369.75 858.137109375 368.5044921875 855.45 367.6 854.325 367.2373046875 853.2 366.9 850.1994140625 366.07890625 847.2 365.65 841.4853515625 364.8974609375 835.75 365.7 823.2669921875 367.4640625 815.65 377.95 814 380.55 813.1 383.9 812.713671875 385.3033203125 812.45 386.6 811.7802734375 390.405859375 812.3 393.45 812.35 394.05 812.55 394.55 813.7458984375 399.508203125 817.85 403.05 821.95390625 406.6345703125 827.05 407.25 832.191796875 407.866796875 837.9 407.5 843.666015625 407.1361328125 851.15 412.65 853.497265625 414.386328125 855.45 416.05 859.7146484375 419.7865234375 862.1 423.3 865.119921875 427.735546875 874.45 442 875.8763671875 444.210546875 877.45 446.6 878.513671875 448.2576171875 879.6 449.8 888.5783203125 462.1884765625 900.8 468.8 904.071875 470.553125 907.55 471.9 945.906640625 479.4134765625 971.65 450.3 986.276171875 433.772265625 987.45 383.35 987.993359375 361.62578125 996.95 342.1 998.153515625 339.5439453125 999.45 337 1006.563671875 323.5259765625 1017.8 311.1 1014.6525390625 308.54453125 1010.05 304.5 1003.8 298.95 1000.9 296.85 Z"/>

<path fill="url(#Gradient_6)" stroke="none" d="
M 986.9 292.45
Q 983.292578125 292.2806640625 976.85 292.35 968.5 292.45 963.85 291.5 959.6234375 290.6546875 956.1 288.75 955.30234375 289.4587890625 954.5 290.2 951.95 292.55 939.6 305.85 930.95 315.15 924.4 319.25 915.25 324.9 904.5 324.9 887.9974609375 324.9 874.45 310.15 868.294921875 303.4810546875 862.75 293.75 859.3947265625 287.8634765625 855.45 279.35 854.3482421875 276.98125 853.2 274.4 851.4767578125 270.5326171875 849.65 266.2 848.35390625 263.1013671875 847.2 260.35 844.237890625 253.318359375 840.15 245.2 835.1443359375 235.3091796875 828.45 223.8 816.290234375 202.894921875 796.85 189.85 777.458984375 176.799609375 761.55 175.35 745.647265625 173.905078125 737.65 179 733.9662109375 181.2287109375 731.95 184.8 731.0642578125 186.4046875 730.65 188.25 730.2056640625 190.44296875 730.1 192.5 729.045703125 214.197265625 754.2 219.05 777.203125 223.7166015625 800.5 239.3 818.0849609375 251.001171875 836.35 293.55 838.1466796875 297.762109375 840.15 301.65 843.402734375 307.976953125 847.2 313.5 850.046875 317.6845703125 853.2 321.4 854.30625 322.7076171875 855.45 323.95 863.9171875 333.24453125 874.45 339.6 876.62890625 340.9126953125 878.9 342.1 886.123828125 345.8861328125 894.25 348.4 910.3822265625 350.828515625 925.5 347.25 931.80859375 345.75390625 937.55 342.1 945.648046875 337.0015625 952.65 327.7 964.7455078125 311.74453125 976.4 301.05 981.910546875 295.9888671875 986.9 292.45 Z"/>

<path fill="#000000" stroke="none" d="
M 1005.8 216.55
Q 1001.65 211.5 995.8 211.5 989.95 211.5 985.8 216.55 985.5958984375 216.7982421875 985.4 217.05 983.96328125 218.9279296875 983.05 221.05 981.65 224.55625 981.65 228.75 981.65 235.9 985.8 240.95 989.95 246 995.8 246 1001.65 246 1005.8 240.95 1009.95 235.9 1009.95 228.75 1009.95 221.6 1005.8 216.55
M 993.4 217.95
Q 995.2 216.2 997.75 216.2 1000.3 216.2 1002.05 217.95 1003.85 219.75 1003.85 222.3 1003.85 224.85 1002.05 226.6 1000.3 228.4 997.75 228.4 995.2 228.4 993.4 226.6 991.65 224.85 991.65 222.3 991.65 219.75 993.4 217.95
M 1008.45 252.6
Q 1007.796484375 261.4162109375 1011.45 266.05 1022.4078125 255.2861328125 1036.2 264.7 1038.678125 260.280078125 1038.5 252.6
L 1008.45 252.6
M 1065.95 221.65
Q 1065.8091796875 221.4435546875 1065.65 221.25 1063.2171875 218.2896484375 1060.2 217.05 1058.070703125 216.2 1055.65 216.2 1049.8 216.2 1045.65 221.25 1041.5 226.3 1041.5 233.45 1041.5 240.6 1045.65 245.65 1049.8 250.7 1055.65 250.7 1058.0705078125 250.7 1060.2 249.8 1063.2171875 248.6103515625 1065.65 245.65 1069.8 240.6 1069.8 233.45 1069.8 229.283203125 1068.35 225.8 1067.466796875 223.5900390625 1065.95 221.65
M 1060.2 221.45
Q 1061.1279296875 221.8779296875 1061.9 222.65 1063.7 224.45 1063.7 227 1063.7 229.55 1061.9 231.3 1061.1279296875 232.094140625 1060.2 232.55 1059.025 233.1 1057.6 233.1 1055.05 233.1 1053.25 231.3 1051.5 229.55 1051.5 227 1051.5 224.45 1053.25 222.65 1055.05 220.9 1057.6 220.9 1059.025 220.9 1060.2 221.45 Z"/>

<path fill="#FF7194" stroke="none" d="
M 1017.95 270.35
Q 1025.2 272.4578125 1031.7 269.15 1034.536328125 267.6484375 1036.2 264.7 1022.4078125 255.2861328125 1011.45 266.05 1013.8177734375 269.069140625 1017.95 270.35 Z"/>

<path fill="#8CCDFC" stroke="none" d="
M 996.65 196.65
Q 993.5396484375 195.8 990.1 195.8 988.714453125 195.8 987.35 195.95 984.3599609375 198.384765625 980.75 201.4 971.9384765625 208.788671875 966.05 213.55 965.044140625 216.24609375 964.5 219.15
L 964.55 219.15
Q 964.22890625 221.5451171875 964.2 221.7
L 964.15 221.7
Q 964.13125 222.08984375 964.1 222.45 964.069140625 222.8966796875 964.05 223.3 973.3703125 214.7353515625 985.9 204.95 990.363671875 201.4607421875 996.65 196.65 Z"/>

<path fill="url(#Gradient_7)" stroke="none" d="
M 1302.4 262.75
Q 1306.35 257.6 1306.35 248.25 1306.35 233.7 1289.25 226.8 1276.8 221.75 1259.25 221.75 1230.8 221.75 1217.1 243.35 1208.1 257.55 1202 290.9 1198.2 311.8 1197.2 316.25 1194.15 329.95 1190.25 338.4 1180.25 360 1158.1 360 1144.25 360 1135.05 353.25 1127.7 347.85 1121 336 1113.4 320.95 1108.95 312.7
L 1108.95 312.65
Q 1104.15 311.35 1100 311.35 1091.25 311.35 1086.75 312.2 1085.15 312.5 1083.3 313.15 1088.55 321.4 1093.6 331 1096.5 336.45 1101.6 346.6 1106.05 355.3 1109.2 360.35 1117.85 374.3 1128.6 380.5 1141.55 388 1162.6 388 1189.65 388 1203.95 368.25 1213.55 354.95 1220.7 324.9 1226.15 302 1226.2 301.7 1229.55 289.1 1233.2 281.5 1242.75 261.75 1261.75 261.75 1266.9 261.75 1273.65 265.3 1280.45 268.85 1287.75 268.85 1297.75 268.85 1302.4 262.75 Z"/>
</g>

<g id="Layer2_0_FILL">
<path fill="#FFFFFF" stroke="none" d="
M 539.75 189.75
Q 538.4 191.3 537.1 193.8 535.45 197.3 535.3 200.45 535.2 204.35 537.3 206.95 539 209.1 541.9 209.95 544.7 210.7 547.4 209.9 550.05 209.15 552.15 207.1 554.2 205.2 555.35 202.55 557.15 198.35 556.35 194.4 555.45 189.95 551.95 187.5 555.3892578125 186.8404296875 558.05 186.85 560.7099609375 186.9029296875 561.4 186.1 562.137109375 185.34375 561.8 184.55 561.5154296875 183.8138671875 558.65 183.3 555.78359375 182.823828125 551.1 183.7 543.8 185.05 539.75 189.75
M 539.8 197.15
L 540.55 195.5
Q 542.3 192.2 545.05 190.15 545.55 189.75 546 189.6 546.6 189.45 547.25 189.7 548.5 190 549.6 190.85 551.55 192.3 552.2 194.45 552.5 195.45 552.5 197 552.5 198.7 552 200.15
L 551.35 201.65
Q 550.7 202.8 550.6 202.95
L 549.95 203.75
Q 548.4 205.4 546.9 206.1 544.85 207 543.2 206.5 542.65 206.35 541.3 205.55 540.6 205.1 540.2 204.65
L 539.7 203.55
Q 539.2 202.2 539.1 201.35 539.05 200.75 539.25 199.55 539.4 198.5 539.8 197.15
M 760.85 337.75
Q 757 338.1 754.4 340.25 753.05 341.45 752.35 343.1 751.6 344.85 751.8 346.5 751.9 347.35 752.3 347.9 752.85 348.6 753.65 348.35 754.15 348.15 754.4 347.45
L 754.7 346.2
Q 755.1 344.45 756.75 343.3 758.25 342.25 760.25 341.9 762.35 341.55 763.65 342.1 765.55 342.95 766.7 345.75 768.45 350.3 766.2 359.3 765.6080078125 353.5671875 761.75 352.4 757.947265625 351.294140625 754.8 352.55 753.1 353.25 751.05 354.75 749.1 356.25 748.1 357.35 744.75 361.25 744.9 366.4 745 369.95 746.95 372.35 749.3 375.1 753.2 375.25 756.55 375.4 760 373.55 765.155078125 370.73125 768.25 364.95 768.5193359375 364.53984375 768.75 364.05 769.5484375 362.474609375 770.2 360.65 771.7 356.45 771.8 352.35 771.95 347.85 770.4 344.1 768.4 339.25 764.6 338.05 763.15 337.55 760.85 337.75
M 753.2 371.1
Q 751.2 370.9 750.25 369.95 748.95 368.7 748.95 365.75 749.05 364.3 749.2 363.6 749.95 360.55 753.4 358 757.10546875 355.3994140625 761 356.65 764.9333984375 357.9017578125 764.25 363.75
L 764.3 363.75
Q 764.0111328125 364.3068359375 763.8 364.65 762.85 366.1 761.35 367.5 759.5 369.25 757.65 370.15 755.3 371.25 753.2 371.1
M 400.1 346.3
Q 400.123046875 346.2732421875 400.15 346.25 402.046875 344.095703125 405.85 343.75 407.85 343.55 409.1 344.3 410.2 344.95 411.15 346.5 412.7 349.3 412.9 352.6 412.9138671875 352.828125 412.9 353.05 413.013671875 356.10390625 411.85 358.85 410.5 356.6 407.75 355.6 406.126953125 354.9634765625 404.4 354.9 403.449609375 354.8865234375 402.45 355.05 398.373828125 355.63828125 395.4 358.5 394.8265625 359.0697265625 394.3 359.7 391.15 363.45 391 368.5 390.85 371.9 392.2 374.55 392.48671875 375.1140625 392.8 375.6 394.286328125 377.803515625 396.65 378.7 400.3 380.05 405.15 377.85 407.45 376.7 408.55 375.65 410.4 374 412 370.7 415 364.8 416.3 358.2 416.5578125 356.8677734375 416.7 355.6 417.2314453125 351.1296875 416.25 347.95 415.65 345.95 414.4 344.15 412.35 340.95 409.55 340.05 407.85 339.45 405 339.75 400.95 340.3 398.6 342.1 397.7138671875 342.8029296875 397.05 343.65 396.6611328125 344.197265625 396.35 344.8 395.5 346.45 395.6 348.1 395.7 349.45 396.45 350.5 397.25 351.65 398.4 352 399.7 352.45 400.65 351.7 401.1 351.35 401.25 350.75 401.4 350.15 401.1 349.65 400.95 349.35 400.25 348.85 399.7900390625 348.4736328125 399.6 348.1 399.574609375 348.0654296875 399.55 348 399.3 347.3 400.1 346.3
M 403.75 359.05
Q 404.03828125 359.027734375 404.35 359.05 404.7771484375 359.0666015625 405.25 359.15 405.9 359.2 406.75 359.55 407.6 360 408.25 360.85 408.8 361.55 409.15 362.35 409.5587890625 363.1435546875 409.7 363.9 409.90390625 364.697265625 409.8 365.45 409.7 366.35 408.9 367.95
L 407.75 370.05
Q 406.1 372.9 404.3 373.75
L 402.2 374.5
Q 401.1 375 400.45 375.05 400.2 375.1 398.95 374.95 398.1 374.95 397.7 374.8 397.45 374.7 396.85 374.1 396.1662109375 373.279296875 395.8 372.7 395.644921875 372.4212890625 395.55 372.2 395.25 371.45 395.15 370.35 394.7 366.25 396.45 363.65 397.0578125 362.668359375 398.15 361.65 398.221875 361.571484375 398.3 361.5 399.45 360.25 400.4 359.85 400.9 359.65 402.1 359.45
L 403.75 359.05
M 284.85 319.4
Q 290.65 318.85 291.65 318.45 292.35 318.15 292.55 317.9 293.00078125 317.403515625 292.85 316.3 292.7541015625 315.1953125 288.25 314.8 283.7521484375 314.46484375 279.3 315.45 274.8962890625 316.4291015625 272.2 320.1 269.5560546875 323.8279296875 269.3 327.35 269.08984375 330.8671875 270.7 333.15 272.3140625 335.4865234375 274.1 336.1 275.9435546875 336.7041015625 278.65 335.9 281.352734375 335.105859375 283.45 332.8 285.5591796875 330.4794921875 286.65 326.85 287.7236328125 323.22734375 284.85 319.4
M 275.45 321.4
Q 277.6974609375 319.36640625 280.4 320.3 283.1556640625 321.230078125 283.35 323.95 283.135546875 327.0810546875 281.8 328.9 280.4716796875 330.71640625 279.1 331.85 277.7232421875 332.98828125 276.15 332.8 274.6322265625 332.60234375 273.9 331.9 273.2072265625 331.2046875 272.9 330.7 272.3953125 329.7484375 272.25 328.65 272.1623046875 327.6109375 272.65 325.5 273.190625 323.432421875 275.45 321.4
M 232 322
Q 229.7 322 228.95 322.9 228.55 323.45 228.6 324.25 228.7 325 229.2 325.45 229.9 326 231.6 326
L 258.4 326.4
Q 259.85 326.4 260.45 326.05 261.1 325.65 261.25 324.8 261.45 324 261 323.35 260.25 322.25 257.75 322.25
L 232 322
M 239.7 344.3
Q 240.1 343.1 240.95 342.15 242.35 340.65 244.15 340.35 246.2 340 247.7 341.15 249.05 342.2 249.65 344.35 250.05 345.65 250.05 346.8 250.1 349.5 247.7 353.35 246.05 356.05 242.6 360.65 238.95 365.65 237.45 367.95 236.85 368.85 236.8 369.45 236.7 370.2 237.25 370.9 237.8 371.6 238.6 371.85 239.65 372.2 241.85 372 246.75 371.65 251.7 372 253.65 372.2 254.5 371.6 255.25 371.1 255.3 370.05 255.3 369 254.6 368.4 253.9 367.9 252.15 367.8 250.55 367.75 242.45 367.75 246.6 362.35 250.05 357.1 251.9 354.35 252.8 352.45 254.05 349.75 254.15 347.35 254.2 345.6 253.75 343.8 252.65 339.6 249.7 337.6 247.5 336.15 244.7 336.2 241.95 336.3 239.75 337.8 237.6 339.3 236.45 341.8 235.3 344.25 235.4 346.9 235.5 348.6 236 349.45 236.7 350.8 238 350.95 238.65 351.05 239.25 350.75 239.9 350.4 240.1 349.8 240.35 349.2 240.05 348.25 239.7 347.25 239.55 346.7 239.25 345.55 239.7 344.3
M 206.85 327.5
Q 208.1 327.6 208.65 327.35 209.8 326.85 209.8 325.6 209.8 324.35 208.7 323.75 208.05 323.35 206.85 323.35 203.5 323.15 198.7 323.1 196.9 323.1 195.45 323.15
L 195.2 317.6
Q 195.1 315.1 195.2 313.9 195.3 312.05 195.1 311.4 194.85 310.8 194.35 310.4 193.8 310 193.25 310.1 192.5 310.25 192.05 311.1 191.8 311.55 191.7 312.65 191.35 316.15 191.55 323.15 191 323.1 190.55 323.1
L 187.95 323.05
Q 186.25 322.85 185.4 322.9 184.85 322.9 183.55 323.15 182.4 323.4 181.7 323.35
L 180.05 323.35
Q 179.2 323.55 178.8 324.5 178.45 325.4 178.85 326.15 179.5 327.2 180.9 327.35 181.75 327.45 183.35 327.25 185 327.1 188.35 327.1
L 191.65 327.1 191.95 338.3
Q 192.05 339.75 192.4 340.2 192.8 340.75 193.6 340.85 194.4 340.95 194.9 340.45 195.7 339.7 195.7 337.85 195.8 334.7 195.6 327.15 203.45 327.25 206.85 327.5
M 301.2 292.6
Q 299.75 293.75 299.1 295.35 298.4 297 298.85 298.85 299.3 300.75 300.65 301.8 301.6 302.5 302.5 302.5 303.75 302.4 304 301.4 304.15 300.75 303.6 299.8 302.9 298.6 302.8 298.2 302.4 296.8 303.7 295.8 304.5 295.15 305.65 295.15 306.8 295.1 307.7 295.7 309.55 296.9 309.7 299.3 309.85 301.8 307.6 305.45 305.25 309.15 302.85 311.85 301.95 312.85 301.65 313.45 301.15 314.5 301.5 315.4 301.95 316.7 304.25 317.1 305.45 317.3 308.45 317.4 311.1 317.55 312.6 317.85 314.1 318.15 314.75 318 315.6 317.8 316 316.95 316.45 316.1 316.1 315.3 315.65 314.35 314.5 313.9 313.8 313.65 312.3 313.55
L 307 313.15
Q 309.35 310.35 311.35 307.05 312.75 304.85 313.25 303.1 314.25 299.75 313.1 296.5 311.9 293.05 309.05 291.65 306.85 290.65 304.45 291.15 302.65 291.5 301.2 292.6
M 246.5 270.8
Q 245.7 270.2 244.55 270.55 244 270.65 242.8 271.45
L 238.8 274
Q 237.7 274.7 237.25 275.3 236.55 276.25 236.9 277.2 237.15 277.8 237.8 278.05 238.45 278.3 239.1 278.2 240.1 277.95 241.4 276.95 242.8 275.85 243.65 275.6
L 243.1 300.15
Q 242.45 300.4 240.1 300.5 238.2 300.5 237.2 301.15 236.55 301.6 236.25 302.3 235.9 303.1 236.2 303.75 236.8 305.1 239.4 305.1 240.75 305.05 245.05 304.7 248.5 304.4 250.65 304.5 252.8 304.5 253.1 304.45 254.55 304.2 255.15 303.25 255.5 302.75 255.5 302.1 255.5 301.45 255.1 301 254.5 300.4 252.85 300.4
L 247.05 300.45 247.55 282.25
Q 247.75 276.15 247.45 273.1 247.25 271.4 246.5 270.8
M 152 329.6
Q 153.75 329.6 154.25 329.45 155.6 328.95 155.75 327.9 155.95 326.65 154.5 325.85 153.75 325.5 152.05 325.4 111.25 323.35 85.95 323.65 83.05 323.75 83 325.3 82.95 326.05 83.7 326.6 84.3 327.1 85.25 327.25 87.1 327.65 90.95 327.65 121.55 327.75 152 329.6
M 137.9 346.35
Q 138.4 344.35 137.9 343.3 137.6 342.6 136.8 342.25 136 341.95 135.4 342.4 134.95 342.75 134.65 343.85
L 132.25 352.6
Q 130.6 352.85 129.6 352.95 128.75 352.95 128.2 353.2 127.3 353.6 127.2 354.6 127.1 355.6 127.95 356.2 128.45 356.45 129.05 356.55 129.95 356.7 131.15 356.65
L 130.15 360.3
Q 127.95 368.3 127.6 372.5 127.4 374.25 127.85 375.35 128.35 376.8 129.95 377.5 131.55 378.15 133.1 377.7 134.75 377.15 136.6 375.2 137.6 374.2 138.35 373.25 139.4 371.95 139.5 370.95 139.55 370.25 139.15 369.7 138.75 369.1 138.1 369.05 137.3 369 136.25 370.15
L 133.65 373.1
Q 133.1 373.75 132.6 374 131.8 374.45 131.25 373.9 132.35 367.85 135.35 356.25 137.15 356.2 139.8 356.15 141.35 356.05 142 355.7 143.25 355.1 143.25 353.95 143.15 352.6 141.7 352.25 141.3 352.15 139.75 352.25 138.85 352.3 136.65 352.3 136.5 352.3 136.4 352.3
L 137.9 346.35
M 124.8 344.5
Q 124.2 342.5 122.95 340.7 120.9 337.5 118.1 336.6 116.4 336 113.55 336.3 109.5 336.85 107.15 338.65 105.7 339.8 104.9 341.35 104.05 343 104.15 344.65 104.25 346 105 347.05 105.8 348.2 106.95 348.55 108.25 349 109.2 348.25 109.65 347.9 109.8 347.3 109.95 346.7 109.65 346.2 109.5 345.9 108.8 345.4 108.25 344.95 108.1 344.55 107.85 343.85 108.65 342.85 110.55 340.65 114.4 340.3 116.4 340.1 117.65 340.85 118.75 341.5 119.7 343.05 121.25 345.85 121.45 349.15 121.65 352.45 120.4 355.4 119.05 353.15 116.3 352.15 113.75 351.15 111 351.6 106.15 352.3 102.85 356.25 99.7 360 99.55 365.05 99.4 368.45 100.75 371.1 102.3 374.15 105.2 375.25 108.85 376.6 113.7 374.4 116 373.25 117.1 372.2 118.95 370.55 120.55 367.25 123.55 361.35 124.85 354.75 126.05 348.55 124.8 344.5
M 112.3 355.6
Q 112.95 355.55 113.8 355.7 114.45 355.75 115.3 356.1 116.15 356.55 116.8 357.4 117.35 358.1 117.7 358.9 118.55 360.55 118.35 362 118.25 362.9 117.45 364.5
L 116.3 366.6
Q 114.65 369.45 112.85 370.3
L 110.75 371.05
Q 109.65 371.55 109 371.6 108.75 371.65 107.5 371.5 106.65 371.5 106.25 371.35 106 371.25 105.4 370.65 104.4 369.45 104.1 368.75 103.8 368 103.7 366.9 103.25 362.8 105 360.2 105.65 359.15 106.85 358.05 108 356.8 108.95 356.4 109.45 356.2 110.65 356
L 112.3 355.6
M 120.35 269.3
Q 118.25 269.3 117.75 270.25 117.35 271 117.95 271.85 118.55 272.6 119.45 272.85 120.05 273.05 121.25 273.1 122.45 273.15 123 273.3 122.7 275 122.85 277.25 122.9 278.15 123.25 281.2 124.5 291.15 124.85 300.55 124.85 301.9 125.35 302.45 125.8 303 126.6 303.05 127.4 303.1 128.05 302.7 128.9 302.15 130 300.45 135.25 291.9 146.85 275.6 148.6 273.15 150 272.7 150.2 272.65 151.95 272.35 153.15 272.2 153.7 271.65 154.2 271.1 154.2 270.3 154.15 269.5 153.6 269 152.9 268.3 150.7 268.4
L 143.15 269
Q 140.8 269.2 140.3 270.3 140.05 270.9 140.3 271.55 140.5 272.15 141 272.6 141.85 273.25 143.4 273.45 135.5 284.15 128.3 295.95
L 127 279.05
Q 126.75 275.95 126.85 273.9 129.2 274 130.25 273.45 131.05 273.05 131.45 272.15 131.8 271.25 131.4 270.5 130.8 269.45 128.5 269.35 127.15 269.3 120.35 269.3
M 108.3 269.35
Q 106.45 268.15 104.2 267.9 101.9 267.65 99.8 268.4 97.25 269.45 96.1 271.4 94.7 273.75 95.75 276.05 96.15 276.85 96.85 277.35 97.65 277.9 98.45 277.75 99.25 277.6 99.7 276.85 100.1 276.05 99.85 275.3 99.45 274.4 99.45 274.35 99.4 273.6 100.2 272.85 101.2 272 102.65 271.9 104.05 271.8 105.3 272.4 107.6 273.5 108.75 276.35 109.55 278.45 109.65 281.65 109.75 285.3 109.15 288.05 107.85 286.35 107.15 285.65 105.95 284.4 104.65 283.85 102.9 283.2 100.55 283.35 95.2 283.75 91.6 286.65 89.65 288.2 88.45 290.35 87.2 292.55 87.1 294.95 87 296.85 87.7 299.65 88.35 301.95 89.4 303.3 91.2 305.4 94.8 305.75 98.8 306.1 102.7 304.1 106.45 302.2 108.95 298.75 113.45 292.75 113.7 283.2 113.8 278.55 112.75 275.55 111.45 271.45 108.3 269.35
M 91.2 295
Q 91.45 292.7 92.75 291.05
L 93.55 290.2
Q 93.65 290.1 94.7 289.6 95.3 289.25 96.5 288.45 97.3 288 98.25 287.85 99.6 287.5 100.6 287.45 102.35 287.25 103.35 287.8 104.15 288.2 105.1 289.45 106.25 291.05 106.5 291.95 106.65 292.35 106.75 293.85 106.75 294.65 106.7 294.8 106.55 295.35 106.15 295.85 105.25 297.05 104.3 297.95 103.45 298.75 102.3 299.55 100.7 300.65 99.8 301 99.05 301.3 98.1 301.45 96.2 301.85 95.15 301.75 93.45 301.6 92.5 300.5 92.2 300.2 91.75 299.2 90.95 297.2 91.2 295
M 299.1 197.45
Q 288.2 197.55 284.05 197.85 282.55 197.95 274.05 198.7 271.65 198.9 271.35 200.15 271.2 200.65 271.5 201.2 271.75 201.65 272.2 201.95 273 202.45 274.3 202.45 275.65 202.55 277.55 202.4 278.6 202.35 280.75 202.15 285.3 201.75 294.4 201.55
L 308.1 201.35
Q 309.9 201.25 310.5 200.95 311.1 200.65 311.45 200.15 311.8 199.55 311.7 198.95 311.5 198.05 310.4 197.6 309.75 197.4 308.45 197.4
L 299.1 197.45
M 271.85 189.15
Q 271.9 190 272.9 190.55 273.6 190.85 274.65 190.95 281.1 191.7 292.05 191.65 305 191.65 309.5 191.9 311.4 192 312.25 191.6 312.9 191.3 313.3 190.65 313.65 189.95 313.4 189.3 312.9 188.2 310.8 188.1 305 187.7 293.1 187.75 281.4 187.8 275.45 187.35 273.8 187.25 273.2 187.45 272.6 187.65 272.25 188.1 271.8 188.6 271.85 189.15
M 242.65 168.15
Q 235.4 168 230.95 171.8 228.5 173.9 227.5 177 226.45 180.2 227.45 183.1 228.6 186.45 232.1 188.45 234.1 189.6 238.55 191.05 242.55 192.7 243.75 195.4 244.5 197 244.15 198.95 243.85 200.8 242.65 202.2 240.45 205 236.35 205.35 232.95 205.65 229.3 204.05 227.45 203.2 227.2 202.05 227.05 201.4 227.5 200.25 227.95 199.05 227.9 198.45 227.8 197.65 227 197.2 226.25 196.7 225.5 196.95 224.1 197.4 223.6 200
L 222.25 205.95
Q 221.95 207.35 222.05 208.05 222.25 209.3 223.3 209.6 224.4 209.85 225.15 208.8 225.6 208.15 225.9 206.85 231.6 210.25 237.35 209.35 240.4 208.9 242.9 207.2 245.55 205.45 246.85 202.85 248.8 198.85 247.55 194.75 246.25 190.5 242.45 188.4 241.3 187.75 239.3 187.05 236.65 186.1 236.05 185.85 232.1 184.3 231.2 181.25 230.75 179.65 231.4 177.95 232 176.3 233.35 175.1 235.6 173.15 239.6 172.5 243.6 171.8 246.25 172.95 248.3 173.8 249.6 175.55 250.35 176.65 250.45 177.5 250.55 178.3 250.15 180 250.05 181.7 251.1 182.2 252.2 182.7 253.15 181.55 253.7 180.85 254 179.45 255.25 174.75 255.55 171.35 255.85 169.1 254.65 168.45 254.05 168.2 253.4 168.45 252.75 168.7 252.35 169.3 251.85 170 251.65 171.8 248.9 168.35 242.65 168.15
M 198.6 184.6
Q 196.8 185.55 194.75 187.45 193.4 188.7 192.9 189.45 192.25 190.4 191.7 191.95 189.55 197.55 190.1 203.45 190.3 205.1 190.6 205.85 191.15 207.1 192.35 208.2 195.1 210.75 198.15 210.7 199.95 210.65 202.05 209.5 204.35 208.2 206.15 206.25 206.3 206.75 206.5 207.2 207.7 209.4 210.1 210.1 212.15 210.8 213.85 209.95 215.15 209.35 216.15 207.9 217.25 206.35 217.75 204.65 218.3 203.15 217.9 202.05 217.65 201.4 217.1 201.05 216.5 200.6 215.9 200.8 215.2 201 214.8 201.85 214.6 202.25 214.25 203.45 214 204.45 213.3 205.65 212.95 206.3 212.5 206.55 211.9 206.9 211.15 206.55 210.45 206.25 210.1 205.6 209.55 204.65 209.85 202.85 210.15 200.4 211.65 195.7
L 218.5 174.15
Q 219.5 171.1 218.3 170 217.75 169.4 216.3 169.2 214.25 169.05 212.45 169.8 211.6 170.2 211.4 170.75 211.3 171.45 212.15 172.1 213.4 173.05 214.9 173.1 213.3 176.7 211.55 182.55 210.9 184.75 210.4 186.45 210.05 186.05 209.65 185.65 208.2 184.25 206.25 183.65 202.45 182.5 198.6 184.6
M 194.6 196.65
Q 194.8 195.25 195 194.55 196 191.1 199.35 188.95 201.7 187.4 203.95 187.45 205.2 187.5 206.25 188.1 207.4 188.75 207.95 189.85 208.15 190.3 208.5 191.2 208.6 191.45 208.75 191.65 208.65 191.95 208.6 192.1 206.95 196.95 206.8 197.35 206.55 197.7 206.3 198.2 205.85 199.05 205.2 200.85 203.8 204.05 200.9 205.8 199.5 206.7 198.2 206.75 196.75 206.85 195.6 205.85 194.25 204.65 194 202.45 193.85 201.2 194.25 198.6
L 194.6 196.65
M 609.2 306.85
L 612.95 306.55
Q 615.95 306.35 616.3 304.75 616.45 304 615.9 303.3 615.35 302.65 614.55 302.4 613.9 302.2 613 302.3 612.85 302.3 611.4 302.5 607.95 303.1 604.3 302.85 601.55 302.75 600.85 303.8 600.15 304.85 600.85 305.85 601.4 306.85 602.6 307 598.25 314.55 591.35 327.1
L 588.65 332
Q 588 320.45 587.7 307.2 588.3 307 589.3 306.95 590.5 306.85 590.9 306.8 591.75 306.65 592.35 306.1 593.05 305.5 593 304.75 592.95 303.85 591.95 303.35 591.15 302.9 590.05 302.8 587.75 302.6 583.15 302.9 580.35 303 580.1 304.55 579.95 305.15 580.4 305.75 580.75 306.3 581.4 306.6 582.3 306.95 583.95 306.85 584.25 322.3 585.25 338.85 585.35 340.45 586.05 340.95 586.5 341.3 587.1 341.2 587.7 341.15 588.15 340.75 588.8 340.25 589.5 338.95 598.4 322.3 606.55 308.4 606.9 307.65 607.35 307.35 607.85 306.95 609.2 306.85
M 537.4 330.05
Q 537.45 329.15 536.9 328.55 536.25 327.95 534.9 327.75 532.4 327.35 528.95 327.4 524.95 327.6 522.95 327.65
L 504.05 327.7
Q 502.2 327.7 501.5 328.4 501.1 328.75 501 329.35 500.95 329.9 501.2 330.4 501.85 331.6 504.3 331.7
L 509.6 331.8
Q 522.55 331.8 527.25 331.6 531.25 331.4 533.2 331.7 534.55 331.95 535.05 331.95 536.1 331.95 536.7 331.45 537.35 330.95 537.4 330.05
M 537.65 320.75
Q 537.75 319.95 537.35 319.35 536.65 318.4 534.05 318.4 531.1 318.45 526.05 318.15 520.2 317.75 518.1 317.7 511.9 317.75 508.8 317.6 505.85 317.5 505.3 317.5 503.3 317.5 501.8 317.8 499.6 318.35 499.6 319.7 499.7 320.75 500.75 321.2 501.55 321.5 502.75 321.5
L 522.15 321.95
Q 524.3 322.05 528.55 322.35 532.3 322.55 534.95 322.45 536.3 322.45 537 321.95 537.55 321.5 537.65 320.75
M 555.05 317.05
Q 553.75 318.65 553.3 321.05 553.1 322.15 553.35 322.65 553.5 323.05 553.85 323.25 554.25 323.45 554.6 323.3 555 323.15 555.3 322.45 556.2 320.6 556.5 320.15 557.3 318.9 558.4 318.55 559.1 318.25 559.55 318.6 559.85 318.9 559.95 319.55 560.05 320.65 559.6 322 559.35 322.65 558.6 324.3 556.15 329.7 555.05 335.45 554.85 336.95 555.1 337.55 555.45 338.3 556.35 338.5 557.2 338.75 557.85 338.2 558.5 337.7 558.9 336.25 559.8 333.05 560.25 331.4 561.1 328.65 561.95 326.65 564.35 321.3 567.9 318.7 569.5 317.5 570.65 317.75 571.2 318.35 570.5 319.8 569.75 321.5 569.75 322.6 569.75 324.35 570.95 325.1 571.85 325.7 573.05 325.3 574.15 324.95 574.8 324.05 575.8 322.65 575.8 319.85 575.8 317.7 575.25 316.35 574.45 314.5 572.85 313.9 571.9 313.55 570.6 313.65 569.1 313.65 567.9 314 566.05 314.65 563.7 317.05 563.45 317.4 563.1 317.4 562.85 317.35 562.55 316.85 562.05 315.9 561 315.4 559.95 314.85 558.8 314.95 556.5 315.2 555.05 317.05
M 454.65 346.25
Q 455.1 345.95 455.35 345.15 455.7 344 455.75 343.85 456.25 342.65 458 342 459.25 341.45 460.25 341.8 461.6 342.3 462.1 344.35 461.85 346.05 460.6 347.95 460 348.8 458.1 351.1
L 454.25 356.3
Q 453.45 357.9 453.2 359.6 453.1 360.6 453.4 361.1 453.9 362.15 456.15 362.25
L 459.95 362.4
Q 461.9 362.5 462.55 362.7 463.1 362.85 464.2 363.2 465.55 363.4 466.4 362.6 466.8 362.2 466.95 361.6 467.1 361 466.9 360.45 466.55 359.65 465 359 463.45 358.5 461.85 358.4 460.5 358.4 459.85 358.4 458.7 358.35 457.9 358.1 459.6 355.7 462.2 352.5 464.55 349.55 465.4 347.65 466.7 344.5 465.65 341.95 465.35 341.25 464.45 340.05 463.1 338.4 461.7 337.9 460.6 337.5 459.2 337.65 456.55 337.9 454.6 339.45 452.5 341.15 452.2 343.7 452.1 345.1 452.7 345.8 453.05 346.25 453.6 346.4 454.2 346.6 454.65 346.25
M 448.45 344.95
Q 448.15 344.45 447.55 344.3 446.95 344.15 446.45 344.4 445.75 344.9 445.6 344.9 445.35 344.95 444.75 344.65 439.1 341.85 434.15 342.7 431.35 343.2 429.15 344.95 426.85 346.75 426.1 349.3 425.3 351.95 426.4 354.7 427.5 357.45 429.9 358.85 430.35 359.1 434.1 360.5 436.6 361.45 437.65 362.85 439.15 364.85 438.35 367.75 437.6 370.75 435.2 372 433.8 372.75 431.8 372.9 427.85 373.2 426.2 371.45 425.4 370.65 425.45 369.7 425.85 368.6 426 368.05 426.25 367.1 425.5 366.25 424.75 365.4 423.8 365.55 422.65 365.7 421.95 366.85 421.9 366.95 421 369 420.8 369.6 420.4 370.8 420.1 371.8 420.15 372.6 420.25 373.6 420.9 374.35 421.6 375.1 422.45 375 422.8 374.95 423.5 374.8 423.9 374.8 424.4 375.15 424.7 375.35 425.25 375.8 426.75 376.95 429.9 377.05 432.7 377.05 434.05 376.75 437.25 376.05 439.65 373.55 442.1 371.05 442.6 367.85 443.15 364.6 441.5 361.5 439.85 358.4 436.85 357.1 434.25 356.25 433 355.75 430.65 354.7 430 353.1 429.55 351.95 429.9 350.7 430.2 349.5 431.1 348.6 432.65 347.05 435.5 346.7 439.3 346.3 442.6 348.15 443.35 348.6 443.45 349.05 443.5 349.15 443.35 350 443.25 351.2 444.25 351.7 445.25 352.3 446.2 351.6 446.7 351.2 447.25 349.95
L 448.25 347.5
Q 448.85 345.75 448.45 344.95
M 351.45 307.8
Q 352.15 306.4 351.5 305.5 351 304.85 350.05 304.95 349.1 305 348.55 305.7 347.3 304 345.3 303 343.35 302.05 341.2 301.95 337.1 301.75 333.15 304.35 329.1 307.1 328 310.95 327.35 313 327.8 315.15 328.3 317.4 329.75 318.85 331.05 320.1 333.2 320.85 334.3 321.25 337.2 321.9 339.5 322.5 340.6 323.4 341.6 324.25 342.05 325.65 342.4 327 342.1 328.4 341.45 330.95 338.9 332.75 337 334 334.7 334.25 332.4 334.5 330.3 333.7 328.6 333.1 327.6 331.95 327.1 331.25 327.05 330.8 327.05 330.55 327.4 329.3 327.95 327.65 327.25 326.55 326.85 325.95 326.15 325.7 325.4 325.45 324.8 325.85 324.2 326.25 323.8 327.5 322.9 329.85 322.35 331.95 321.95 333.55 322.05 334.35 322.2 335.85 323.35 336.35 323.95 336.6 324.55 336.35 325.2 336.15 325.4 335.6 328.8 338.15 333.3 338.35 337.85 338.5 341.3 336.1 343.4 334.65 344.75 332.45 346.1 330.2 346.25 327.75 346.45 325.25 345.3 322.9 344.1 320.5 341.95 319.3 340.65 318.55 338.05 317.9 335.1 317.2 334.05 316.75 332.7 316.2 332.2 315.4 331.45 314.3 331.7 312.9 332.1 309.95 335.5 307.75 338.85 305.55 341.95 306.1 343.7 306.4 344.95 307.7 346.25 309.05 346.25 310.7 346.25 311.7 346.45 312 346.75 312.55 347.5 312.55 348.2 312.5 348.7 312 349.05 311.65 349.45 310.95 349.65 310.6 350.05 309.8 350.45 309.1 351.45 307.8
M 384.4 324.3
Q 383.65 324.75 383.4 325.65 383.1 326.55 383.65 327.15 384.2 327.75 385.7 327.85 397.15 328.5 427.8 328.5 454.45 328.55 469.9 330.05 473.1 330.35 473.95 328.85 474.2 328.3 474.15 327.7 474.05 327.05 473.65 326.65 472.9 325.9 470.95 325.8
L 464.6 325.5
Q 447.1 324.6 438.3 324.45 434.25 324.4 413 324.45 397.55 324.5 387.7 323.9 385.5 323.7 384.4 324.3
M 359.75 293.5
Q 356.3 294.45 355.4 296.9 355 297.95 355.1 299.45 355.3 301.1 356.1 301.65 356.95 302.35 357.95 301.85 358.9 301.35 358.9 300.25 358.75 299.4 358.8 299 358.85 298.25 359.75 297.7 360.35 297.4 361.35 297.3 362.25 297.2 362.7 297.35 363.65 297.75 363.9 298.85 364.1 299.7 363.75 300.75 363.35 302.3 362.25 304 361.65 304.9 360.05 306.85 357.95 309.45 355.45 313.25 354.85 314.1 354.6 314.85 354.35 315.95 354.8 316.6 355.45 317.65 357.75 317.55 362.75 317.45 366.65 317.6 367.9 317.7 368.6 317.3 369.4 316.8 369.5 315.8 369.5 314.75 368.7 314.2 367.95 313.6 366.2 313.6
L 359.95 313.45 363.15 309.5
Q 364.85 307.3 365.3 306.7 366.5 305.05 367.1 303.6 368.7 299.75 367.4 296.7 366.6 294.75 364.8 293.8 362.7 292.7 359.75 293.5
M 410.25 270.15
Q 408.65 268.5 406.65 267.65 404.5 266.7 402.35 266.9 400.3 267.05 398.25 268.1 395.85 269.25 394.55 271.05 392.95 273.25 393.3 275.6 393.55 277.1 394.5 277.75 395.05 278.1 395.7 278.05 396.4 278 396.8 277.55 397.25 277.05 397.2 275.75 397.15 274.3 397.35 273.8 397.7 273 399.3 272.15 401.7 270.95 403.1 270.95 404.75 270.9 406.3 272.1 407.6 273.1 408.55 274.8 409.95 277.2 410.3 280.1 410.6 282.95 409.75 285.65 408.5 283.7 405.75 282.75 403.85 282.15 400.75 282.15 398.55 282.15 397.05 282.65 395.25 283.2 393.2 284.9 391.25 286.5 390.25 288 388.2 291.2 388.65 296.65 389.05 301.45 391.5 303.5 393.3 304.95 396.15 305.05 400.95 305.2 405.15 301.8 408.5 299.1 411.1 294.1 415.4 285.75 414.05 278.05 413.15 273.2 410.25 270.15
M 405.2 287
Q 407.05 288.15 407.95 289.9 408.15 290.3 408.15 290.55 408.15 290.8 407.95 291.3 406.4 294.45 405.15 296 404.4 296.9 402.6 298.5 401.7 299.4 401 299.8 400.1 300.3 398.9 300.6 396.8 301.1 395.65 300.95 393.65 300.6 393.15 299.05
L 392.7 296.6
Q 392.2 293.9 393.2 291.25 393.45 290.45 393.75 290.05 394.5 288.9 396.45 287.55 397.75 286.6 398.6 286.4 399.15 286.3 400.25 286.3
L 403.75 286.4
Q 404.35 286.5 405.2 287
M 443 269.65
Q 441.25 269.65 440.55 270.35 440.2 270.8 440.15 271.4 440.15 272 440.5 272.45 441.15 273.2 443.1 273.2 444 273.2 444.95 273.25 444.9 274.1 445.05 275.25 445.8 280 446.05 288.55 446.3 297.9 446.75 301.8 446.85 303.1 447.45 303.6 447.9 303.95 448.55 303.9 449.1 303.8 449.6 303.4 450.3 302.85 450.9 301.45 453.55 295.95 457.6 289.4 460 285.6 465.2 277.9
L 467.2 274.95
Q 468 273.7 468.75 273.35 469.45 273 471.05 273.1 472.6 273.1 473.45 272.7 474.8 272 474.65 270.7 474.45 269.6 473.2 269.15 472.5 268.9 470.95 268.9
L 465 269.05
Q 463.35 269.15 462.8 269.55 461.8 270.25 461.95 271.5 462.2 272.75 463.4 273.05 456.9 282.85 450.1 294.1 450.3 284.2 448.85 273.55 449.15 273.55 449.45 273.6 450.7 273.8 451.4 273.5 452.4 273.1 452.55 272.1 452.8 271.05 452.05 270.3 451.3 269.55 449.1 269.55
L 443 269.65
M 430.35 268.5
Q 430.55 266.45 429.45 264.15 428.5 262.15 427.3 261.5 426.25 260.95 424.15 260.95 422.25 260.95 421.4 261.25 420.55 261.6 419.2 262.75 417.75 263.85 417.5 264.8 417.3 265.4 417.4 266.6 417.6 268.15 418.25 269 419.3 270.25 420.5 269.8 420.9 269.7 421.15 269.35 421.45 269 421.4 268.6 421.35 268.35 421.05 267.9 420.7 267.45 420.65 267.15 420.4 266.1 421.95 265.35 423.55 264.65 425.3 265.05 426.55 266.2 426.25 268.3 426.05 269.45 424.95 271.55 423.8 273.7 422.95 274.8
L 421.75 276.3
Q 420.95 277.35 420.15 278.95 419.6 279.9 419.4 280.55 419.2 281.6 419.6 282.25 420.1 283.05 421.15 283.2 421.8 283.35 423.05 283.25 425.55 283.2 427.95 283.7 429.25 283.95 429.85 284 430.95 284 431.6 283.5 432.2 283 432.3 282.2 432.4 281.4 431.95 280.8 431.25 280 429.7 279.8 428.15 279.5 424.7 279.1 428.15 275.25 429.75 270.75 430.3 269.5 430.35 268.5
M 463.05 185.45
Q 462.5 184.9 461.15 184.7 460.3 184.55 459 184.5 457.1 184.45 456.8 184.45
L 455.85 184.35 457.85 175.55
Q 458.15 174.35 458 173.75 457.8 172.65 456.85 172.55 455.8 172.45 455.05 174.2 454.65 175.15 453.9 177.65 452.95 180.85 452.15 184.05 450 184.05 449.4 184 448.4 183.9 447.85 183.95 447 184.05 446.45 184.5 445.95 184.95 445.9 185.75 445.9 186.5 446.4 187 446.8 187.35 447.9 187.65 448.45 187.75 450.95 188
L 451.2 188.05
Q 449.55 195.15 448.6 202.15 448.3 204.95 448.45 206.1 448.8 208.4 450.3 209.45 452.1 210.8 454.55 209.95 456.25 209.4 458.2 207.45 459.9 205.6 460.9 203.6 461.45 202.6 461.5 201.9 461.5 200.85 460.8 200.35 459.8 199.7 458.65 200.75 458.35 201 457.35 202.65 456.15 204.75 454.5 206.1 453.45 206.95 452.8 206.7 451.7 206.4 451.95 204.4 452.6 198.45 454.9 188.3
L 460.85 188.75
Q 462.25 188.85 462.85 188.5 463.65 188 463.75 187.05 463.75 186.05 463.05 185.45
M 442.5 170.2
Q 441.7 168.95 438.75 169.15 435.15 169.6 433.8 170.05 432.95 170.35 432.6 170.8 432 171.6 432.55 172.15 432.75 172.4 433.7 172.5
L 438.9 172.65
Q 436.2 179.35 434.1 186.25 433.25 185.3 432.1 184.65 428.85 183 425.1 184.2 421.9 185.25 419.3 188.3 417.15 190.9 416.1 194.25 415.05 197.55 415.35 200.95 415.5 202.55 416 203.7 416.45 204.7 417.6 206.15 418.75 207.55 420.15 208.5 421.9 209.6 424 209.75 426.15 209.95 428.05 209.15 429.8 208.4 431.2 207.05 431.45 207.4 431.75 207.75 432.65 208.8 433.8 209.25 436.1 210.1 438.3 208.5 440.2 207.05 440.75 204.55 441.05 202.85 440.2 202.35 439.4 201.95 438.7 202.5 438.15 202.9 437.75 203.75 437.15 204.95 436.95 205.2 436.4 205.95 435.7 206.05 435.1 206.15 434.5 205.7 433.95 205.25 433.75 204.6 433.45 203.6 433.85 201.9 435.3 194.85 439.45 182.5
L 442.4 173.45
Q 443.15 171.2 442.5 170.2
M 419.5 197.45
Q 420 194.15 421.7 191.8 423.65 189.1 426.5 188.15 428 187.55 429.35 187.85 431.55 188.15 432.6 190.2 432.7 190.35 432.8 190.6 431.45 195.4 430.4 200.3 430.25 200.95 430.15 201.55 430.05 201.75 429.9 202.05 429.55 202.95 429.45 203.15 428.6 204.85 426.7 205.6 424.75 206.35 423 205.7 421.85 205.25 420.95 204.3 418.75 201.9 419.5 197.45
M 403.45 170.2
Q 402.95 169.7 402.1 169.75 401.3 169.8 400.85 170.4 400.55 170.8 400.5 171.55 398.95 170.2 396.85 169.4 392.9 167.95 388.65 168.85 384.35 169.75 381.3 172.7 379.4 174.6 378.6 176.55 377.3 179.6 378.15 183 378.95 186.4 381.55 188.5 383.8 190.35 387.35 191.1
L 389.3 191.5
Q 390.4 191.75 391.1 192.15 393.5 193.5 393.85 196.55 394.15 199.05 392.85 201.75 391.8 204 390.25 205.15 387.45 207.2 382.4 205.85 378.45 204.9 376.15 202.9 375.45 202.2 375.3 201.7 375.2 201.25 375.4 200.6 375.7 199.9 375.75 199.55 375.95 198.7 375.5 197.9 375.05 197.05 374.25 197 373.1 196.85 372.35 198.05 371.9 198.8 371.7 200.2
L 370.7 205.25
Q 370.5 206.9 370.65 207.55 370.75 208.15 371.2 208.55 371.65 209 372.2 209 373.75 209.05 374.2 206.4 375.95 208.15 380 209.4 384.4 210.8 387.25 210.45 391.25 210 394.1 206.75 396.75 203.9 397.4 199.65 398 196.25 397 193.55 395.95 190.35 393.2 188.9 392 188.25 389.55 187.75 386.95 187.25 385.85 186.75 383.65 185.75 382.5 183.6 381.25 181.4 381.85 179.2 382.45 177.25 384.15 175.7 385.8 174.1 387.95 173.3 390.1 172.45 392.35 172.5 394.65 172.6 396.7 173.65 398.8 174.75 400.1 176.55
L 400.15 176.6 399.85 178.6
Q 399.7 179.7 399.95 180.6 400.45 181.75 401.45 181.75 402.3 181.75 402.85 180.85 403.15 180.3 403.35 179.15 404.2 174.95 404.15 172.4 404.05 170.8 403.45 170.2
M 343.7 185
Q 342.45 185.45 341.8 188.05 340.9 191.85 337.4 203.65 334.5 213.3 333.4 219.3 333.2 220.5 333.3 221.05 333.6 222.2 334.35 222.4 335.35 222.8 336.2 221.75 336.55 221.25 337 219.85
L 340.5 207.2
Q 342.5 209.4 345.3 209.8 347.95 210.15 350.7 208.75 353.1 207.5 355.15 205.15 355.15 206.35 355.95 207.35 356.75 208.3 357.95 208.65 359.05 209 360.3 208.7 361.5 208.45 362.45 207.7 364.3 206.3 365.2 203.8 365.75 202.55 365.55 201.6 365.45 201 365.1 200.55 364.7 200.05 364.15 199.95 363.4 199.8 362.7 200.4 362.1 200.9 361.7 201.7 361.5 202.2 361.05 203.25 360.65 204.1 360.1 204.55 359.55 205 359.15 204.7 358.85 204.4 358.95 203.9 359.05 200.85 360.35 196.3 362.2 189.9 362.45 188.8 362.75 187.5 362.55 186.7 362.25 185.45 361.3 185.15 360.1 184.85 359.15 186.05 358.7 186.75 358.3 188.35 356.55 195 353.3 200.55 350.75 205.05 347.6 205.85 346.4 206.15 345.3 205.8 344.1 205.45 343.55 204.5 342.95 203.55 343.05 201.8 343.2 198.85 344.2 194.95 345.45 190.5 346.05 188.25 346.45 187 346.2 186.25 346 185.5 345.2 185.1 344.4 184.7 343.7 185
M 634.3 172.2
Q 634.5 172.55 635.45 172.8
L 639.55 173.45
Q 636.7 179.9 634.75 186.6 634.5 186.4 634.3 186.25 632.7 185.1 630.15 185.1 628.15 185 626.4 185.6 623.25 186.65 621.05 189.55 619.2 191.95 618.15 195.65 617.15 199.45 617.75 202.6 618.5 206.4 621.35 208.35 623.25 209.65 625.65 209.7 628.05 209.75 630.05 208.55 631.1 207.95 631.95 207.1 632.35 207.95 633.05 208.55 634.1 209.55 636.7 210.25 640.35 211.15 642.1 209.9 643.2 209.2 643.95 207.35 644.7 205.75 644.75 204.15 644.75 202.65 644.15 201.95 643.6 201.25 642.7 201.2 641.75 201.1 641.2 201.75 640.7 202.35 640.75 204.1 640.85 205.8 640.25 206.4 639.5 207.25 637.55 206.8 636.25 206.6 635.7 206.15 634.2 205.05 634.75 201.7 636.4 191.75 641.6 177.85 642.85 174.5 642.9 172.8 642.9 171.6 642.35 171.05 641.85 170.6 640.75 170.5 638.55 170.2 636 170.55 635.15 170.65 634.65 171 634.4 171.2 634.25 171.55 634.15 171.9 634.3 172.2
M 621.75 197.95
Q 622.45 193.75 624.65 191.3 625.9 189.9 627.65 189.25 629.5 188.55 631.2 189 632.5 189.35 633.2 190.1 633.35 190.3 633.6 190.6 632.4 195.1 631.6 199.75 631.4 200.1 631.25 200.45
L 630.35 202.7
Q 629.55 204.4 628.15 205.2 626.55 206.2 624.95 205.75 622.7 205.15 621.9 202.55 621.3 200.8 621.75 197.95
M 601 170.8
Q 600 170.8 599.35 172.2 599 171.8 598.6 171.4 596.5 169.45 593.35 168.8 588 167.6 583.45 170.3 581.25 171.65 579.8 173.8 578.3 176.05 578 178.55 577.75 181.15 578.8 183.55 579.85 186.05 581.95 187.5 582.95 188.2 584.5 188.85 585.4 189.2 587.15 189.85 590.5 191.25 591.7 193.2 593.2 195.5 592.3 199.95 591.5 203.7 589.65 204.9 588.5 205.6 585.65 205.8 582.85 205.9 581.45 205.75 579.1 205.55 577.45 204.65 575.2 203.4 574.9 201.4 574.85 200.55 574.8 200.1 574.75 199.35 574.4 198.9 573.8 198.05 572.8 198.4 571.8 198.7 571.25 200.85
L 569.85 207.35
Q 569.55 208.85 569.7 209.55 569.8 210.15 570.2 210.55 570.65 210.95 571.15 211 572.45 211.05 573.05 209.3
L 573.4 208
Q 573.6 207.2 573.95 206.75 575.65 208.5 578.55 209.2 580.6 209.7 583.85 209.75 588.65 209.85 591.05 208.5 594.9 206.3 595.9 200.55 596.6 196.8 595.6 193.5 594.4 189.75 591.45 187.85 590.5 187.25 588.9 186.65
L 586.2 185.6
Q 582.95 184.2 582.05 181.9 581.45 180.3 582.05 178.1 582.6 175.75 584.25 174.25 586.2 172.6 590.15 172.5 592.95 172.4 594.9 173.25 597.3 174.3 598.2 176.35 598.1 176.8 598 177.3
L 597.65 179.3
Q 597.25 180.95 597.9 181.65 598.25 182.05 598.8 182.15 599.4 182.2 599.85 181.95 600.75 181.45 601.2 180.3 601.4 179.65 601.6 178.15 601.85 176.5 602.25 175.05 602.8 173.3 602.65 172.5 602.55 171.8 602.1 171.3 601.6 170.75 601 170.8
M 498.95 178.15
Q 497.95 178.5 497.65 180.35 496.85 185.4 496.85 192.85
L 484.6 192.95
Q 482.8 192.95 482.2 193.6 481.75 194.05 481.75 194.75 481.75 195.45 482.25 195.9 482.7 196.35 484.15 196.55 488.55 197 496.6 196.9 496.75 196.9 496.9 196.9
L 496.95 201.15
Q 496.95 206.05 496.85 209.35 496.75 211.5 497.75 212.05 498.35 212.4 499.05 212.1 499.75 211.85 500.1 211.2 500.6 210.35 500.6 208.4 500.65 202 500.7 196.9 506.2 196.85 509 197.05 513.3 197.35 515.05 197.15 516.3 196.95 517 196.5 518 195.8 517.85 194.75 517.7 193.6 516.25 193.2 515.65 193.05 513.95 193.15 512.7 193.2 510.75 193.05 507.95 192.8 507.55 192.8 506.9 192.75 503.55 192.75
L 500.8 192.8
Q 500.9 185.7 501.15 181.6 501.25 179.95 500.9 179.25 500.6 178.65 500.1 178.35 499.5 177.95 498.95 178.15
M 804.1 327.35
Q 805.6 327.45 806.45 327.1 807.9 326.55 807.8 325.3 807.7 323.6 804.6 323.35
L 799.7 323.15
Q 789.5 322.75 777.8 322.65 764.45 322.65 761.8 322.6 752.35 322.45 750.85 322.5 744.65 322.6 740 323.4 737.45 323.85 737.5 325.3 737.55 326.15 738.55 326.55 739.35 326.9 740.5 326.85 772.7 326.15 804.1 327.35
M 785.9 341.05
Q 783.2 342.6 781.75 345 780.1 347.7 780.4 350.5 780.65 353.55 782.9 355.5 784.35 356.7 787.55 357.55 791.15 358.65 792.3 359.35 793.45 360.05 794.15 361.15 794.95 362.3 794.95 363.5 794.95 364.4 794.4 365.7 793.7 367.55 792.45 369.25 792.15 369.6 791.9 369.95
L 796 371.05
Q 796.5 370.25 796.95 369.35 798.4 366.6 798.6 364.75 798.85 362.6 798.05 360.5 796.95 357.65 794.55 356 792.8 354.75 789.75 353.95 787.4 353.35 786.75 353.05 785.1 352.25 784.6 350.9 784 349.25 785.15 347.25 786.6 344.95 789 344.1 790.45 343.55 793.55 343.45 795.65 343.35 796.7 343.95 796.45 345 797.2 345.7 798 346.5 799 346 799.7 345.65 800.2 344.3
L 800.95 342.35
Q 801.5 340.85 801.45 340.25 801.45 338.9 800.4 338.5 799.65 338.2 798.9 338.8 798.2 339.3 797.95 340.15 794.75 339.05 791.5 339.35 788.5 339.6 785.9 341.05
M 656.5 327.9
Q 657.95 328 658.75 327.65 660.05 327.2 660.15 326 660.2 325.4 659.8 324.9 659.45 324.4 658.85 324.15 658.1 323.8 656.45 323.8 646.2 323.65 634.35 323.9 630.85 324 629.9 324.15 628.1 324.25 627.7 325.25 627.5 325.8 627.75 326.4 628 327 628.55 327.3 629.25 327.7 630.85 327.8 634 327.95 637.9 327.85
L 656.5 327.9
M 693.6 317.5
Q 694.35 318.5 694.45 319.35 694.65 320.6 693.9 321.25 693.15 321.7 692.75 321.95 692.1 322.4 691.9 323.25 691.7 324.05 692.1 324.7 692.55 325.4 693.55 325.55 694.4 325.65 695.3 325.3 697.3 324.5 698.15 322.2 698.85 320.2 698.3 317.9 697.65 315.1 695.7 314.05 694.1 313.05 691.8 313.6 690.1 314.05 688.2 315.35 686.7 316.35 685.35 317.6 685.05 316.6 684.1 316 683.2 315.4 682.1 315.35 680.75 315.3 679.5 315.95 678.3 316.6 677.6 317.75 676.95 318.9 676.7 320.65 676.4 321.75 676.95 322.2 677.25 322.45 677.75 322.35 678.15 322.2 678.45 321.85 678.8 321.45 679.25 320.4 679.65 319.65 680.35 319.25 681.15 318.75 681.85 318.95 682.35 319.9 681.85 321.75 681.2 324.4 679.75 329.6 678.6 334.25 678.4 337.6 678.3 338.9 678.75 339.5 679.1 340 679.75 340.15 680.4 340.3 680.9 340 681.7 339.55 682.15 337.6 683.75 329.75 684.9 326.55 686.35 322.85 688.05 320.85 690.45 318 693.6 317.5
M 728.1 305
Q 724.5 302.25 720 302.4 715.5 302.5 712 305.45 709.35 307.8 708.55 310.8 707.65 314.25 709.45 317.05 711.25 320 716 321.25 718.35 321.9 719 322.4 720.2 323.35 720.75 325.5 721.45 328.15 720.75 330.3 719.9 332.95 717.65 333.9 716.55 334.4 714.5 334.5 712.55 334.5 711.45 334.1 710 333.55 709.15 332.1 708.25 330.65 708.3 329 708.4 327.65 708.35 326.95 708.3 325.8 707.75 325.2 707.25 324.7 706.5 324.7 705.75 324.7 705.25 325.2 704.75 325.65 704.45 327
L 702.55 334.75
Q 701.9 337.4 703.15 338.25 703.7 338.6 704.4 338.45 705.1 338.3 705.55 337.8 706.35 336.95 706.35 335.35 707.8 337.5 711.25 338.2 717.1 339.6 721 336.65 723.45 334.85 724.5 331.6 725.45 328.55 724.85 325.3 724.45 322.9 723.25 321.05 721.9 318.95 719.9 318.1 719.3 317.9 718.25 317.65 717.05 317.35 716.6 317.2 714.85 316.7 713.7 315.65 712.35 314.45 712.3 312.95 712.25 311.45 713.5 309.8 715.25 307.5 718.3 306.8 721.35 306.05 724 307.25 725.85 308.2 726.15 309.55 726.25 310 726.1 311.15 725.95 312.2 726.2 312.75 726.5 313.45 727.3 313.65 728.05 313.85 728.65 313.45 729.3 313.05 729.8 311.6
L 731.25 307.2
Q 732.15 304.75 730.95 303.9 730.25 303.4 729.35 303.8 728.5 304.15 728.1 305
M 795.95 269.85
Q 795.6 270.65 796.1 271.5 796.6 272.35 797.45 272.4 788.55 284.6 781.65 297.3 781.3 287.25 780.6 277.15 780.4 274.15 780.15 272.75
L 783.6 272.75
Q 785.3 272.85 786.05 272.2 786.6 271.75 786.6 270.95 786.65 270.2 786.1 269.65 785.45 269 783.5 269
L 774.8 269.1
Q 773.6 269.2 773.25 269.4 772.35 269.9 772.35 270.85 772.35 271.85 773.2 272.35 773.8 272.7 774.95 272.7
L 777.15 272.7
Q 777 273.9 777.1 276.15
L 778.5 302.8
Q 778.6 305.35 780 305.6 781 305.75 781.75 304.65 782.1 304.1 782.5 302.7 783 301.4 784.25 299.4 793.85 283.75 800.5 274.65 801.8 272.85 802.95 272.45 803.5 272.25 804.35 272.2 804.8 272.2 805.75 272.15 807.6 271.95 807.95 270.7 808.15 270 807.7 269.35 807.25 268.75 806.5 268.45 805.9 268.25 805.1 268.25 804.1 268.3 803.6 268.3 801.85 268.5 799.7 268.5 796.6 268.5 795.95 269.85
M 766.95 271.65
Q 765.4 268.75 763.05 267.5 759.45 265.5 754.6 267.4 751.2 268.7 749.75 271.2 748.95 272.6 748.95 274.25 748.95 275.95 749.85 277.15 750.4 277.85 751.05 278 752 278.2 752.3 277.45 752.5 277.15 752.25 276.05 752.05 274.95 752.65 273.8 753.2 272.75 754.2 272.05 755.85 270.9 758.6 270.7 760.05 270.6 760.7 270.85 761.8 271.2 762.85 272.75 765.75 277.1 764.4 285.55 763.1 283.45 760.75 282.25 758.45 281.1 755.9 281.15 751.1 281.2 746.95 285.05 745.15 286.6 744.3 288.5 743.25 290.8 743.45 294.3 743.75 299.35 745.8 301.85 747.4 303.8 750.05 304.55 752.6 305.3 755.15 304.7 759.95 303.55 763.25 298.8 765.6 295.5 767.35 289.45 768.8 284.15 768.85 280.5 768.95 275.45 766.95 271.65
M 747.85 290.3
Q 747.95 290.05 748.95 288.95 749.45 288.4 750.4 287.3 751.3 286.5 753.5 285.8 756.35 285 757.8 285.4 759.6 285.95 760.75 287.55 761.6 288.7 762.35 290.9 762.55 291.5 762.55 291.85 762.55 292.3 762 293.3
L 761 295.05
Q 759.8 297.05 758.85 298.15 757.45 299.7 755.9 300.3 755.05 300.65 753.7 300.85 750.9 301.1 749.2 299.55 747.95 298.4 747.7 296.3 747.55 295.4 747.55 292.65 747.45 291.1 747.85 290.3
M 681.8 173
Q 681.95 172.35 681.65 171.9 681.1 171 679.05 171.1
L 673.55 171.3
Q 670.95 171.4 670.75 172.85 670.7 173.6 671.45 174.15 672.15 174.65 673.05 174.7 665.2 187.45 657 201.75 657.3 192.25 657.3 187.5 657.25 179.6 656.5 173.35 657.6 173.35 658.4 172.85 659.45 172.1 659.15 171.1 658.8 169.8 656.2 169.8
L 648.25 170.05
Q 646.3 170.05 645.35 170.65 644.7 171.05 644.45 171.8 644.15 172.6 644.55 173.2 645.15 174.1 647.15 174
L 652.85 173.9
Q 653.7 179.85 653.55 190.15 653.4 202.1 653.7 206.45 653.8 208.55 654.9 208.95 656.25 209.4 657.7 207.2 663.75 197.8 676.1 176.8 674.25 189.35 673.6 201.6 673.3 205.9 673.75 208.3 674.1 210.25 675.25 210.4 676.25 210.45 677.2 208.95 688.4 191.5 698.15 174.85 698.4 174.5 698.6 174.1
L 700 174.1
Q 701.2 174.1 701.7 173.75 702.2 173.45 702.3 172.85 702.45 172.25 702.15 171.75 701.7 171.1 700.9 170.85 699.65 170.4 697.65 170.45 694.55 170.5 694.25 170.5 692.65 170.3 692.1 170.85 691.7 171.25 691.75 171.9 691.75 172.5 692.15 172.95 692.75 173.6 694.2 173.9 694.4 173.95 694.7 174 691.2 178.8 686.15 187.5 680.05 197.9 677.05 202.2 678.7 187.75 679.2 174.55 680.55 174.65 681.3 173.95 681.7 173.55 681.8 173 Z"/>
</g>

<g id="Layer1_0_FILL">
<path fill="#6F6F6F" stroke="none" d="
M 784.1 368.4
Q 783.7505859375 368.3333984375 783.4 368.5 780.7322265625 369.7912109375 779.2 371.55
L 779.2 371.6
Q 777.387890625 373.536328125 777.1 376.15 777.0603515625 376.556640625 777.3 376.85 777.3419921875 376.89609375 777.35 376.9
L 777.3 376.95
Q 777.0400390625 377.2564453125 777.05 377.65 777.0841796875 380.7150390625 779 384.55 779.0912109375 384.7380859375 779.25 384.85 779.4181640625 385.00078125 779.6 385.05
L 811.4 394.2 811.15 392.1 780.6 383.25
Q 779.112109375 380.1369140625 779.05 377.6 779.0455078125 377.2416015625 778.8 376.95 779.0564453125 376.7181640625 779.1 376.35 779.3103515625 374.380859375 780.65 372.9 780.6986328125 372.9125 780.7 372.9 781.9052734375 371.5109375 783.95 370.45
L 814.1 378.55
Q 814.9240234375 377.240625 815.25 376.8
L 784.1 368.4 Z"/>

<path fill="#666666" stroke="none" d="
M 738.35 178.85
Q 738.527734375 178.629296875 738.75 178.35
L 738.6 178.3
Q 738.5244140625 178.55625 738.35 178.85
M 699.2 170
Q 699.001171875 169.9796875 698.8 170 698.5822265625 170.0716796875 698.4 170.2 695.4330078125 172.40078125 694.4 175.3
L 694.4 175.3
Q 692.9142578125 179.1486328125 694.8 184.35 694.8875 184.58359375 695.05 184.75 695.2599609375 184.916015625 695.5 184.95
L 729 193.25
Q 729.080859375 191.7560546875 729.1 191.15
L 696.5 183.15
Q 695.153125 179.066796875 696.25 176
L 696.3 176
Q 696.317578125 175.9515625 696.3 175.9 697.1501953125 173.7501953125 699.25 172.05
L 735.1 179.6
Q 736.3181640625 178.50703125 737.7 177.95
L 699.2 170 Z"/>

<path fill="#FFFFFF" stroke="none" d="
M 699.25 172.05
Q 697.1501953125 173.7501953125 696.3 175.9
L 730.7 184.5
Q 731.178125 183.6576171875 731.6 183.05 732.534765625 181.74140625 735.1 179.6
L 699.25 172.05 Z"/>

<path fill="#CED8E6" stroke="none" d="
M 696.3 175.9
Q 696.317578125 175.9515625 696.3 176
L 696.25 176
Q 695.153125 179.066796875 696.5 183.15
L 729.1 191.15 729.25 191.2
Q 729.19921875 191.1271484375 729.15 191.05 728.37734375 189.8560546875 728.75 188.85 729.8099609375 186.2001953125 730.7 184.5
L 696.3 175.9 Z"/>
</g>

<g id="Layer0_0_FILL">
<path fill="#AEDBFB" stroke="none" d="
M 833.4 370.2
Q 832.8099609375 370.373046875 832.45 370.65 832 371 831.85 371.55 831.65 372.1 831.9 372.55 832.25 373.25 833.2 373.35 833.2556640625 373.35 833.4 373.35 837.45 373.1 841.55 372.9 853.85 372.45 862.65 380.6 862.9099609375 380.8833984375 863.05 381 863.85 381.65 864.6 381.4 865.15 381.2 865.4 380.65 865.6 380.1 865.5 379.5 865.2 378.45 864.2 377.6 863.5759765625 376.9923828125 862.65 376.3 860.15 374.75 857.5 373.45 846.1 368.15 833.4 370.2
M 1110.5 485.95
Q 1109.9 486.6 1109.9 487.5 1109.9 488.4 1110.5 489 1111.15 489.65 1112 489.65 1112.85 489.65 1113.45 489 1114.1 488.4 1114.1 487.5 1114.1 486.6 1113.45 485.95 1112.85 485.35 1112 485.35 1111.15 485.35 1110.5 485.95
M 1107.8 492.8
Q 1106.8853515625 493.055859375 1105.75 494.75 1104.6048828125 496.45078125 1103.7 497.5 1103.3150390625 497.9828125 1103.15 498.15 1102.915625 498.3025390625 1100.85 499.85 1098.24921875 501.9052734375 1094.4 502.4 1090.55703125 502.9443359375 1087.7 502.15 1084.84375 501.4091796875 1082.15 499.45 1079.45078125 497.5447265625 1079.15 497.25 1078.6 496.8 1078.15 496.6 1077.55 496.4 1076.95 496.65 1076.3083984375 496.9611328125 1076.3 497.8 1076.2814453125 498.672265625 1077.95 500.15 1079.6763671875 501.6357421875 1081.5 502.75 1083.31640625 503.90703125 1086.95 504.95 1090.587890625 506.0458984375 1094.7 505.55 1098.8564453125 505.05 1102.35 502.65 1105.898046875 500.2505859375 1108.7 496.75 1109.5 495.65 1109.7 495 1110.05 493.85 1109.3 493.1 1108.75546875 492.546875 1107.8 492.8
M 1277 234
Q 1277.8 234.8 1278.95 234.8 1280.1 234.8 1280.9 234 1281.7 233.2 1281.7 232.05 1281.7 230.9 1280.9 230.1 1280.1 229.3 1278.95 229.3 1277.8 229.3 1277 230.1 1276.2 230.9 1276.2 232.05 1276.2 233.2 1277 234
M 1259.6 230.05
Q 1265.65 230.53125 1267.35 230.95 1269.05 231.40625 1269.65 231.35 1271.05 231.25 1271.5 230.2 1271.7 229.65 1271.45 229 1271.2 228.4 1270.7 228 1269.9029296875 227.3529296875 1267.35 226.65 1264.8412109375 225.9408203125 1258.5 225.75 1252.1587890625 225.558984375 1247.15 226.6 1242.1470703125 227.646875 1237.5 230.15 1234.75 231.65 1233.45 233.45 1232.35 235.1 1233.2 236 1233.8 236.7 1234.85 236.4 1235.15 236.3 1236.45 235.55 1241.55 232.20625 1247.55 230.9 1253.6 229.58125 1259.6 230.05
M 1036.1 308.15
Q 1028.335546875 305.5111328125 1028.15 305.85 1028.003125 306.196875 1028.7 306.75 1031.9 309.75 1036.5 311.25 1040.7 312.65 1045.5 312.6 1052.8 312.6 1063.3 308.85 1065.65 308 1070.3 306.25 1074.40234375 304.7521484375 1081.1 303.1 1087.792578125 301.4931640625 1091.6 302 1092.5544921875 302.158203125 1093.2 302.25 1093.15 302 1092.8 301.9 1089.1462890625 300.0494140625 1085.15 299.5 1081.209375 299.0017578125 1077.45 300 1073.7337890625 301.044921875 1068.65 303.05 1063.626171875 305.1078125 1053.75 307.95 1043.871875 310.7869140625 1036.1 308.15
M 1086.4 172.95
Q 1084.299609375 171.7955078125 1081.2 170.65 1079.45 170.05 1078.45 170.25 1077.7 170.4 1077.2 171 1076.7 171.6 1076.85 172.3 1077.05 173.25 1078.9 174 1082 175.3 1088.6 178.8
L 1091.2 180.25
Q 1092.7 181.15 1094.5 182.45 1099.95 186.3 1103.15 189.7 1104.15 190.7 1104.65 191 1105.65 191.55 1106.5 191.2 1107.2 190.9 1107.45 190.1 1107.7 189.3 1107.4 188.55 1107.1 187.6 1105.5 186.15 1098.3455078125 179.380859375 1093.4 176.75 1088.5021484375 174.1134765625 1086.4 172.95
M 1110.2 195.1
Q 1109.3 196 1109.3 197.3 1109.3 198.6 1110.2 199.5 1111.1 200.4 1112.4 200.4 1113.7 200.4 1114.6 199.5 1115.5 198.6 1115.5 197.3 1115.5 196 1114.6 195.1 1113.7 194.2 1112.4 194.2 1111.1 194.2 1110.2 195.1
M 746.6 182.5
Q 746.5 183.6 747.45 184.1 748.25 184.5 749.7 184.1 752.25 183.5 754.9 183.35 759.35 183.05 767.95 184.45 771.55 185.05 773.2 185.85 774.15 186.3 775.95 187.3 777.25 187.9 778.05 187.35 778.55 187.05 778.65 186.3 778.75 185.65 778.45 185.05 777.9 184.1 776.5 183.35 771.9 180.85 763.65 179.55
L 760.7 179.15
Q 755 178.55 749.4 180 748 180.4 747.45 180.85 746.6 181.55 746.6 182.5
M 741.65 182.85
Q 740.95 182.75 740.5 183 740.15 183.15 739.8 183.5 739.5 183.85 739.4 184.2 739.35 184.35 739.35 185 739.6 186.3 739.85 186.65 740.25 187.1 740.8 187.2 741.4 187.35 742 187.1 742.6 186.9 742.95 186.35 743.3 185.75 743.3 184.7 743.3 184.1 743.15 183.8 742.8 183.05 741.65 182.85 Z"/>
</g>

<path id="Layer3_0_1_STROKES" stroke="#183D6F" stroke-width="2" stroke-linejoin="round" stroke-linecap="round" fill="none" d="
M 1083.3 313.15
Q 1088.55 321.4 1093.6 331 1096.5 336.45 1101.6 346.6 1106.05 355.3 1109.2 360.35 1117.85 374.3 1128.6 380.5 1141.55 388 1162.6 388 1189.65 388 1203.95 368.25 1213.55 354.95 1220.7 324.9 1226.15 302 1226.2 301.7 1229.55 289.1 1233.2 281.5 1242.75 261.75 1261.75 261.75 1266.9 261.75 1273.65 265.3 1280.45 268.85 1287.75 268.85 1297.75 268.85 1302.4 262.75 1306.35 257.6 1306.35 248.25 1306.35 233.7 1289.25 226.8 1276.8 221.75 1259.25 221.75 1230.8 221.75 1217.1 243.35 1208.1 257.55 1202 290.9 1198.2 311.8 1197.2 316.25 1194.15 329.95 1190.25 338.4 1180.25 360 1158.1 360 1144.25 360 1135.05 353.25 1127.7 347.85 1121 336 1113.4 320.95 1108.95 312.7
M 1083.3 313.15
Q 1082.0044921875 311.0572265625 1080.025 307.325 1077.7751953125 307.86796875 1075.175 308.6 1072.502734375 309.345703125 1069.45 310.3 1070.759375 312.0498046875 1072.25 313.95 1072.514453125 314.28828125 1072.775 314.625 1080.59609375 324.7884765625 1083.5 333.5 1088.25 347.65 1090.4 356.75 1093.5 369.95 1093.5 380.5 1093.5 401.6 1084 434.8 1078.1 455.4 1077.45 457.9 1074.5 469.65 1074.5 476.6 1074.5 483.5 1078.55 489.55 1082.551953125 495.6037109375 1088.95 497 1095.34375 498.3888671875 1099.575 495.5 1103.8060546875 492.6111328125 1107.125 484.75 1110.4478515625 476.8962890625 1113.55 474.5 1118.6 470.6 1122.5 470.6 1132.8 470.6 1137.6 477.6 1141.6 483.4 1141.6 493.6 1141.6 509.55 1127.65 521.8 1114 533.75 1097 533.75 1074.85 533.75 1060.5 520.75 1045.5 507.15 1045.5 484.6 1045.5 474.25 1048.15 459.55 1049.65 451.3 1054 432.2 1062.5 394.9 1062.5 377 1062.5 364.75234375 1054.925 342.1 1052.0998046875 333.6068359375 1048.2 323.65 1046.60078125 327.5595703125 1044.65 333.35 1043.037890625 338.078515625 1041.925 342.1 1039.4 351.17578125 1039.4 356.65 1039.4 364.95 1043.95 376.2 1048.5 387.45 1048.5 396.75 1048.5 414.7869140625 1038 439.7 1033.9240234375 449.449609375 1033.125 456.65 1033.1 457.55 1033.15 458.45 1033.85 467.1 1036.275 475.2
L 1036.4 475.65 1036.375 475.65
Q 1038.2 483.3 1039 490.95 1039.9 499.25 1037.475 507.2 1035.0107421875 518.2626953125 1031.3 523.85 1022.40390625 537.3314453125 1014.4 532.75 1005.6234375 524.675 1014.4 514.65 1028.52109375 497.19921875 1024.175 482.025 1019.8341796875 466.8505859375 1019.625 461.2 1019.4052734375 455.5498046875 1022.3 448 1023.85 443.9 1028.65 434.7 1033.15 426 1035 420.7 1037.9 412.5 1037.9 404.5 1037.9 391.45 1032.9 378.9 1030.35 372.5 1029.45 368.95 1027.9 362.75 1027.9 355 1027.9 349.24921875 1029.275 342.1 1030.5837890625 335.2642578125 1033.15 327.15 1034.1427734375 324.0048828125 1035.15 321.225 1036.4263671875 317.669921875 1037.725 314.7 1034.2826171875 313.841796875 1031.15 312.35 1030.88203125 312.2205078125 1030.6 312.075 1028.0880859375 314.394140625 1025.85 316.825 1020.2158203125 322.9208984375 1016.3 329.7 1012.76953125 335.8001953125 1010.825 342.1 1008.4 349.8970703125 1008.4 358 1008.4 364.65 1010.35 371.8 1011.25 375.1 1014.65 384.45 1020.9 401.7 1020.9 416.5 1020.9 427.4 1017.7 435.95 1015.15 442.75 1009.5 450.2 1001.792578125 460.0982421875 991.4 477.425 981.007421875 494.7517578125 987.35 510.65 994.3123046875 522.1361328125 992.125 527.425 989.94453125 532.7224609375 983.1 530.7 976.25 528.675390625 971.35 515.7 965.0478515625 491.7498046875 977.75 471.45 990.4458984375 451.13984375 994.325 445.125 998.20234375 439.1048828125 1001.35 432.1 1006.4 421.05 1006.4 411.8 1006.4 402.7 1001.15 387.3 995.9 371.9 995.9 362 995.9 352.20390625 998.2 342.1 998.6693359375 339.9818359375 999.25 337.85 999.365234375 337.433203125 999.475 337.025 998.153515625 339.5439453125 996.975 342.1 987.993359375 361.62578125 987.475 383.35 986.276171875 433.772265625 971.65 450.3 945.906640625 479.4134765625 907.55 471.9 904.071875 470.553125 900.825 468.8 888.5783203125 462.1884765625 879.625 449.8 878.513671875 448.2576171875 877.45 446.625 875.8763671875 444.210546875 874.45 442.025
M 874.45 310.175
Q 887.9974609375 324.9 904.5 324.9 915.25 324.9 924.4 319.25 930.95 315.15 939.6 305.85 951.95 292.55 954.5 290.2 955.30234375 289.4587890625 956.1 288.75 959.1404296875 286.09375 962.225 283.925 958.918359375 282.8015625 951.575 278.55 944.2314453125 274.2900390625 943.05 262.375 941.8712890625 250.459765625 944.725 240.45 947.578125 230.448046875 952.9 218.7 952.544140625 218.59375 952.2 218.5 951.65 218.35 951.2 218.25 949.55 217.8 948.25 217.5 948.55 216.9 949 216.15 949.25 215.6 949.5 215.15 950.7 215.45 953.15 216.15 953.45 216.25 953.8 216.3 953.9794921875 216.3484375 954.175 216.4 956.77734375 212.2005859375 961.15 206.35 975.75 186.9 997.65 174.7 1023.7 160.15 1047 160.15 1053.721875 160.15 1060.2 160.975 1074.6837890625 162.838671875 1087.95 168.85 1105.85 177 1119.55 191.75 1132.6392578125 205.784765625 1139.825 223.675 1142.1330078125 224.193359375 1149.75 227.75 1157.3603515625 231.3185546875 1154.65 233.8 1154.5 233.8 1153.7 234.05 1152.85 234.3 1152.15 234.3 1149.25 234.3 1146.1 232.9 1144.0375 231.8130859375 1142.5 231.025 1147.1 245.44375 1147.1 260.25 1147.1 279.2 1140.1 292.35 1131.35 308.85 1114.3 308.85 1111.7646484375 308.85 1106.375 308.025
L 1106.4 308.05 1108.05 308.35 1107.65 308.3
Q 1107.0248046875 308.202734375 1106.425 308.125 1107.6626953125 310.2974609375 1108.95 312.65
M 987.375 195.95
Q 988.714453125 195.8 990.1 195.8 993.5396484375 195.8 996.65 196.675 1003.3205078125 198.5548828125 1008.5 204.45 1014.55 211.3 1015.85 220.3 1016 221.9 1016.1 223.6 1016.15 224.4 1016.15 225.25 1016.15 226.722265625 1016.05 228.15 1017.1740234375 227.55390625 1018.4 227.05 1022.15 225.5 1024.85 225.5 1028.6 225.5 1031.8 227.3 1032.683203125 227.7869140625 1033.45 228.375 1034.2578125 217.8369140625 1041.95 210.1 1049.6634765625 202.3865234375 1060.2 201.55 1061.479296875 201.45 1062.8 201.45 1075 201.45 1083.6 210.1 1090.43359375 216.93359375 1091.875 225.95 1095.29453125 225.734375 1107.5 224.25 1121 222.75 1131.1 222.75 1135.67421875 222.75 1139.825 223.675
M 1092.2 229.225
Q 1092.25 230.04765625 1092.25 230.9 1092.25 243.1 1083.6 251.7 1075 260.35 1062.8 260.35 1061.479296875 260.35 1060.2 260.25 1049.6634765625 259.4134765625 1041.95 251.7 1033.35 243.1 1033.35 230.9 1033.35 229.6173828125 1033.45 228.375
M 1091.875 225.95
Q 1092.1162109375 227.55859375 1092.2 229.225 1122.5966796875 226.45078125 1129.25 226.7 1135.94453125 226.9548828125 1142.5 231.025
M 986.925 292.475
Q 990.3271484375 290.094921875 993.5 288.425 991.17734375 287.947265625 988.85 287.8 976.7 287.05 970.45 286 965.859765625 285.1869140625 962.225 283.925
M 1017.825 311.1
Q 1019.925 308.7841796875 1022.175 306.5 1020.0935546875 304.846875 1017.9 302.85 1010.4 296.05 1004.5 292.7 1003.040625 291.871484375 1001.575 291.175 999.68203125 293.103125 997.875 295.025 976.3404296875 318.1763671875 968.2 342.1 965.0484375 351.3423828125 963.9 360.7 962.29453125 373.77421875 961.25 383.05 961.05 385.25 960.9 387.5 960.23125 397.9 959.05 408.3 958.3 413.6 957.4 418.85 955.5 429.5 948.15 436.8 946.0314453125 438.8416015625 943.35 440.75 934.09609375 446.31796875 921.25 443.8 904.8611328125 440.3646484375 889.1 407.95 881.3890625 392.08515625 874.45 382.6 867.2181640625 372.7099609375 860.825 369.75 858.137109375 368.5044921875 855.45 367.6 854.325 367.2373046875 853.2 366.925 850.1994140625 366.07890625 847.2 365.675 841.4853515625 364.8974609375 835.775 365.7 823.2669921875 367.4640625 815.65 377.95 814 380.55 813.1 383.9 812.713671875 385.3033203125 812.475 386.625 811.7802734375 390.405859375 812.3 393.45 812.35 394.05 812.55 394.55 813.7458984375 399.508203125 817.85 403.075 821.95390625 406.6345703125 827.075 407.25 832.191796875 407.866796875 837.925 407.5 843.666015625 407.1361328125 851.15 412.65 853.497265625 414.386328125 855.45 416.075 859.7146484375 419.7865234375 862.1 423.3 865.119921875 427.735546875 874.45 442.025
M 993.5 288.425
Q 997.553515625 289.2833984375 1001.575 291.175
M 1016.05 228.15
Q 1015.2267578125 238.487890625 1008.5 246.05 1000.9 254.7 990.1 254.7 979.3 254.7 971.65 246.05 964 237.45 964 225.25 964 224.27734375 964.05 223.325 964.069140625 222.8966796875 964.1 222.475
M 962.65 221.525
Q 959.4330078125 220.5408203125 955.8 219.55 954.256640625 219.0751953125 952.9 218.7
M 1037.725 314.7
Q 1041.2142578125 315.5671875 1045.025 315.775 1046.2482421875 315.85 1047.5 315.85 1050.8134765625 315.85 1060.2 313.15 1063.560546875 312.168359375 1067.7 310.85 1068.5861328125 310.566796875 1069.45 310.3
M 1022.175 306.5
Q 1026.6546875 310.0798828125 1030.6 312.075
M 1048.2 323.65
Q 1048.0154296875 323.1814453125 1047.825 322.7 1047.7787109375 322.5654296875 1047.725 322.425 1046.4296875 319.18515625 1045.025 315.775
M 999.475 337.025
Q 1006.563671875 323.5259765625 1017.825 311.1
M 1106.425 308.1
L 1106.4 308.05
M 1094.025 306.35
Q 1098.284765625 306.9267578125 1106.425 308.125
L 1106.425 308.1
M 1094.025 306.35
Q 1089.4240234375 306.00390625 1086.95 306.1 1084.480859375 306.19609375 1080.225 307.275 1080.119921875 307.3001953125 1080.025 307.325
L 1080 307.3
M 986.925 292.475
Q 981.910546875 295.9888671875 976.4 301.05 964.7455078125 311.74453125 952.675 327.7 945.648046875 337.0015625 937.575 342.1 931.80859375 345.75390625 925.5 347.25 910.3822265625 350.828515625 894.25 348.4 886.123828125 345.8861328125 878.9 342.1 876.62890625 340.9126953125 874.45 339.6
M 987.375 195.95
Q 978.3185546875 196.909765625 971.65 204.45 967.968359375 208.612890625 966.075 213.575 965.044140625 216.24609375 964.525 219.15
M 964.55 219.15
Q 964.22890625 221.5451171875 964.2 221.7
M 964.1 222.475
Q 964.13125 222.08984375 964.175 221.7
M 695.325 175.65
Q 696.3005859375 172.9853515625 699 171
L 737.65 179.025
Q 745.647265625 173.905078125 761.55 175.35 777.458984375 176.799609375 796.875 189.85 816.290234375 202.894921875 828.45 223.8 835.1443359375 235.3091796875 840.15 245.225 844.237890625 253.318359375 847.2 260.35 848.35390625 263.1013671875 849.65 266.2 851.4767578125 270.5326171875 853.2 274.4 854.3482421875 276.98125 855.45 279.35
M 730.1 192.5
L 695.75 184
Q 694.0091796875 179.21875 695.325 175.65
M 737.65 179.025
Q 733.9662109375 181.2287109375 731.95 184.825 731.0642578125 186.4046875 730.65 188.25 730.2056640625 190.44296875 730.1 192.5 729.045703125 214.197265625 754.2 219.05 777.203125 223.7166015625 800.5 239.3 818.0849609375 251.001171875 836.35 293.575 838.1466796875 297.762109375 840.15 301.65 843.402734375 307.976953125 847.2 313.525 850.046875 317.6845703125 853.2 321.4 854.30625 322.7076171875 855.45 323.95 863.9171875 333.24453125 874.45 339.6
M 815.65 377.95
L 783.85 369.4
Q 781.3638671875 370.5955078125 779.95 372.225 778.367578125 373.9431640625 778.1 376.225
L 778.1 376.25
Q 778.0087890625 376.9142578125 778.025 377.625 778.0837890625 380.5025390625 779.9 384.1
L 812.3 393.45
M 954.175 216.4
Q 955.9021484375 216.8630859375 958.25 217.45 958.8 217.6 959.25 217.7 962.212109375 218.48671875 964.525 219.15
M 962.65 221.525
Q 963.3376953125 221.7408203125 964 221.95
M 874.45 310.175
Q 868.294921875 303.4810546875 862.75 293.75 859.3947265625 287.8634765625 855.45 279.35"/>

<path id="Layer3_0_2_STROKES" stroke="#000000" stroke-width="2" stroke-linejoin="round" stroke-linecap="round" fill="none" d="
M 1065.95 221.65
Q 1069.55 221.047265625 1071.3 217.3
M 1068.375 225.825
Q 1069.8 229.283203125 1069.8 233.45 1069.8 240.6 1065.65 245.65 1063.2171875 248.6103515625 1060.2 249.825 1058.0705078125 250.7 1055.65 250.7 1049.8 250.7 1045.65 245.65 1041.5 240.6 1041.5 233.45 1041.5 226.3 1045.65 221.25 1049.8 216.2 1055.65 216.2 1058.070703125 216.2 1060.2 217.075 1063.2171875 218.2896484375 1065.65 221.25 1065.8091796875 221.4435546875 1065.95 221.65 1067.466796875 223.5900390625 1068.375 225.825 1072.0484375 225.879296875 1074.8 222.8
M 1063.7 227
Q 1063.7 229.55 1061.9 231.3 1061.1279296875 232.094140625 1060.2 232.55 1059.025 233.1 1057.6 233.1 1055.05 233.1 1053.25 231.3 1051.5 229.55 1051.5 227 1051.5 224.45 1053.25 222.65 1055.05 220.9 1057.6 220.9 1059.025 220.9 1060.2 221.45 1061.1279296875 221.8779296875 1061.9 222.65 1063.7 224.45 1063.7 227 Z
M 985.4 217.05
Q 985.5958984375 216.7982421875 985.8 216.55 989.95 211.5 995.8 211.5 1001.65 211.5 1005.8 216.55 1009.95 221.6 1009.95 228.75 1009.95 235.9 1005.8 240.95 1001.65 246 995.8 246 989.95 246 985.8 240.95 981.65 235.9 981.65 228.75 981.65 224.55625 983.075 221.075 980.2400390625 220.7306640625 978.4 217.8
M 1003.85 222.3
Q 1003.85 224.85 1002.05 226.6 1000.3 228.4 997.75 228.4 995.2 228.4 993.4 226.6 991.65 224.85 991.65 222.3 991.65 219.75 993.4 217.95 995.2 216.2 997.75 216.2 1000.3 216.2 1002.05 217.95 1003.85 219.75 1003.85 222.3 Z
M 983.075 221.075
Q 983.96328125 218.9279296875 985.4 217.05 982.7701171875 216.04609375 981.9 212.05
M 1011.475 266.075
Q 1007.796484375 261.4162109375 1008.45 252.6
L 1038.5 252.6
Q 1038.678125 260.280078125 1036.2 264.7 1034.536328125 267.6484375 1031.7 269.15 1025.2 272.4578125 1017.95 270.35 1013.8177734375 269.069140625 1011.475 266.075 1022.4078125 255.2861328125 1036.2 264.7"/>

<path id="Layer3_0_3_STROKES" stroke="#6B3419" stroke-width="2" stroke-linejoin="round" stroke-linecap="round" fill="none" d="
M 874.45 442.025
L 874.45 468.8 32.1 468.8 32.1 61.55 874.45 61.55 874.45 310.175
M 874.45 339.6
L 874.45 382.6
M 855.45 279.35
L 855.45 80.55 51.1 80.55 51.1 449.8 855.45 449.8 855.45 416.075
M 855.45 323.95
L 855.45 367.6"/>

<path id="Layer1_0_1_STROKES" stroke="#183D6F" stroke-width="2" stroke-linejoin="round" stroke-linecap="round" fill="none" d="
M 738.75 178.35
Q 739.773828125 177.806640625 740.9 177.35 748.6095703125 174.17421875 761.55 175.35 777.458984375 176.799609375 796.875 189.85 816.290234375 202.894921875 828.45 223.8 840.610546875 244.70703125 847.2 260.35 848.35390625 263.1013671875 849.65 266.2 851.4767578125 270.5326171875 853.2 274.4 854.3482421875 276.98125 855.45 279.35 859.3947265625 287.8634765625 862.75 293.75 868.294921875 303.4810546875 874.45 310.175 887.9974609375 324.9 904.5 324.9 915.25 324.9 924.4 319.25 930.95 315.15 939.6 305.85 951.95 292.55 954.5 290.2 955.30234375 289.4587890625 956.1 288.75
M 894.25 348.4
Q 883.5748046875 345.09765625 874.45 339.6 863.9171875 333.24453125 855.45 323.95 854.30625 322.7076171875 853.2 321.4 850.046875 317.6845703125 847.2 313.525 841.0634765625 304.559375 836.35 293.575 818.0849609375 251.001171875 800.5 239.3 777.203125 223.7166015625 754.2 219.05
M 816.25 377.15
Q 823.7556640625 367.3951171875 835.775 365.7 841.4853515625 364.8974609375 847.2 365.675 850.1994140625 366.07890625 853.2 366.925 854.325 367.2373046875 855.45 367.6 858.137109375 368.5044921875 860.825 369.75 867.2181640625 372.7099609375 874.45 382.6 881.3890625 392.08515625 889.1 407.95 904.8611328125 440.3646484375 921.25 443.8 934.09609375 446.31796875 943.35 440.75
M 907.55 471.9
Q 904.071875 470.553125 900.825 468.8 888.5783203125 462.1884765625 879.625 449.8 878.513671875 448.2576171875 877.45 446.625 875.8763671875 444.210546875 874.45 442.025 865.119921875 427.735546875 862.1 423.3 859.7146484375 419.7865234375 855.45 416.075 853.497265625 414.386328125 851.15 412.65 843.666015625 407.1361328125 837.925 407.5 832.191796875 407.866796875 827.075 407.25 821.95390625 406.6345703125 817.85 403.075 813.7458984375 399.508203125 812.55 394.55"/>
</defs>

<g transform="matrix( 1, 0, 0, 1, 0,0) ">
<use xlink:href="#Layer3_0_FILL"/>

<use xlink:href="#Layer3_0_1_STROKES"/>

<use xlink:href="#Layer3_0_2_STROKES"/>

<use xlink:href="#Layer3_0_3_STROKES"/>
</g>

<g transform="matrix( 1, 0, 0, 1, 0,0) ">
<use xlink:href="#Layer2_0_FILL"/>
</g>

<g transform="matrix( 1, 0, 0, 1, 0,0) ">
<use xlink:href="#Layer1_0_FILL"/>

<use xlink:href="#Layer1_0_1_STROKES"/>
</g>

<g transform="matrix( 1, 0, 0, 1, 0,0) ">
<use xlink:href="#Layer0_0_FILL"/>
</g>
</svg>
